<?xml version="1.0" encoding="UTF-8"?>
<!DOCTYPE svg PUBLIC "-//W3C//DTD SVG 1.1//EN" "http://www.w3.org/Graphics/SVG/1.1/DTD/svg11.dtd">
<svg xmlns="http://www.w3.org/2000/svg" version="1.1" width="481px" height="481px" style="shape-rendering:geometricPrecision; text-rendering:geometricPrecision; image-rendering:optimizeQuality; fill-rule:evenodd; clip-rule:evenodd" xmlns:xlink="http://www.w3.org/1999/xlink">
<g><path style="opacity:0.911" fill="#800f22" d="M 221.5,7.5 C 313.539,2.44402 386.039,37.1107 439,111.5C 454.187,134.875 464.687,160.209 470.5,187.5C 329.833,187.333 189.166,187.5 48.5,188C 36.6656,190.125 30.8323,197.291 31,209.5C 30.3333,226.5 30.3333,243.5 31,260.5C 30.7941,273.299 36.9608,280.466 49.5,282C 75.5,282.667 101.5,282.667 127.5,282C 141.291,280.286 147.291,272.453 145.5,258.5C 152.175,258.334 158.842,258.5 165.5,259C 166.675,287.831 152.675,302.497 123.5,303C 99.8333,303.667 76.1667,303.667 52.5,303C 28.5812,303.401 14.7479,291.901 11,268.5C 10.3333,246.167 10.3333,223.833 11,201.5C 15.1059,179.732 28.2726,168.232 50.5,167C 181.833,166.5 313.166,166.333 444.5,166.5C 439.207,150.915 432.041,136.248 423,122.5C 396.403,83.172 361.237,55.3387 317.5,39C 240.594,13.7867 170.261,25.7867 106.5,75C 83.2789,95.5428 64.6122,119.543 50.5,147C 43.0364,147.965 35.7031,149.465 28.5,151.5C 36.0722,131.685 46.2389,113.352 59,96.5C 79.2653,72.4675 102.765,52.3009 129.5,36C 158.513,20.7148 189.18,11.2148 221.5,7.5 Z"/></g>
<g><path style="opacity:0.921" fill="#800f22" d="M 279.5,223.5 C 327.167,223.5 374.833,223.5 422.5,223.5C 422.5,230.167 422.5,236.833 422.5,243.5C 385.165,243.667 347.832,243.5 310.5,243C 301.618,233.908 291.284,227.408 279.5,223.5 Z"/></g>
<g><path style="opacity:0.91" fill="#9e9792" d="M 186.5,245.5 C 214.835,245.333 243.169,245.5 271.5,246C 296.486,249.641 308.152,263.974 306.5,289C 299.842,289.5 293.175,289.666 286.5,289.5C 288.324,277.287 283.324,269.787 271.5,267C 242.857,265.175 214.191,265.008 185.5,266.5C 185.205,259.412 185.538,252.412 186.5,245.5 Z"/></g>
<g><path style="opacity:0.919" fill="#9e9792" d="M 326.5,283.5 C 375.167,283.5 423.833,283.5 472.5,283.5C 463.032,334.615 439.365,377.782 401.5,413C 341.282,465.809 271.615,484.476 192.5,469C 126.677,453.021 76.1773,416.187 41,358.5C 34.0664,345.968 28.2331,332.968 23.5,319.5C 23.8333,318.833 24.1667,318.167 24.5,317.5C 31.244,320.269 38.244,321.936 45.5,322.5C 67.2062,373.358 102.54,410.858 151.5,435C 225.554,466.752 296.554,461.085 364.5,418C 404.776,389.056 432.776,351.056 448.5,304C 407.835,303.5 367.168,303.333 326.5,303.5C 326.5,296.833 326.5,290.167 326.5,283.5 Z"/></g>
<g><path style="opacity:0.928" fill="#9e9792" d="M 169.5,305.5 C 170.875,319.898 172.375,334.565 174,349.5C 176.443,355.606 180.943,359.106 187.5,360C 215.167,362 242.833,362 270.5,360C 282.946,357.702 288.279,350.202 286.5,337.5C 293.5,337.5 300.5,337.5 307.5,337.5C 308.154,363.677 295.487,378.177 269.5,381C 242.833,381.667 216.167,381.667 189.5,381C 167.716,379.548 155.216,368.048 152,346.5C 151.5,336.506 151.334,326.506 151.5,316.5C 158.533,314.455 164.533,310.789 169.5,305.5 Z"/></g>
</svg>
