<?xml version="1.0" encoding="utf-8"?>
<!-- Generator: Adobe Illustrator 14.0.0, SVG Export Plug-In . SVG Version: 6.00 Build 43363)  -->
<!DOCTYPE svg PUBLIC "-//W3C//DTD SVG 1.1//EN" "http://www.w3.org/Graphics/SVG/1.1/DTD/svg11.dtd">
<svg version="1.1" id="Layer_1" xmlns="http://www.w3.org/2000/svg" xmlns:xlink="http://www.w3.org/1999/xlink" x="0px" y="0px"
	 width="432px" height="155.326px" viewBox="0 0 432 155.326" enable-background="new 0 0 432 155.326" xml:space="preserve">
<rect fill="none" width="432" height="155.326"/>
<g>
	<path fill="#861A23" d="M149.989,40.304c-1.098,1.042-1.632,2.31-1.632,3.881v6.802c0,1.572,0.534,2.84,1.632,3.881
		c1.104,1.047,2.412,1.556,3.995,1.556h13.921v-3.468h-13.921c-1.393,0-2.161-0.701-2.161-1.975v-6.789
		c0-1.274,0.768-1.975,2.161-1.975h13.921V38.75h-13.921C152.401,38.75,151.094,39.258,149.989,40.304z"/>
	<path fill="#861A23" d="M177.637,56.423h10.889c1.583,0,2.889-0.509,3.996-1.556c1.098-1.041,1.632-2.309,1.632-3.881v-6.802
		c0-1.571-0.534-2.839-1.632-3.881c-1.106-1.046-2.413-1.554-3.996-1.554h-10.889c-1.583,0-2.89,0.508-3.995,1.554
		c-1.1,1.042-1.634,2.31-1.634,3.881v6.802c0,1.572,0.534,2.84,1.634,3.881C174.747,55.915,176.054,56.423,177.637,56.423z
		 M175.476,44.191c0-1.274,0.768-1.975,2.162-1.975h10.889c1.395,0,2.161,0.701,2.161,1.975v6.789c0,1.274-0.766,1.975-2.161,1.975
		h-10.889c-1.394,0-2.162-0.701-2.162-1.975V44.191z"/>
	<polygon fill="#861A23" points="217.194,56.423 217.194,38.75 213.727,38.75 213.727,51.846 201.964,38.75 198.258,38.75 
		198.258,56.423 201.725,56.423 201.725,43.251 213.489,56.423 	"/>
	<path fill="#861A23" d="M240.228,44.558c0,2.036-1.015,2.34-1.62,2.34h-10.181l8.5,9.525h4.756l-5.445-6.058h2.624
		c1.528,0,2.699-0.58,3.584-1.773c0.83-1.099,1.25-2.456,1.25-4.034c0-1.578-0.42-2.934-1.248-4.031
		c-0.887-1.196-2.058-1.776-3.586-1.776h-17.563v17.673h3.466V42.217h13.844C239.213,42.217,240.228,42.522,240.228,44.558z"/>
	<path fill="#861A23" d="M252.597,42.217h12.259c0.51,0,1.366,0.239,1.366,1.835v3.026H254.83v3.467h11.393v5.878h3.468V44.041
		c0-1.465-0.443-2.692-1.356-3.75c-0.896-1.038-2.034-1.542-3.478-1.542h-12.259c-1.419,0-2.546,0.503-3.443,1.542
		c-0.912,1.058-1.355,2.285-1.355,3.75v12.382h3.467V44.049C251.266,42.456,252.101,42.217,252.597,42.217z"/>
	<path fill="#861A23" d="M291.655,54.868c1.087-1.039,1.617-2.309,1.617-3.881v-6.802c0-1.572-0.529-2.843-1.617-3.882
		c-1.093-1.044-2.394-1.553-3.975-1.553h-13.884v3.467h13.917c1.35,0,2.093,0.701,2.093,1.975v6.789
		c0,1.274-0.744,1.975-2.094,1.975h-10.448V45.6h-3.467v10.824h13.884C289.262,56.423,290.562,55.915,291.655,54.868z"/>
	<path fill="#861A23" d="M298.71,47.734c0.935,1.068,2.079,1.585,3.5,1.585h11.646c0.497,0,1.331,0.237,1.331,1.818
		c0,1.582-0.834,1.817-1.331,1.817h-15.58v3.468h15.58c1.422,0,2.566-0.517,3.498-1.58c0.874-1.025,1.3-2.24,1.3-3.706
		c0-1.465-0.427-2.678-1.308-3.711c-0.929-1.057-2.076-1.573-3.501-1.573h-11.67c-0.498,0-1.333-0.235-1.333-1.801
		c0-1.597,0.835-1.835,1.333-1.835h15.614V38.75H302.21c-1.42,0-2.554,0.505-3.462,1.548c-0.923,1.059-1.373,2.287-1.373,3.754
		C297.376,45.519,297.813,46.723,298.71,47.734z"/>
	<path fill="#979392" d="M149.989,67.828c-1.098,1.04-1.632,2.309-1.632,3.88v6.801c0,1.571,0.534,2.84,1.632,3.881
		c1.104,1.046,2.412,1.555,3.995,1.555h13.921v-3.467h-13.921c-1.393,0-2.161-0.701-2.161-1.975v-6.79
		c0-1.274,0.768-1.975,2.161-1.975h13.921v-3.467h-13.921C152.401,66.272,151.094,66.78,149.989,67.828z"/>
	<path fill="#979392" d="M194.153,71.708c0-1.572-0.534-2.841-1.632-3.88c-1.106-1.048-2.413-1.556-3.996-1.556h-10.889
		c-1.583,0-2.89,0.508-3.995,1.556c-1.1,1.04-1.634,2.309-1.634,3.88v6.801c0,1.571,0.534,2.84,1.634,3.881
		c1.104,1.046,2.411,1.555,3.995,1.555h10.889c1.583,0,2.889-0.509,3.996-1.555c1.098-1.041,1.632-2.31,1.632-3.881V71.708z
		 M190.687,78.504c0,1.274-0.766,1.975-2.161,1.975h-10.889c-1.394,0-2.162-0.701-2.162-1.975v-6.79
		c0-1.274,0.768-1.975,2.162-1.975h10.889c1.395,0,2.161,0.701,2.161,1.975V78.504z"/>
	<polygon fill="#979392" points="213.727,79.369 201.964,66.272 198.258,66.272 198.258,83.945 201.725,83.945 201.725,70.773 
		213.489,83.945 217.194,83.945 217.194,66.272 213.727,66.272 	"/>
	<path fill="#979392" d="M222.632,75.257c0.934,1.068,2.079,1.584,3.5,1.584h11.646c0.497,0,1.331,0.237,1.331,1.82
		c0,1.581-0.834,1.817-1.331,1.817h-15.58v3.467h15.58c1.422,0,2.566-0.516,3.498-1.579c0.873-1.025,1.3-2.239,1.3-3.705
		c0-1.465-0.427-2.679-1.307-3.712c-0.93-1.057-2.077-1.574-3.502-1.574h-11.67c-0.498,0-1.334-0.233-1.334-1.799
		c0-1.598,0.836-1.836,1.334-1.836h15.613v-3.467h-15.579c-1.42,0-2.554,0.506-3.462,1.548c-0.924,1.059-1.373,2.289-1.373,3.756
		C221.297,73.043,221.734,74.246,222.632,75.257z"/>
	<path fill="#979392" d="M251.516,83.945h12.259c1.421,0,2.554-0.505,3.462-1.547c0.924-1.06,1.373-2.288,1.373-3.756v-12.37h-3.467
		v12.37c0,1.598-0.836,1.836-1.333,1.836h-12.291c-0.511,0-1.37-0.238-1.37-1.836v-12.37h-3.467v12.37
		c0,1.448,0.457,2.713,1.357,3.758C248.933,83.44,250.071,83.945,251.516,83.945z"/>
	<polygon fill="#979392" points="276.181,66.272 272.714,66.272 272.714,83.945 290.423,83.945 290.423,80.479 276.181,80.479 	"/>
	<polygon fill="#979392" points="302.892,83.945 306.359,83.945 306.359,69.74 314.725,69.74 314.725,66.272 294.527,66.272 
		294.527,69.74 302.892,69.74 	"/>
	<path fill="#861A23" d="M165.168,96.959v-2.86h-5.859V90.89h-2.86v3.209h-3.005c-1.432,0-2.528,0.44-3.352,1.345
		c-0.746,0.806-1.106,1.785-1.106,2.996c0,1.499,0.542,2.638,1.656,3.481l0.843,0.639l-0.894,0.565
		c-1.299,0.824-1.93,2.034-1.93,3.699c0,1.19,0.363,2.171,1.108,3c0.823,0.901,1.932,1.341,3.387,1.341h3.292v3.316h2.86v-3.316
		h5.859v-2.86h-12.016c-0.501,0-1.667-0.207-1.667-2.122c0-1.914,1.168-2.121,1.671-2.121h8.064v-2.858h-7.744
		c-0.491,0-1.631-0.207-1.631-2.123c0-1.914,1.141-2.121,1.633-2.121H165.168z"/>
	<polygon fill="#861A23" points="199.59,108.001 184.156,108.001 184.156,104.365 198.615,104.365 198.615,100.899 184.156,100.899 
		184.156,97.262 199.625,97.262 199.625,93.796 180.689,93.796 180.689,111.469 199.59,111.469 	"/>
	<polygon fill="#861A23" points="203.73,93.796 203.73,111.469 207.197,111.469 207.197,98.296 218.961,111.469 222.666,111.469 
		222.666,93.796 219.199,93.796 219.199,106.891 207.436,93.796 	"/>
	<path fill="#861A23" d="M228.403,95.351c-1.098,1.041-1.632,2.31-1.632,3.88v6.802c0,1.572,0.534,2.84,1.632,3.881
		c1.104,1.047,2.411,1.556,3.994,1.556h13.921v-10.569h-9.344v3.466h5.877v3.636h-10.455c-1.394,0-2.16-0.701-2.16-1.974v-6.79
		c0-1.274,0.766-1.976,2.16-1.976h13.921v-3.466h-13.921C230.814,93.796,229.507,94.305,228.403,95.351z"/>
	<rect x="250.422" y="93.796" fill="#861A23" width="3.467" height="17.673"/>
	<polygon fill="#861A23" points="257.995,93.796 257.995,111.469 261.461,111.469 261.461,98.296 273.226,111.469 276.93,111.469 
		276.93,93.796 273.463,93.796 273.463,106.891 261.699,93.796 	"/>
	<polygon fill="#861A23" points="299.934,108.001 284.501,108.001 284.501,104.365 298.96,104.365 298.96,100.899 284.501,100.899 
		284.501,97.262 299.97,97.262 299.97,93.796 281.034,93.796 281.034,111.469 299.934,111.469 	"/>
	<polygon fill="#861A23" points="322.974,108.001 307.541,108.001 307.541,104.365 322,104.365 322,100.899 307.541,100.899 
		307.541,97.262 323.009,97.262 323.009,93.796 304.074,93.796 304.074,111.469 322.974,111.469 	"/>
	<path fill="#861A23" d="M344.676,105.411c1.529,0,2.7-0.58,3.585-1.774c0.83-1.098,1.25-2.454,1.25-4.033
		c0-1.578-0.42-2.934-1.248-4.032c-0.887-1.196-2.058-1.775-3.587-1.775h-17.563v17.673h3.468V97.262h13.844
		c0.604,0,1.619,0.306,1.619,2.342c0,2.035-1.016,2.34-1.619,2.34h-10.182l8.5,9.525h4.756l-5.445-6.058H344.676z"/>
	<rect x="353.615" y="93.796" fill="#861A23" width="3.466" height="17.673"/>
	<polygon fill="#861A23" points="361.187,93.796 361.187,111.469 364.654,111.469 364.654,98.296 376.417,111.469 380.121,111.469 
		380.121,93.796 376.655,93.796 376.655,106.891 364.893,93.796 	"/>
	<path fill="#861A23" d="M387.693,106.027v-6.79c0-1.274,0.768-1.976,2.162-1.976h13.92v-3.466h-13.92
		c-1.584,0-2.891,0.509-3.995,1.555c-1.099,1.041-1.633,2.31-1.633,3.88v6.802c0,1.572,0.535,2.84,1.633,3.881
		c1.104,1.047,2.411,1.556,3.995,1.556h13.92v-10.569h-9.344v3.466h5.878v3.636h-10.454
		C388.461,108.001,387.693,107.3,387.693,106.027z"/>
	<g>
		<path fill="#861A23" d="M53.132,92.26c4.04,0,7.004-0.768,8.811-2.28c1.842-1.544,2.777-3.889,2.777-6.973v-0.691h-4.496v0.691
			c0,1.717-0.489,2.914-1.495,3.661c-1.054,0.784-2.922,1.183-5.554,1.183H40.03c-2.859,0-4.815-0.482-5.815-1.433
			c-0.991-0.939-1.493-2.814-1.493-5.573v-8.734c0-2.877,0.505-4.827,1.499-5.796c1-0.974,2.954-1.469,5.81-1.469l96.862,0.03
			L136.8,64.5c-6.076-24.667-28.059-41.895-53.457-41.895c-21.88,0-41.693,12.991-50.476,33.097l-0.26,0.595l0.624-0.183
			c1.273-0.373,2.669-0.629,4.147-0.761l0.17-0.015l0.076-0.152c8.673-17.569,26.192-28.482,45.72-28.482
			c21.463,0,40.679,13.538,47.953,33.734h-91.31c-4.178,0-7.216,0.919-9.029,2.732c-1.812,1.813-2.731,4.822-2.731,8.942v8.734
			c0,4.126,0.908,7.094,2.698,8.82c1.782,1.722,4.832,2.595,9.063,2.595H53.132z"/>
		<path fill="#979392" d="M65.289,93.975c-1,0.838-2.183,1.535-3.517,2.075l-0.189,0.076v3.338c0,4.126,0.907,7.094,2.698,8.819
			c1.782,1.722,4.832,2.595,9.063,2.595h13.145c4.041,0,7.005-0.768,8.812-2.28c1.842-1.544,2.777-3.89,2.777-6.973v-0.69h-4.496
			v0.69c0,1.717-0.489,2.914-1.494,3.661c-1.055,0.785-2.923,1.183-5.555,1.183H73.387c-2.858,0-4.815-0.481-5.815-1.432
			c-0.991-0.939-1.493-2.815-1.493-5.573v-6.186L65.289,93.975z"/>
		<path fill="#979392" d="M98.077,88.308c0-6.14-3.899-9.253-11.588-9.253H73.344c-1.097,0-2.157,0.071-3.152,0.211l-0.26,0.037
			v3.705c0,0.082-0.003,0.162-0.006,0.241l-0.013,0.556l0.369-0.073c0.896-0.177,1.94-0.267,3.106-0.267h13.145
			c2.677,0,4.596,0.457,5.705,1.358c0.892,0.725,1.344,1.896,1.344,3.485v0.691h4.496V88.308z"/>
		<path fill="#861A23" d="M99.365,78.164h26.051v-4.41H91.889l0,0c2.796,0.572,6.2,2.595,7.387,4.324L99.365,78.164z"/>
		<path fill="#979392" d="M103.279,87.765l0.009,4.409h28.902c-6.394,21.481-26.421,36.45-48.847,36.45
			c-20.539,0-38.979-12.253-46.978-31.216l-0.068-0.16l-0.172-0.023c-1.439-0.19-2.812-0.519-4.081-0.973l-0.612-0.22l0.225,0.609
			c7.95,21.581,28.721,36.08,51.686,36.08c26.339,0,49.073-18.768,54.054-44.625l0.07-0.361L103.279,87.765z"/>
	</g>
</g>
</svg>
