<?xml version="1.0" encoding="UTF-8"?>
<!DOCTYPE svg PUBLIC "-//W3C//DTD SVG 1.1//EN" "http://www.w3.org/Graphics/SVG/1.1/DTD/svg11.dtd">
<svg xmlns="http://www.w3.org/2000/svg" version="1.1" width="512px" height="512px" style="shape-rendering:geometricPrecision; text-rendering:geometricPrecision; image-rendering:optimizeQuality; fill-rule:evenodd; clip-rule:evenodd" xmlns:xlink="http://www.w3.org/1999/xlink">
<g><path style="opacity:1" fill="#f9f9f9" d="M 370.5,131.5 C 370.811,132.478 371.478,133.145 372.5,133.5C 373.496,127.537 373.829,121.537 373.5,115.5C 374.992,112.677 377.326,111.01 380.5,110.5C 382.027,110.573 383.027,109.906 383.5,108.5C 384.514,107.326 385.847,106.66 387.5,106.5C 389.027,106.573 390.027,105.906 390.5,104.5C 391.514,103.326 392.847,102.66 394.5,102.5C 396.027,102.573 397.027,101.906 397.5,100.5C 398.514,99.3263 399.847,98.6596 401.5,98.5C 403.027,98.573 404.027,97.9063 404.5,96.5C 405.514,95.3263 406.847,94.6596 408.5,94.5C 410.027,94.573 411.027,93.9063 411.5,92.5C 412.514,91.3263 413.847,90.6596 415.5,90.5C 417.027,90.573 418.027,89.9063 418.5,88.5C 419.514,87.3263 420.847,86.6596 422.5,86.5C 424.027,86.573 425.027,85.9063 425.5,84.5C 426.514,83.3263 427.847,82.6596 429.5,82.5C 431.027,82.573 432.027,81.9063 432.5,80.5C 434.22,79.1359 436.22,78.1359 438.5,77.5C 446.815,81.3228 454.815,85.6561 462.5,90.5C 462.821,92.0481 463.821,92.7148 465.5,92.5C 477.112,98.9758 488.779,105.476 500.5,112C 502.049,113.214 503.215,114.714 504,116.5C 504.667,137.833 504.667,159.167 504,180.5C 503.617,181.056 503.117,181.389 502.5,181.5C 501.5,181.833 500.833,182.5 500.5,183.5C 482.885,193.979 464.885,203.979 446.5,213.5C 445.167,240.167 445.167,266.833 446.5,293.5C 465.06,303.941 483.393,314.608 501.5,325.5C 501.427,327.027 502.094,328.027 503.5,328.5C 504.167,338.995 504.5,349.661 504.5,360.5C 504.646,371.926 504.146,383.26 503,394.5C 482.027,407.071 460.527,418.737 438.5,429.5C 434.827,428.33 431.493,426.663 428.5,424.5C 428.027,423.094 427.027,422.427 425.5,422.5C 422.515,421.674 419.849,420.341 417.5,418.5C 417.027,417.094 416.027,416.427 414.5,416.5C 410.849,415.341 407.515,413.674 404.5,411.5C 404.027,410.094 403.027,409.427 401.5,409.5C 399.181,409.008 397.181,408.008 395.5,406.5C 395.027,405.094 394.027,404.427 392.5,404.5C 389.847,403.324 387.181,402.491 384.5,402C 363.97,416.029 343.303,429.863 322.5,443.5C 321.958,454.915 321.125,466.248 320,477.5C 299.69,488.734 279.523,500.068 259.5,511.5C 256.833,511.5 254.167,511.5 251.5,511.5C 250.833,510.833 250.167,510.167 249.5,509.5C 249.027,508.094 248.027,507.427 246.5,507.5C 243.515,506.674 240.849,505.341 238.5,503.5C 238.027,502.094 237.027,501.427 235.5,501.5C 232.515,500.674 229.849,499.341 227.5,497.5C 227.027,496.094 226.027,495.427 224.5,495.5C 221.515,494.674 218.849,493.341 216.5,491.5C 216.027,490.094 215.027,489.427 213.5,489.5C 210.515,488.674 207.849,487.341 205.5,485.5C 205.027,484.094 204.027,483.427 202.5,483.5C 199.515,482.674 196.849,481.341 194.5,479.5C 194.027,478.094 193.027,477.427 191.5,477.5C 190.778,477.082 190.278,476.416 190,475.5C 189.811,464.424 189.311,453.424 188.5,442.5C 188.027,441.094 187.027,440.427 185.5,440.5C 185.027,439.094 184.027,438.427 182.5,438.5C 182.027,437.094 181.027,436.427 179.5,436.5C 179.027,435.094 178.027,434.427 176.5,434.5C 176.027,433.094 175.027,432.427 173.5,432.5C 173.027,431.094 172.027,430.427 170.5,430.5C 169.508,430.672 168.842,430.338 168.5,429.5C 168.027,428.094 167.027,427.427 165.5,427.5C 164.738,425.738 163.404,424.738 161.5,424.5C 149.218,417.354 137.218,409.687 125.5,401.5C 107.96,411.103 90.2934,420.436 72.5,429.5C 51.2144,418.857 30.2144,407.691 9.5,396C 8.29857,395.097 7.46524,393.931 7,392.5C 6.33333,371.167 6.33333,349.833 7,328.5C 7.46524,327.069 8.29857,325.903 9.5,325C 27.8333,314.5 46.1667,304 64.5,293.5C 65.8333,266.833 65.8333,240.167 64.5,213.5C 47.5,204.333 30.5,195.167 13.5,186C 10.8293,184.75 8.66261,182.917 7,180.5C 6.02225,158.411 6.35558,136.411 8,114.5C 28.9614,101.268 50.4614,88.9347 72.5,77.5C 93.5291,88.3656 114.196,99.8656 134.5,112C 135.667,113.167 136.833,114.333 138,115.5C 138.171,120.864 138.671,126.198 139.5,131.5C 156.084,121.292 172.584,110.958 189,100.5C 189.022,79.078 189.689,57.7446 191,36.5C 209.751,25.2074 228.584,14.0407 247.5,3C 252.833,-0.333333 258.167,-0.333333 263.5,3C 282.594,13.7684 301.428,24.935 320,36.5C 321.311,57.7446 321.978,79.078 322,100.5C 338.341,110.696 354.508,121.03 370.5,131.5 Z M 254.5,16.5 C 269.274,24.3888 283.94,32.5555 298.5,41C 284.268,48.741 269.935,56.241 255.5,63.5C 241.065,56.241 226.732,48.741 212.5,41C 226.727,33.0591 240.727,24.8924 254.5,16.5 Z M 204.5,54.5 C 219.051,61.7071 233.384,69.3738 247.5,77.5C 248.833,91.1667 248.833,104.833 247.5,118.5C 233.5,110.833 219.5,103.167 205.5,95.5C 204.501,81.8496 204.167,68.1829 204.5,54.5 Z M 305.5,54.5 C 306.496,67.9898 306.829,81.6565 306.5,95.5C 292.062,102.887 277.728,110.554 263.5,118.5C 262.167,104.833 262.167,91.1667 263.5,77.5C 277.517,69.805 291.517,62.1384 305.5,54.5 Z M 71.5,94.5 C 85.7664,101.634 99.7664,109.301 113.5,117.5C 114.521,118.002 114.688,118.668 114,119.5C 100.209,126.978 86.3758,134.311 72.5,141.5C 58.3778,134.272 44.3778,126.772 30.5,119C 44.23,110.807 57.8967,102.641 71.5,94.5 Z M 445.5,97.5 C 445.973,98.9063 446.973,99.573 448.5,99.5C 449.514,100.674 450.847,101.34 452.5,101.5C 452.973,102.906 453.973,103.573 455.5,103.5C 456.514,104.674 457.847,105.34 459.5,105.5C 459.973,106.906 460.973,107.573 462.5,107.5C 465.24,109.56 468.24,111.226 471.5,112.5C 471.973,113.906 472.973,114.573 474.5,114.5C 475.514,115.674 476.847,116.34 478.5,116.5C 479.167,117.5 479.833,118.5 480.5,119.5C 478.973,119.427 477.973,120.094 477.5,121.5C 474.515,122.326 471.849,123.659 469.5,125.5C 467.973,125.427 466.973,126.094 466.5,127.5C 463.515,128.326 460.849,129.659 458.5,131.5C 456.973,131.427 455.973,132.094 455.5,133.5C 453.181,133.992 451.181,134.992 449.5,136.5C 447.973,136.427 446.973,137.094 446.5,138.5C 443.348,140.254 440.015,141.087 436.5,141C 423.299,133.566 409.966,126.4 396.5,119.5C 396.5,118.833 396.5,118.167 396.5,117.5C 410.466,109.89 424.466,102.223 438.5,94.5C 440.739,95.7878 443.072,96.7878 445.5,97.5 Z M 201.5,110.5 C 217.111,118.938 232.611,127.605 248,136.5C 248.833,153.843 248.666,171.176 247.5,188.5C 230.796,197.85 214.129,207.183 197.5,216.5C 177.866,204.681 158.533,192.347 139.5,179.5C 138.167,169.5 138.167,159.5 139.5,149.5C 160.231,136.475 180.898,123.475 201.5,110.5 Z M 364.5,144.5 C 364.973,145.906 365.973,146.573 367.5,146.5C 368.765,147.479 370.099,148.479 371.5,149.5C 372.833,159.5 372.833,169.5 371.5,179.5C 352.968,191.863 334.302,204.03 315.5,216C 314.167,216.667 312.833,216.667 311.5,216C 295.663,206.58 279.663,197.414 263.5,188.5C 262.334,171.176 262.167,153.843 263,136.5C 278.333,127.833 293.667,119.167 309,110.5C 327.472,121.981 345.972,133.314 364.5,144.5 Z M 21.5,131.5 C 36.0532,139.361 50.5532,147.361 65,155.5C 65.6667,169.167 65.6667,182.833 65,196.5C 50.7535,188.96 36.5869,181.294 22.5,173.5C 21.5008,159.516 21.1674,145.516 21.5,131.5 Z M 488.5,131.5 C 489.496,145.323 489.829,159.323 489.5,173.5C 486.515,174.326 483.849,175.659 481.5,177.5C 479.973,177.427 478.973,178.094 478.5,179.5C 475.515,180.326 472.849,181.659 470.5,183.5C 468.973,183.427 467.973,184.094 467.5,185.5C 464.515,186.326 461.849,187.659 459.5,189.5C 457.973,189.427 456.973,190.094 456.5,191.5C 453.515,192.326 450.849,193.659 448.5,195.5C 447.504,195.414 446.671,195.748 446,196.5C 445.186,182.425 445.352,168.425 446.5,154.5C 460.828,147.338 474.828,139.671 488.5,131.5 Z M 121.5,132.5 C 122.83,138.966 123.497,145.799 123.5,153C 123.167,159.833 122.833,166.667 122.5,173.5C 108.586,181.04 94.7528,188.706 81,196.5C 80.1672,182.488 80.3339,168.488 81.5,154.5C 95.1261,147.503 108.459,140.17 121.5,132.5 Z M 389.5,132.5 C 391.849,134.341 394.515,135.674 397.5,136.5C 397.973,137.906 398.973,138.573 400.5,138.5C 402.849,140.341 405.515,141.674 408.5,142.5C 408.973,143.906 409.973,144.573 411.5,144.5C 413.849,146.341 416.515,147.674 419.5,148.5C 419.973,149.906 420.973,150.573 422.5,150.5C 424.608,152.059 426.941,153.392 429.5,154.5C 430.666,168.488 430.833,182.488 430,196.5C 416.019,188.427 401.852,180.76 387.5,173.5C 386.851,159.459 387.518,145.792 389.5,132.5 Z M 189.5,229.5 C 189.667,246.503 189.5,263.503 189,280.5C 188.283,281.044 187.783,281.711 187.5,282.5C 168.287,295.362 149.121,308.362 130,321.5C 113.606,312.72 97.4391,303.553 81.5,294C 80.3388,267.239 80.1721,240.405 81,213.5C 96,205.167 111,196.833 126,188.5C 146.798,202.811 167.965,216.477 189.5,229.5 Z M 409.5,201.5 C 409.973,202.906 410.973,203.573 412.5,203.5C 414.849,205.341 417.515,206.674 420.5,207.5C 420.973,208.906 421.973,209.573 423.5,209.5C 425.181,211.008 427.181,212.008 429.5,212.5C 430.833,239.833 430.833,267.167 429.5,294.5C 427.973,294.427 426.973,295.094 426.5,296.5C 424.847,296.66 423.514,297.326 422.5,298.5C 420.973,298.427 419.973,299.094 419.5,300.5C 417.847,300.66 416.514,301.326 415.5,302.5C 413.973,302.427 412.973,303.094 412.5,304.5C 410.847,304.66 409.514,305.326 408.5,306.5C 406.973,306.427 405.973,307.094 405.5,308.5C 403.847,308.66 402.514,309.326 401.5,310.5C 399.973,310.427 398.973,311.094 398.5,312.5C 396.847,312.66 395.514,313.326 394.5,314.5C 392.973,314.427 391.973,315.094 391.5,316.5C 389.847,316.66 388.514,317.326 387.5,318.5C 385.973,318.427 384.973,319.094 384.5,320.5C 382.073,321.974 379.74,321.807 377.5,320C 359,306.833 340.5,293.667 322,280.5C 321.167,263.49 321.334,246.49 322.5,229.5C 343.59,216.206 364.423,202.54 385,188.5C 392.983,193.241 401.149,197.574 409.5,201.5 Z M 254.5,201.5 C 269.274,209.389 283.94,217.556 298.5,226C 284.253,233.706 270.086,241.54 256,249.5C 241.5,241.667 227,233.833 212.5,226C 226.727,218.059 240.727,209.892 254.5,201.5 Z M 206.5,239.5 C 219.943,247.392 233.609,255.059 247.5,262.5C 248.833,276.167 248.833,289.833 247.5,303.5C 233.272,295.554 218.938,287.887 204.5,280.5C 203.851,266.459 204.518,252.792 206.5,239.5 Z M 305.5,239.5 C 306.496,252.99 306.829,266.656 306.5,280.5C 292.062,287.887 277.728,295.554 263.5,303.5C 262.167,289.833 262.167,276.167 263.5,262.5C 277.527,254.821 291.527,247.154 305.5,239.5 Z M 209.5,398.5 C 207.973,398.427 206.973,399.094 206.5,400.5C 204.847,400.66 203.514,401.326 202.5,402.5C 200.973,402.427 199.973,403.094 199.5,404.5C 197.847,404.66 196.514,405.326 195.5,406.5C 193.973,406.427 192.973,407.094 192.5,408.5C 191.094,408.973 190.427,409.973 190.5,411.5C 189.674,415.982 189.174,420.649 189,425.5C 188.617,424.944 188.117,424.611 187.5,424.5C 171.795,413.474 155.795,402.808 139.5,392.5C 138.513,373.243 138.18,353.909 138.5,334.5C 158.407,321.274 178.073,307.607 197.5,293.5C 214.575,302.453 231.408,311.786 248,321.5C 248.833,339.842 248.666,358.176 247.5,376.5C 234.535,383.497 221.869,390.831 209.5,398.5 Z M 355.5,322.5 C 355.973,323.906 356.973,324.573 358.5,324.5C 359.262,326.262 360.596,327.262 362.5,327.5C 362.973,328.906 363.973,329.573 365.5,329.5C 365.973,330.906 366.973,331.573 368.5,331.5C 369.262,333.262 370.596,334.262 372.5,334.5C 372.667,353.503 372.5,372.503 372,391.5C 370.955,392.373 370.122,393.373 369.5,394.5C 368.508,394.328 367.842,394.662 367.5,395.5C 365.973,395.427 364.973,396.094 364.5,397.5C 362.973,397.427 361.973,398.094 361.5,399.5C 359.973,399.427 358.973,400.094 358.5,401.5C 356.973,401.427 355.973,402.094 355.5,403.5C 353.973,403.427 352.973,404.094 352.5,405.5C 350.973,405.427 349.973,406.094 349.5,407.5C 347.973,407.427 346.973,408.094 346.5,409.5C 344.973,409.427 343.973,410.094 343.5,411.5C 341.973,411.427 340.973,412.094 340.5,413.5C 338.973,413.427 337.973,414.094 337.5,415.5C 335.973,415.427 334.973,416.094 334.5,417.5C 332.973,417.427 331.973,418.094 331.5,419.5C 329.973,419.427 328.973,420.094 328.5,421.5C 326.973,421.427 325.973,422.094 325.5,423.5C 323.973,423.427 322.973,424.094 322.5,425.5C 321.833,420.833 321.167,416.167 320.5,411.5C 320.141,409.629 319.141,408.129 317.5,407C 312.271,403.887 306.938,401.053 301.5,398.5C 300.71,397.599 299.71,396.932 298.5,396.5C 294.966,394.234 291.3,392.234 287.5,390.5C 286.71,389.599 285.71,388.932 284.5,388.5C 283.395,387.4 282.062,386.733 280.5,386.5C 279.71,385.599 278.71,384.932 277.5,384.5C 272.861,381.845 268.194,379.179 263.5,376.5C 262.175,357.935 262.175,339.435 263.5,321C 280.04,311.633 296.706,302.466 313.5,293.5C 327.536,303.217 341.536,312.884 355.5,322.5 Z M 71.5,306.5 C 86.2735,314.389 100.94,322.556 115.5,331C 101.167,338.833 86.8333,346.667 72.5,354.5C 58.1667,346.667 43.8333,338.833 29.5,331C 43.727,323.059 57.727,314.892 71.5,306.5 Z M 441.5,307.5 C 441.973,308.906 442.973,309.573 444.5,309.5C 445.514,310.674 446.847,311.34 448.5,311.5C 448.973,312.906 449.973,313.573 451.5,313.5C 452.514,314.674 453.847,315.34 455.5,315.5C 455.973,316.906 456.973,317.573 458.5,317.5C 458.842,318.338 459.508,318.672 460.5,318.5C 460.973,319.906 461.973,320.573 463.5,320.5C 464.514,321.674 465.847,322.34 467.5,322.5C 467.973,323.906 468.973,324.573 470.5,324.5C 471.514,325.674 472.847,326.34 474.5,326.5C 474.973,327.906 475.973,328.573 477.5,328.5C 478.6,329.558 479.934,330.392 481.5,331C 479.934,331.608 478.6,332.442 477.5,333.5C 475.973,333.427 474.973,334.094 474.5,335.5C 471.515,336.326 468.849,337.659 466.5,339.5C 464.973,339.427 463.973,340.094 463.5,341.5C 460.515,342.326 457.849,343.659 455.5,345.5C 453.973,345.427 452.973,346.094 452.5,347.5C 449.515,348.326 446.849,349.659 444.5,351.5C 442.973,351.427 441.973,352.094 441.5,353.5C 440.417,353.539 439.417,353.873 438.5,354.5C 424.167,346.667 409.833,338.833 395.5,331C 409.833,322.833 424.167,314.667 438.5,306.5C 439.417,307.127 440.417,307.461 441.5,307.5 Z M 23.5,344.5 C 36.9426,352.392 50.6093,360.059 64.5,367.5C 65.8333,381.167 65.8333,394.833 64.5,408.5C 50.2717,400.554 35.9383,392.887 21.5,385.5C 20.8514,371.459 21.5181,357.792 23.5,344.5 Z M 122.5,344.5 C 123.496,357.99 123.829,371.656 123.5,385.5C 109.172,392.662 95.1716,400.329 81.5,408.5C 80.5043,395.01 80.171,381.344 80.5,367.5C 94.5,359.833 108.5,352.167 122.5,344.5 Z M 389.5,344.5 C 389.842,345.338 390.508,345.672 391.5,345.5C 391.973,346.906 392.973,347.573 394.5,347.5C 396.849,349.341 399.515,350.674 402.5,351.5C 402.973,352.906 403.973,353.573 405.5,353.5C 407.849,355.341 410.515,356.674 413.5,357.5C 413.973,358.906 414.973,359.573 416.5,359.5C 418.849,361.341 421.515,362.674 424.5,363.5C 424.973,364.906 425.973,365.573 427.5,365.5C 427.842,366.338 428.508,366.672 429.5,366.5C 430.822,380.598 430.822,394.598 429.5,408.5C 415.828,400.329 401.828,392.662 387.5,385.5C 386.851,371.459 387.518,357.792 389.5,344.5 Z M 487.5,344.5 C 489.482,357.792 490.149,371.459 489.5,385.5C 488.508,385.328 487.842,385.662 487.5,386.5C 485.973,386.427 484.973,387.094 484.5,388.5C 481.515,389.326 478.849,390.659 476.5,392.5C 474.973,392.427 473.973,393.094 473.5,394.5C 470.515,395.326 467.849,396.659 465.5,398.5C 463.973,398.427 462.973,399.094 462.5,400.5C 459.515,401.326 456.849,402.659 454.5,404.5C 452.973,404.427 451.973,405.094 451.5,406.5C 449.847,406.66 448.514,407.326 447.5,408.5C 445.518,395.208 444.851,381.541 445.5,367.5C 459.828,360.338 473.828,352.671 487.5,344.5 Z M 260.5,391.5 C 260.973,392.906 261.973,393.573 263.5,393.5C 264.514,394.674 265.847,395.34 267.5,395.5C 267.973,396.906 268.973,397.573 270.5,397.5C 271.514,398.674 272.847,399.34 274.5,399.5C 274.973,400.906 275.973,401.573 277.5,401.5C 278.514,402.674 279.847,403.34 281.5,403.5C 281.973,404.906 282.973,405.573 284.5,405.5C 285.514,406.674 286.847,407.34 288.5,407.5C 288.973,408.906 289.973,409.573 291.5,409.5C 292.514,410.674 293.847,411.34 295.5,411.5C 295.973,412.906 296.973,413.573 298.5,413.5C 296.5,414.833 294.5,416.167 292.5,417.5C 290.973,417.427 289.973,418.094 289.5,419.5C 286.515,420.326 283.849,421.659 281.5,423.5C 279.973,423.427 278.973,424.094 278.5,425.5C 275.515,426.326 272.849,427.659 270.5,429.5C 268.973,429.427 267.973,430.094 267.5,431.5C 264.515,432.326 261.849,433.659 259.5,435.5C 257.973,435.427 256.973,436.094 256.5,437.5C 241.728,429.946 227.062,422.113 212.5,414C 226.833,405.833 241.167,397.667 255.5,389.5C 257.075,390.456 258.742,391.123 260.5,391.5 Z M 206.5,427.5 C 208.181,429.008 210.181,430.008 212.5,430.5C 212.973,431.906 213.973,432.573 215.5,432.5C 217.849,434.341 220.515,435.674 223.5,436.5C 223.973,437.906 224.973,438.573 226.5,438.5C 228.849,440.341 231.515,441.674 234.5,442.5C 234.973,443.906 235.973,444.573 237.5,444.5C 239.849,446.341 242.515,447.674 245.5,448.5C 245.973,449.906 246.973,450.573 248.5,450.5C 248.833,464.183 248.499,477.85 247.5,491.5C 233.272,483.554 218.938,475.887 204.5,468.5C 203.851,454.459 204.518,440.792 206.5,427.5 Z M 304.5,427.5 C 306.482,440.792 307.149,454.459 306.5,468.5C 304.847,468.66 303.514,469.326 302.5,470.5C 300.973,470.427 299.973,471.094 299.5,472.5C 296.515,473.326 293.849,474.659 291.5,476.5C 289.973,476.427 288.973,477.094 288.5,478.5C 285.515,479.326 282.849,480.659 280.5,482.5C 278.973,482.427 277.973,483.094 277.5,484.5C 274.515,485.326 271.849,486.659 269.5,488.5C 267.973,488.427 266.973,489.094 266.5,490.5C 265.417,490.539 264.417,490.873 263.5,491.5C 262.167,477.833 262.167,464.167 263.5,450.5C 277.391,443.059 291.057,435.392 304.5,427.5 Z"/></g>
<g><path style="opacity:0.879" fill="#d9d9d9" d="M 305.5,54.5 C 305.56,53.9569 305.893,53.6236 306.5,53.5C 307.826,67.661 307.826,81.661 306.5,95.5C 306.829,81.6565 306.496,67.9898 305.5,54.5 Z"/></g>
<g><path style="opacity:0.984" fill="#b8b8b8" d="M 432.5,80.5 C 432.027,81.9063 431.027,82.573 429.5,82.5C 429.973,81.0937 430.973,80.427 432.5,80.5 Z"/></g>
<g><path style="opacity:0.984" fill="#b8b8b8" d="M 425.5,84.5 C 425.027,85.9063 424.027,86.573 422.5,86.5C 422.973,85.0937 423.973,84.427 425.5,84.5 Z"/></g>
<g><path style="opacity:0.98" fill="#b7b7b7" d="M 418.5,88.5 C 418.027,89.9063 417.027,90.573 415.5,90.5C 415.973,89.0937 416.973,88.427 418.5,88.5 Z"/></g>
<g><path style="opacity:1" fill="#bbbbbb" d="M 462.5,90.5 C 463.71,90.9321 464.71,91.5987 465.5,92.5C 463.821,92.7148 462.821,92.0481 462.5,90.5 Z"/></g>
<g><path style="opacity:0.98" fill="#b7b7b7" d="M 411.5,92.5 C 411.027,93.9063 410.027,94.573 408.5,94.5C 408.973,93.0937 409.973,92.427 411.5,92.5 Z"/></g>
<g><path style="opacity:0.98" fill="#b6b6b6" d="M 404.5,96.5 C 404.027,97.9063 403.027,98.573 401.5,98.5C 401.973,97.0937 402.973,96.427 404.5,96.5 Z"/></g>
<g><path style="opacity:0.682" fill="#a5a5a5" d="M 445.5,97.5 C 447.027,97.427 448.027,98.0937 448.5,99.5C 446.973,99.573 445.973,98.9063 445.5,97.5 Z"/></g>
<g><path style="opacity:0.973" fill="#b4b4b4" d="M 397.5,100.5 C 397.027,101.906 396.027,102.573 394.5,102.5C 394.973,101.094 395.973,100.427 397.5,100.5 Z"/></g>
<g><path style="opacity:0.682" fill="#a6a6a6" d="M 452.5,101.5 C 454.027,101.427 455.027,102.094 455.5,103.5C 453.973,103.573 452.973,102.906 452.5,101.5 Z"/></g>
<g><path style="opacity:0.973" fill="#b3b3b3" d="M 390.5,104.5 C 390.027,105.906 389.027,106.573 387.5,106.5C 387.973,105.094 388.973,104.427 390.5,104.5 Z"/></g>
<g><path style="opacity:0.682" fill="#a6a6a6" d="M 459.5,105.5 C 461.027,105.427 462.027,106.094 462.5,107.5C 460.973,107.573 459.973,106.906 459.5,105.5 Z"/></g>
<g><path style="opacity:0.976" fill="#b4b4b4" d="M 383.5,108.5 C 383.027,109.906 382.027,110.573 380.5,110.5C 380.973,109.094 381.973,108.427 383.5,108.5 Z"/></g>
<g><path style="opacity:0.565" fill="#9e9e9e" d="M 471.5,112.5 C 473.027,112.427 474.027,113.094 474.5,114.5C 472.973,114.573 471.973,113.906 471.5,112.5 Z"/></g>
<g><path style="opacity:0.576" fill="#9b9b9b" d="M 478.5,116.5 C 480.196,116.685 481.529,117.519 482.5,119C 481.906,119.464 481.239,119.631 480.5,119.5C 479.833,118.5 479.167,117.5 478.5,116.5 Z"/></g>
<g><path style="opacity:0.008" fill="#8a8a8a" d="M 396.5,117.5 C 396.5,118.167 396.5,118.833 396.5,119.5C 394.067,119.214 394.067,118.548 396.5,117.5 Z"/></g>
<g><path style="opacity:0.949" fill="#acacac" d="M 480.5,119.5 C 480.027,120.906 479.027,121.573 477.5,121.5C 477.973,120.094 478.973,119.427 480.5,119.5 Z"/></g>
<g><path style="opacity:0.841" fill="#c0c0c0" d="M 373.5,115.5 C 373.829,121.537 373.496,127.537 372.5,133.5C 371.478,133.145 370.811,132.478 370.5,131.5C 372.144,126.41 373.144,121.077 373.5,115.5 Z"/></g>
<g><path style="opacity:0.945" fill="#ababab" d="M 469.5,125.5 C 469.027,126.906 468.027,127.573 466.5,127.5C 466.973,126.094 467.973,125.427 469.5,125.5 Z"/></g>
<g><path style="opacity:0.651" fill="#a0a0a0" d="M 389.5,132.5 C 387.518,145.792 386.851,159.459 387.5,173.5C 386.339,159.339 386.173,145.006 387,130.5C 387.995,131.066 388.828,131.733 389.5,132.5 Z"/></g>
<g><path style="opacity:0.839" fill="#b6b6b6" d="M 488.5,131.5 C 488.56,130.957 488.893,130.624 489.5,130.5C 490.826,144.994 490.826,159.328 489.5,173.5C 489.829,159.323 489.496,145.323 488.5,131.5 Z"/></g>
<g><path style="opacity:0.957" fill="#adadad" d="M 458.5,131.5 C 458.027,132.906 457.027,133.573 455.5,133.5C 455.973,132.094 456.973,131.427 458.5,131.5 Z"/></g>
<g><path style="opacity:0.557" fill="#9e9e9e" d="M 397.5,136.5 C 399.027,136.427 400.027,137.094 400.5,138.5C 398.973,138.573 397.973,137.906 397.5,136.5 Z"/></g>
<g><path style="opacity:0.98" fill="#b5b5b5" d="M 449.5,136.5 C 449.027,137.906 448.027,138.573 446.5,138.5C 446.973,137.094 447.973,136.427 449.5,136.5 Z"/></g>
<g><path style="opacity:0.557" fill="#9f9f9f" d="M 408.5,142.5 C 410.027,142.427 411.027,143.094 411.5,144.5C 409.973,144.573 408.973,143.906 408.5,142.5 Z"/></g>
<g><path style="opacity:0.682" fill="#a5a5a5" d="M 364.5,144.5 C 366.027,144.427 367.027,145.094 367.5,146.5C 365.973,146.573 364.973,145.906 364.5,144.5 Z"/></g>
<g><path style="opacity:0.588" fill="#a0a0a0" d="M 419.5,148.5 C 421.027,148.427 422.027,149.094 422.5,150.5C 420.973,150.573 419.973,149.906 419.5,148.5 Z"/></g>
<g><path style="opacity:0.988" fill="#e1e1e1" d="M 446.5,154.5 C 445.352,168.425 445.186,182.425 446,196.5C 446.671,195.748 447.504,195.414 448.5,195.5C 447.713,197.104 446.38,197.771 444.5,197.5C 443.85,182.794 444.517,168.461 446.5,154.5 Z"/></g>
<g><path style="opacity:0.973" fill="#b3b3b3" d="M 481.5,177.5 C 481.027,178.906 480.027,179.573 478.5,179.5C 478.973,178.094 479.973,177.427 481.5,177.5 Z"/></g>
<g><path style="opacity:0.024" fill="#989898" d="M 502.5,181.5 C 502.5,182.833 501.833,183.5 500.5,183.5C 500.833,182.5 501.5,181.833 502.5,181.5 Z"/></g>
<g><path style="opacity:0.969" fill="#b1b1b1" d="M 470.5,183.5 C 470.027,184.906 469.027,185.573 467.5,185.5C 467.973,184.094 468.973,183.427 470.5,183.5 Z"/></g>
<g><path style="opacity:0.969" fill="#b0b0b0" d="M 459.5,189.5 C 459.027,190.906 458.027,191.573 456.5,191.5C 456.973,190.094 457.973,189.427 459.5,189.5 Z"/></g>
<g><path style="opacity:0.6" fill="#a2a2a2" d="M 409.5,201.5 C 411.027,201.427 412.027,202.094 412.5,203.5C 410.973,203.573 409.973,202.906 409.5,201.5 Z"/></g>
<g><path style="opacity:0.639" fill="#a3a3a3" d="M 420.5,207.5 C 422.027,207.427 423.027,208.094 423.5,209.5C 421.973,209.573 420.973,208.906 420.5,207.5 Z"/></g>
<g><path style="opacity:0.18" fill="#868686" d="M 429.5,212.5 C 430.833,225.817 431.499,239.483 431.5,253.5C 431.499,267.517 430.833,281.183 429.5,294.5C 430.833,267.167 430.833,239.833 429.5,212.5 Z"/></g>
<g><path style="opacity:0.878" fill="#dbdbdb" d="M 189.5,229.5 C 190.662,246.662 190.829,263.995 190,281.5C 189.329,282.252 188.496,282.586 187.5,282.5C 187.783,281.711 188.283,281.044 189,280.5C 189.5,263.503 189.667,246.503 189.5,229.5 Z"/></g>
<g><path style="opacity:0.879" fill="#d9d9d9" d="M 206.5,239.5 C 204.518,252.792 203.851,266.459 204.5,280.5C 203.504,266.677 203.171,252.677 203.5,238.5C 204.791,238.263 205.791,238.596 206.5,239.5 Z"/></g>
<g><path style="opacity:0.879" fill="#d9d9d9" d="M 305.5,239.5 C 305.56,238.957 305.893,238.624 306.5,238.5C 307.826,252.661 307.826,266.661 306.5,280.5C 306.829,266.656 306.496,252.99 305.5,239.5 Z"/></g>
<g><path style="opacity:0.98" fill="#b7b7b7" d="M 429.5,294.5 C 429.027,295.906 428.027,296.573 426.5,296.5C 426.973,295.094 427.973,294.427 429.5,294.5 Z"/></g>
<g><path style="opacity:0.98" fill="#b6b6b6" d="M 422.5,298.5 C 422.027,299.906 421.027,300.573 419.5,300.5C 419.973,299.094 420.973,298.427 422.5,298.5 Z"/></g>
<g><path style="opacity:0.973" fill="#b3b3b3" d="M 415.5,302.5 C 415.027,303.906 414.027,304.573 412.5,304.5C 412.973,303.094 413.973,302.427 415.5,302.5 Z"/></g>
<g><path style="opacity:0.973" fill="#b2b2b2" d="M 408.5,306.5 C 408.027,307.906 407.027,308.573 405.5,308.5C 405.973,307.094 406.973,306.427 408.5,306.5 Z"/></g>
<g><path style="opacity:0.682" fill="#a7a7a7" d="M 441.5,307.5 C 443.027,307.427 444.027,308.094 444.5,309.5C 442.973,309.573 441.973,308.906 441.5,307.5 Z"/></g>
<g><path style="opacity:0.969" fill="#b2b2b2" d="M 401.5,310.5 C 401.027,311.906 400.027,312.573 398.5,312.5C 398.973,311.094 399.973,310.427 401.5,310.5 Z"/></g>
<g><path style="opacity:0.714" fill="#a8a8a8" d="M 448.5,311.5 C 450.027,311.427 451.027,312.094 451.5,313.5C 449.973,313.573 448.973,312.906 448.5,311.5 Z"/></g>
<g><path style="opacity:0.969" fill="#b2b2b2" d="M 394.5,314.5 C 394.027,315.906 393.027,316.573 391.5,316.5C 391.973,315.094 392.973,314.427 394.5,314.5 Z"/></g>
<g><path style="opacity:0.714" fill="#a9a9a9" d="M 455.5,315.5 C 457.027,315.427 458.027,316.094 458.5,317.5C 456.973,317.573 455.973,316.906 455.5,315.5 Z"/></g>
<g><path style="opacity:0.969" fill="#b0b0b0" d="M 387.5,318.5 C 387.027,319.906 386.027,320.573 384.5,320.5C 384.973,319.094 385.973,318.427 387.5,318.5 Z"/></g>
<g><path style="opacity:0.557" fill="#9d9d9d" d="M 460.5,318.5 C 462.027,318.427 463.027,319.094 463.5,320.5C 461.973,320.573 460.973,319.906 460.5,318.5 Z"/></g>
<g><path style="opacity:0.816" fill="#adadad" d="M 355.5,322.5 C 357.027,322.427 358.027,323.094 358.5,324.5C 356.973,324.573 355.973,323.906 355.5,322.5 Z"/></g>
<g><path style="opacity:0.557" fill="#9e9e9e" d="M 467.5,322.5 C 469.027,322.427 470.027,323.094 470.5,324.5C 468.973,324.573 467.973,323.906 467.5,322.5 Z"/></g>
<g><path style="opacity:0.914" fill="#b0b0b0" d="M 358.5,324.5 C 360.404,324.738 361.738,325.738 362.5,327.5C 360.596,327.262 359.262,326.262 358.5,324.5 Z"/></g>
<g><path style="opacity:0.612" fill="#a0a0a0" d="M 474.5,326.5 C 476.027,326.427 477.027,327.094 477.5,328.5C 475.973,328.573 474.973,327.906 474.5,326.5 Z"/></g>
<g><path style="opacity:0.824" fill="#adadad" d="M 501.5,325.5 C 502.906,325.973 503.573,326.973 503.5,328.5C 502.094,328.027 501.427,327.027 501.5,325.5 Z"/></g>
<g><path style="opacity:0.776" fill="#a7a7a7" d="M 362.5,327.5 C 364.027,327.427 365.027,328.094 365.5,329.5C 363.973,329.573 362.973,328.906 362.5,327.5 Z"/></g>
<g><path style="opacity:0.871" fill="#b2b2b2" d="M 365.5,329.5 C 367.027,329.427 368.027,330.094 368.5,331.5C 366.973,331.573 365.973,330.906 365.5,329.5 Z"/></g>
<g><path style="opacity:0.922" fill="#b2b2b2" d="M 368.5,331.5 C 370.404,331.738 371.738,332.738 372.5,334.5C 370.596,334.262 369.262,333.262 368.5,331.5 Z"/></g>
<g><path style="opacity:0.937" fill="#e3e3e3" d="M 138.5,334.5 C 138.18,353.909 138.513,373.243 139.5,392.5C 138.168,383.191 137.501,373.524 137.5,363.5C 137.5,353.661 137.834,343.994 138.5,334.5 Z"/></g>
<g><path style="opacity:0.973" fill="#b3b3b3" d="M 477.5,333.5 C 477.027,334.906 476.027,335.573 474.5,335.5C 474.973,334.094 475.973,333.427 477.5,333.5 Z"/></g>
<g><path style="opacity:0.835" fill="#b4b4b4" d="M 372.5,334.5 C 373.662,353.662 373.829,372.996 373,392.5C 372.184,393.823 371.017,394.489 369.5,394.5C 370.122,393.373 370.955,392.373 372,391.5C 372.5,372.503 372.667,353.503 372.5,334.5 Z"/></g>
<g><path style="opacity:0.969" fill="#b0b0b0" d="M 466.5,339.5 C 466.027,340.906 465.027,341.573 463.5,341.5C 463.973,340.094 464.973,339.427 466.5,339.5 Z"/></g>
<g><path style="opacity:0.937" fill="#e3e3e3" d="M 23.5,344.5 C 21.5181,357.792 20.8514,371.459 21.5,385.5C 20.5042,371.677 20.1709,357.677 20.5,343.5C 21.791,343.263 22.791,343.596 23.5,344.5 Z"/></g>
<g><path style="opacity:0.784" fill="#cfcfcf" d="M 122.5,344.5 C 122.56,343.957 122.893,343.624 123.5,343.5C 124.826,357.661 124.826,371.661 123.5,385.5C 123.829,371.656 123.496,357.99 122.5,344.5 Z"/></g>
<g><path style="opacity:0.651" fill="#9f9f9f" d="M 389.5,344.5 C 387.518,357.792 386.851,371.459 387.5,385.5C 386.504,371.677 386.171,357.677 386.5,343.5C 387.791,343.263 388.791,343.596 389.5,344.5 Z"/></g>
<g><path style="opacity:0.839" fill="#b4b4b4" d="M 487.5,344.5 C 488.209,343.596 489.209,343.263 490.5,343.5C 490.829,357.677 490.496,371.677 489.5,385.5C 490.149,371.459 489.482,357.792 487.5,344.5 Z"/></g>
<g><path style="opacity:0.557" fill="#a0a0a0" d="M 391.5,345.5 C 393.027,345.427 394.027,346.094 394.5,347.5C 392.973,347.573 391.973,346.906 391.5,345.5 Z"/></g>
<g><path style="opacity:0.965" fill="#b0b0b0" d="M 455.5,345.5 C 455.027,346.906 454.027,347.573 452.5,347.5C 452.973,346.094 453.973,345.427 455.5,345.5 Z"/></g>
<g><path style="opacity:0.557" fill="#a0a0a0" d="M 402.5,351.5 C 404.027,351.427 405.027,352.094 405.5,353.5C 403.973,353.573 402.973,352.906 402.5,351.5 Z"/></g>
<g><path style="opacity:0.965" fill="#b0b0b0" d="M 444.5,351.5 C 444.027,352.906 443.027,353.573 441.5,353.5C 441.973,352.094 442.973,351.427 444.5,351.5 Z"/></g>
<g><path style="opacity:0.557" fill="#a0a0a0" d="M 413.5,357.5 C 415.027,357.427 416.027,358.094 416.5,359.5C 414.973,359.573 413.973,358.906 413.5,357.5 Z"/></g>
<g><path style="opacity:0.6" fill="#a2a2a2" d="M 424.5,363.5 C 426.027,363.427 427.027,364.094 427.5,365.5C 425.973,365.573 424.973,364.906 424.5,363.5 Z"/></g>
<g><path style="opacity:0.275" fill="#b4b4b4" d="M 80.5,367.5 C 80.171,381.344 80.5043,395.01 81.5,408.5C 81.44,409.043 81.1067,409.376 80.5,409.5C 79.1743,395.339 79.1743,381.339 80.5,367.5 Z"/></g>
<g><path style="opacity:0.181" fill="#868686" d="M 429.5,366.5 C 430.831,373.301 431.497,380.467 431.5,388C 431.167,395.167 430.833,402.333 430.5,409.5C 429.893,409.376 429.56,409.043 429.5,408.5C 430.822,394.598 430.822,380.598 429.5,366.5 Z"/></g>
<g><path style="opacity:0.988" fill="#e4e4e4" d="M 445.5,367.5 C 444.851,381.541 445.518,395.208 447.5,408.5C 446.791,409.404 445.791,409.737 444.5,409.5C 444.171,395.323 444.504,381.323 445.5,367.5 Z"/></g>
<g><path style="opacity:1" fill="#bbbbbb" d="M 277.5,384.5 C 278.71,384.932 279.71,385.599 280.5,386.5C 278.821,386.715 277.821,386.048 277.5,384.5 Z"/></g>
<g><path style="opacity:0.961" fill="#aeaeae" d="M 487.5,386.5 C 487.027,387.906 486.027,388.573 484.5,388.5C 484.973,387.094 485.973,386.427 487.5,386.5 Z"/></g>
<g><path style="opacity:1" fill="#bababa" d="M 284.5,388.5 C 285.71,388.932 286.71,389.599 287.5,390.5C 285.821,390.715 284.821,390.048 284.5,388.5 Z"/></g>
<g><path style="opacity:0.663" fill="#a4a4a4" d="M 260.5,391.5 C 262.027,391.427 263.027,392.094 263.5,393.5C 261.973,393.573 260.973,392.906 260.5,391.5 Z"/></g>
<g><path style="opacity:0.961" fill="#aeaeae" d="M 476.5,392.5 C 476.027,393.906 475.027,394.573 473.5,394.5C 473.973,393.094 474.973,392.427 476.5,392.5 Z"/></g>
<g><path style="opacity:0.639" fill="#a4a4a4" d="M 267.5,395.5 C 269.027,395.427 270.027,396.094 270.5,397.5C 268.973,397.573 267.973,396.906 267.5,395.5 Z"/></g>
<g><path style="opacity:0.91" fill="#a6a6a6" d="M 367.5,395.5 C 367.027,396.906 366.027,397.573 364.5,397.5C 364.973,396.094 365.973,395.427 367.5,395.5 Z"/></g>
<g><path style="opacity:1" fill="#bbbbbb" d="M 298.5,396.5 C 299.71,396.932 300.71,397.599 301.5,398.5C 299.821,398.715 298.821,398.048 298.5,396.5 Z"/></g>
<g><path style="opacity:0.925" fill="#a8a8a8" d="M 364.5,397.5 C 364.027,398.906 363.027,399.573 361.5,399.5C 361.973,398.094 362.973,397.427 364.5,397.5 Z"/></g>
<g><path style="opacity:0.953" fill="#adadad" d="M 209.5,398.5 C 209.027,399.906 208.027,400.573 206.5,400.5C 206.973,399.094 207.973,398.427 209.5,398.5 Z"/></g>
<g><path style="opacity:0.949" fill="#acacac" d="M 465.5,398.5 C 465.027,399.906 464.027,400.573 462.5,400.5C 462.973,399.094 463.973,398.427 465.5,398.5 Z"/></g>
<g><path style="opacity:0.678" fill="#a4a4a4" d="M 274.5,399.5 C 276.027,399.427 277.027,400.094 277.5,401.5C 275.973,401.573 274.973,400.906 274.5,399.5 Z"/></g>
<g><path style="opacity:0.925" fill="#a8a8a8" d="M 361.5,399.5 C 361.027,400.906 360.027,401.573 358.5,401.5C 358.973,400.094 359.973,399.427 361.5,399.5 Z"/></g>
<g><path style="opacity:0.929" fill="#a8a8a8" d="M 358.5,401.5 C 358.027,402.906 357.027,403.573 355.5,403.5C 355.973,402.094 356.973,401.427 358.5,401.5 Z"/></g>
<g><path style="opacity:0.949" fill="#acacac" d="M 202.5,402.5 C 202.027,403.906 201.027,404.573 199.5,404.5C 199.973,403.094 200.973,402.427 202.5,402.5 Z"/></g>
<g><path style="opacity:0.639" fill="#a3a3a3" d="M 281.5,403.5 C 283.027,403.427 284.027,404.094 284.5,405.5C 282.973,405.573 281.973,404.906 281.5,403.5 Z"/></g>
<g><path style="opacity:0.929" fill="#a8a8a8" d="M 355.5,403.5 C 355.027,404.906 354.027,405.573 352.5,405.5C 352.973,404.094 353.973,403.427 355.5,403.5 Z"/></g>
<g><path style="opacity:0.639" fill="#a3a3a3" d="M 392.5,404.5 C 394.027,404.427 395.027,405.094 395.5,406.5C 393.973,406.573 392.973,405.906 392.5,404.5 Z"/></g>
<g><path style="opacity:0.949" fill="#acacac" d="M 454.5,404.5 C 454.027,405.906 453.027,406.573 451.5,406.5C 451.973,405.094 452.973,404.427 454.5,404.5 Z"/></g>
<g><path style="opacity:0.929" fill="#a8a8a8" d="M 352.5,405.5 C 352.027,406.906 351.027,407.573 349.5,407.5C 349.973,406.094 350.973,405.427 352.5,405.5 Z"/></g>
<g><path style="opacity:0.957" fill="#acacac" d="M 195.5,406.5 C 195.027,407.906 194.027,408.573 192.5,408.5C 192.973,407.094 193.973,406.427 195.5,406.5 Z"/></g>
<g><path style="opacity:0.69" fill="#a6a6a6" d="M 288.5,407.5 C 290.027,407.427 291.027,408.094 291.5,409.5C 289.973,409.573 288.973,408.906 288.5,407.5 Z"/></g>
<g><path style="opacity:0.929" fill="#a9a9a9" d="M 349.5,407.5 C 349.027,408.906 348.027,409.573 346.5,409.5C 346.973,408.094 347.973,407.427 349.5,407.5 Z"/></g>
<g><path style="opacity:0.933" fill="#a9a9a9" d="M 346.5,409.5 C 346.027,410.906 345.027,411.573 343.5,411.5C 343.973,410.094 344.973,409.427 346.5,409.5 Z"/></g>
<g><path style="opacity:0.541" fill="#9e9e9e" d="M 401.5,409.5 C 403.027,409.427 404.027,410.094 404.5,411.5C 402.973,411.573 401.973,410.906 401.5,409.5 Z"/></g>
<g><path style="opacity:0.694" fill="#a6a6a6" d="M 295.5,411.5 C 297.027,411.427 298.027,412.094 298.5,413.5C 296.973,413.573 295.973,412.906 295.5,411.5 Z"/></g>
<g><path style="opacity:0.933" fill="#a9a9a9" d="M 343.5,411.5 C 343.027,412.906 342.027,413.573 340.5,413.5C 340.973,412.094 341.973,411.427 343.5,411.5 Z"/></g>
<g><path style="opacity:0.772" fill="#acacac" d="M 190.5,411.5 C 190.5,416.5 190.5,421.5 190.5,426.5C 188.821,426.715 187.821,426.048 187.5,424.5C 188.117,424.611 188.617,424.944 189,425.5C 189.174,420.649 189.674,415.982 190.5,411.5 Z"/></g>
<g><path style="opacity:0.755" fill="#a7a7a7" d="M 320.5,411.5 C 321.167,416.167 321.833,420.833 322.5,425.5C 322.44,426.043 322.107,426.376 321.5,426.5C 320.506,421.544 320.173,416.544 320.5,411.5 Z"/></g>
<g><path style="opacity:0.933" fill="#aaaaaa" d="M 340.5,413.5 C 340.027,414.906 339.027,415.573 337.5,415.5C 337.973,414.094 338.973,413.427 340.5,413.5 Z"/></g>
<g><path style="opacity:0.929" fill="#a9a9a9" d="M 337.5,415.5 C 337.027,416.906 336.027,417.573 334.5,417.5C 334.973,416.094 335.973,415.427 337.5,415.5 Z"/></g>
<g><path style="opacity:0.639" fill="#a4a4a4" d="M 414.5,416.5 C 416.027,416.427 417.027,417.094 417.5,418.5C 415.973,418.573 414.973,417.906 414.5,416.5 Z"/></g>
<g><path style="opacity:0.969" fill="#b1b1b1" d="M 292.5,417.5 C 292.027,418.906 291.027,419.573 289.5,419.5C 289.973,418.094 290.973,417.427 292.5,417.5 Z"/></g>
<g><path style="opacity:0.933" fill="#a9a9a9" d="M 334.5,417.5 C 334.027,418.906 333.027,419.573 331.5,419.5C 331.973,418.094 332.973,417.427 334.5,417.5 Z"/></g>
<g><path style="opacity:0.933" fill="#a9a9a9" d="M 331.5,419.5 C 331.027,420.906 330.027,421.573 328.5,421.5C 328.973,420.094 329.973,419.427 331.5,419.5 Z"/></g>
<g><path style="opacity:0.933" fill="#a9a9a9" d="M 328.5,421.5 C 328.027,422.906 327.027,423.573 325.5,423.5C 325.973,422.094 326.973,421.427 328.5,421.5 Z"/></g>
<g><path style="opacity:0.639" fill="#a4a4a4" d="M 425.5,422.5 C 427.027,422.427 428.027,423.094 428.5,424.5C 426.973,424.573 425.973,423.906 425.5,422.5 Z"/></g>
<g><path style="opacity:0.969" fill="#b1b1b1" d="M 281.5,423.5 C 281.027,424.906 280.027,425.573 278.5,425.5C 278.973,424.094 279.973,423.427 281.5,423.5 Z"/></g>
<g><path style="opacity:0.933" fill="#aaaaaa" d="M 325.5,423.5 C 325.027,424.906 324.027,425.573 322.5,425.5C 322.973,424.094 323.973,423.427 325.5,423.5 Z"/></g>
<g><path style="opacity:0.925" fill="#b2b2b2" d="M 161.5,424.5 C 163.404,424.738 164.738,425.738 165.5,427.5C 163.596,427.262 162.262,426.262 161.5,424.5 Z"/></g>
<g><path style="opacity:0.753" fill="#a9a9a9" d="M 206.5,427.5 C 204.518,440.792 203.851,454.459 204.5,468.5C 203.504,454.677 203.171,440.677 203.5,426.5C 204.791,426.263 205.791,426.596 206.5,427.5 Z"/></g>
<g><path style="opacity:0.753" fill="#a8a8a8" d="M 304.5,427.5 C 305.209,426.596 306.209,426.263 307.5,426.5C 307.829,440.677 307.496,454.677 306.5,468.5C 307.149,454.459 306.482,440.792 304.5,427.5 Z"/></g>
<g><path style="opacity:0.631" fill="#9d9d9d" d="M 165.5,427.5 C 167.027,427.427 168.027,428.094 168.5,429.5C 166.973,429.573 165.973,428.906 165.5,427.5 Z"/></g>
<g><path style="opacity:0.969" fill="#b0b0b0" d="M 270.5,429.5 C 270.027,430.906 269.027,431.573 267.5,431.5C 267.973,430.094 268.973,429.427 270.5,429.5 Z"/></g>
<g><path style="opacity:0.906" fill="#b9b9b9" d="M 170.5,430.5 C 172.027,430.427 173.027,431.094 173.5,432.5C 171.973,432.573 170.973,431.906 170.5,430.5 Z"/></g>
<g><path style="opacity:0.557" fill="#9f9f9f" d="M 212.5,430.5 C 214.027,430.427 215.027,431.094 215.5,432.5C 213.973,432.573 212.973,431.906 212.5,430.5 Z"/></g>
<g><path style="opacity:0.906" fill="#b8b8b8" d="M 173.5,432.5 C 175.027,432.427 176.027,433.094 176.5,434.5C 174.973,434.573 173.973,433.906 173.5,432.5 Z"/></g>
<g><path style="opacity:0.906" fill="#b8b8b8" d="M 176.5,434.5 C 178.027,434.427 179.027,435.094 179.5,436.5C 177.973,436.573 176.973,435.906 176.5,434.5 Z"/></g>
<g><path style="opacity:0.965" fill="#b0b0b0" d="M 259.5,435.5 C 259.027,436.906 258.027,437.573 256.5,437.5C 256.973,436.094 257.973,435.427 259.5,435.5 Z"/></g>
<g><path style="opacity:0.918" fill="#bababa" d="M 179.5,436.5 C 181.027,436.427 182.027,437.094 182.5,438.5C 180.973,438.573 179.973,437.906 179.5,436.5 Z"/></g>
<g><path style="opacity:0.6" fill="#a1a1a1" d="M 223.5,436.5 C 225.027,436.427 226.027,437.094 226.5,438.5C 224.973,438.573 223.973,437.906 223.5,436.5 Z"/></g>
<g><path style="opacity:0.918" fill="#bababa" d="M 182.5,438.5 C 184.027,438.427 185.027,439.094 185.5,440.5C 183.973,440.573 182.973,439.906 182.5,438.5 Z"/></g>
<g><path style="opacity:0.902" fill="#b8b8b8" d="M 185.5,440.5 C 187.027,440.427 188.027,441.094 188.5,442.5C 186.973,442.573 185.973,441.906 185.5,440.5 Z"/></g>
<g><path style="opacity:0.612" fill="#a1a1a1" d="M 234.5,442.5 C 236.027,442.427 237.027,443.094 237.5,444.5C 235.973,444.573 234.973,443.906 234.5,442.5 Z"/></g>
<g><path style="opacity:0.616" fill="#a2a2a2" d="M 245.5,448.5 C 247.027,448.427 248.027,449.094 248.5,450.5C 246.973,450.573 245.973,449.906 245.5,448.5 Z"/></g>
<g><path style="opacity:0.961" fill="#aeaeae" d="M 302.5,470.5 C 302.027,471.906 301.027,472.573 299.5,472.5C 299.973,471.094 300.973,470.427 302.5,470.5 Z"/></g>
<g><path style="opacity:0.961" fill="#aeaeae" d="M 291.5,476.5 C 291.027,477.906 290.027,478.573 288.5,478.5C 288.973,477.094 289.973,476.427 291.5,476.5 Z"/></g>
<g><path style="opacity:0.627" fill="#9d9d9d" d="M 191.5,477.5 C 193.027,477.427 194.027,478.094 194.5,479.5C 192.973,479.573 191.973,478.906 191.5,477.5 Z"/></g>
<g><path style="opacity:0.961" fill="#aeaeae" d="M 280.5,482.5 C 280.027,483.906 279.027,484.573 277.5,484.5C 277.973,483.094 278.973,482.427 280.5,482.5 Z"/></g>
<g><path style="opacity:0.6" fill="#a2a2a2" d="M 202.5,483.5 C 204.027,483.427 205.027,484.094 205.5,485.5C 203.973,485.573 202.973,484.906 202.5,483.5 Z"/></g>
<g><path style="opacity:0.949" fill="#acacac" d="M 269.5,488.5 C 269.027,489.906 268.027,490.573 266.5,490.5C 266.973,489.094 267.973,488.427 269.5,488.5 Z"/></g>
<g><path style="opacity:0.6" fill="#a2a2a2" d="M 213.5,489.5 C 215.027,489.427 216.027,490.094 216.5,491.5C 214.973,491.573 213.973,490.906 213.5,489.5 Z"/></g>
<g><path style="opacity:0.6" fill="#a2a2a2" d="M 224.5,495.5 C 226.027,495.427 227.027,496.094 227.5,497.5C 225.973,497.573 224.973,496.906 224.5,495.5 Z"/></g>
<g><path style="opacity:0.639" fill="#a3a3a3" d="M 235.5,501.5 C 237.027,501.427 238.027,502.094 238.5,503.5C 236.973,503.573 235.973,502.906 235.5,501.5 Z"/></g>
<g><path style="opacity:0.639" fill="#a3a3a3" d="M 246.5,507.5 C 248.027,507.427 249.027,508.094 249.5,509.5C 247.973,509.573 246.973,508.906 246.5,507.5 Z"/></g>
</svg>
