<?xml version="1.0" encoding="UTF-8"?>
<!DOCTYPE svg PUBLIC "-//W3C//DTD SVG 1.1//EN" "http://www.w3.org/Graphics/SVG/1.1/DTD/svg11.dtd">
<svg xmlns="http://www.w3.org/2000/svg" version="1.1" width="512px" height="512px" style="shape-rendering:geometricPrecision; text-rendering:geometricPrecision; image-rendering:optimizeQuality; fill-rule:evenodd; clip-rule:evenodd" xmlns:xlink="http://www.w3.org/1999/xlink">
<g><path style="opacity:1" fill="#fcfcfc" d="M 359.5,22.5 C 359.427,24.0269 360.094,25.0269 361.5,25.5C 362.582,33.1558 363.582,40.8225 364.5,48.5C 372.419,50.4183 379.919,53.4183 387,57.5C 393.218,52.2814 399.718,47.448 406.5,43C 408.833,42.3333 411.167,42.3333 413.5,43C 432.721,62.2208 451.887,81.3874 471,100.5C 471.667,103.167 471.667,105.833 471,108.5C 465.996,114.522 461.496,120.855 457.5,127.5C 460.741,134.644 463.407,141.977 465.5,149.5C 473.856,150.42 482.189,151.586 490.5,153C 492.333,153.5 493.5,154.667 494,156.5C 494.667,184.5 494.667,212.5 494,240.5C 493.065,243.102 491.232,244.602 488.5,245C 481.154,245.907 473.821,246.907 466.5,248C 463.554,255.502 460.221,262.835 456.5,270C 461.699,276.232 466.532,282.732 471,289.5C 471.79,292.634 471.457,295.634 470,298.5C 451.138,317.695 431.972,336.529 412.5,355C 409.697,355.755 407.03,355.422 404.5,354C 398.641,349.308 392.641,344.808 386.5,340.5C 381.204,343.321 375.704,345.654 370,347.5C 362.526,346.23 359.859,341.896 362,334.5C 363.167,333.333 364.333,332.167 365.5,331C 373.1,327.946 380.6,324.78 388,321.5C 390.819,321.993 393.319,323.16 395.5,325C 399.714,328.882 404.214,332.382 409,335.5C 423.529,321.305 437.696,306.805 451.5,292C 448.028,286.894 444.194,282.06 440,277.5C 439.015,275.634 438.515,273.634 438.5,271.5C 443.253,259.648 447.753,247.648 452,235.5C 453.319,233.513 455.152,232.346 457.5,232C 464.17,231.118 470.836,230.285 477.5,229.5C 478.497,209.007 478.831,188.34 478.5,167.5C 477.5,167.5 476.5,167.5 475.5,167.5C 467.721,167.426 460.221,166.093 453,163.5C 448.419,150.758 443.253,138.258 437.5,126C 441.175,118.981 445.675,112.481 451,106.5C 451.667,105.833 451.667,105.167 451,104.5C 436.986,90.3192 422.819,76.3192 408.5,62.5C 403.5,66.3333 398.5,70.1667 393.5,74C 391.634,74.9847 389.634,75.4847 387.5,75.5C 375.408,70.1887 363.074,65.3553 350.5,61C 349.137,59.0551 348.303,56.8884 348,54.5C 347.212,48.1504 346.379,41.8171 345.5,35.5C 325.167,35.5 304.833,35.5 284.5,35.5C 283.668,42.1566 282.835,48.8233 282,55.5C 281.55,57.519 280.717,59.3523 279.5,61C 266.937,65.3523 254.604,70.1856 242.5,75.5C 240.366,75.4847 238.366,74.9847 236.5,74C 231.86,69.682 226.86,65.8487 221.5,62.5C 207.014,76.4859 192.681,90.6526 178.5,105C 181.618,109.786 185.118,114.286 189,118.5C 190.739,120.71 191.906,123.21 192.5,126C 189.471,133.225 186.304,140.392 183,147.5C 176.838,152.134 171.838,151.134 168,144.5C 168.21,138.225 170.043,132.392 173.5,127C 169,121.167 164.5,115.333 160,109.5C 158.578,106.97 158.245,104.303 159,101.5C 177.471,82.0283 196.305,62.8616 215.5,44C 218.366,42.5432 221.366,42.2099 224.5,43C 230.873,47.5131 237.207,52.0131 243.5,56.5C 250.837,53.4989 258.171,50.4989 265.5,47.5C 266.747,39.8642 267.913,32.1975 269,24.5C 269.785,22.714 270.951,21.214 272.5,20C 300.833,19.3333 329.167,19.3333 357.5,20C 358.381,20.7083 359.047,21.5416 359.5,22.5 Z"/></g>
<g><path style="opacity:0.443" fill="#9e9e9e" d="M 359.5,22.5 C 360.906,22.9731 361.573,23.9731 361.5,25.5C 360.094,25.0269 359.427,24.0269 359.5,22.5 Z"/></g>
<g><path style="opacity:1" fill="#fcfcfc" d="M 47.5,48.5 C 69.1928,49.1555 90.5262,48.4888 111.5,46.5C 115.916,35.9444 123.916,30.2777 135.5,29.5C 154.704,32.206 163.204,43.206 161,62.5C 152.937,81.7791 139.437,86.9458 120.5,78C 115.989,74.4995 112.656,70.1662 110.5,65C 93.1699,64.5001 75.8365,64.3334 58.5,64.5C 58.1673,79.5148 58.5007,94.5148 59.5,109.5C 73.279,116.394 78.4457,127.394 75,142.5C 68.599,157.45 57.4323,162.95 41.5,159C 27.0641,152.294 21.5641,141.128 25,125.5C 27.6337,117.7 32.8004,112.366 40.5,109.5C 41.333,90.8423 41.833,72.1756 42,53.5C 42.7516,50.5793 44.5849,48.9126 47.5,48.5 Z M 133.5,46.5 C 143.258,47.3525 146.425,52.3525 143,61.5C 138.041,66.8165 133.041,66.8165 128,61.5C 124.816,54.5506 126.65,49.5506 133.5,46.5 Z M 48.5,124.5 C 57.1471,125.623 60.3137,130.29 58,138.5C 50.0972,145.649 44.2639,144.149 40.5,134C 41.6062,129.403 44.2729,126.236 48.5,124.5 Z"/></g>
<g><path style="opacity:0.804" fill="#dddddd" d="M 111.5,46.5 C 90.5262,48.4888 69.1928,49.1555 47.5,48.5C 68.7355,47.8228 90.0688,47.1561 111.5,46.5 Z"/></g>
<g><path style="opacity:1" fill="#fbfbfb" d="M 303.5,81.5 C 359.903,79.4358 400.07,103.769 424,154.5C 441.99,207.378 430.49,252.544 389.5,290C 379.953,297.276 369.62,303.276 358.5,308C 347.947,309.074 344.447,304.574 348,294.5C 397.052,272.739 419.052,235.073 414,181.5C 406.568,146.141 386.402,120.974 353.5,106C 308.103,90.2241 269.269,100.057 237,135.5C 230.976,143.545 225.976,152.212 222,161.5C 218.229,165.788 213.729,166.621 208.5,164C 207.115,161.848 206.115,159.515 205.5,157C 218.091,124.742 240.425,102.075 272.5,89C 282.736,85.5249 293.07,83.0249 303.5,81.5 Z"/></g>
<g><path style="opacity:0.149" fill="#c3c3c3" d="M 475.5,167.5 C 476.5,167.5 477.5,167.5 478.5,167.5C 478.831,188.34 478.497,209.007 477.5,229.5C 478.137,208.601 477.47,187.934 475.5,167.5 Z"/></g>
<g><path style="opacity:1" fill="#fcfcfc" d="M 38.5,241.5 C 45.5,236.5 51.5,230.5 56.5,223.5C 65.6614,213.505 75.3281,204.005 85.5,195C 88.5,193 91.5,193 94.5,195C 99.4244,198.713 104.258,202.546 109,206.5C 114.068,203.587 119.401,201.254 125,199.5C 125.945,199.095 126.612,198.428 127,197.5C 127.593,191.088 128.593,184.755 130,178.5C 130.5,176.667 131.667,175.5 133.5,175C 157.833,174.333 182.167,174.333 206.5,175C 208.049,176.214 209.215,177.714 210,179.5C 210.893,186.092 212.059,192.592 213.5,199C 219.172,201.17 224.838,203.336 230.5,205.5C 235.614,202.229 240.614,198.729 245.5,195C 248.5,193 251.5,193 254.5,195C 270.667,211.167 286.833,227.333 303,243.5C 303.667,246.5 303.667,249.5 303,252.5C 299.167,257.5 295.333,262.5 291.5,267.5C 294.408,273.309 296.741,279.309 298.5,285.5C 303.859,285.67 309.192,286.17 314.5,287C 317.458,287.229 319.958,288.396 322,290.5C 323.148,302.908 323.648,315.408 323.5,328C 323.648,340.592 323.148,353.092 322,365.5C 321.097,366.701 319.931,367.535 318.5,368C 311.89,369.326 305.224,370.16 298.5,370.5C 296.961,376.779 294.628,382.779 291.5,388.5C 295.578,393.657 299.412,398.99 303,404.5C 303.79,407.634 303.457,410.634 302,413.5C 286.167,429.333 270.333,445.167 254.5,461C 251.5,463 248.5,463 245.5,461C 240.333,457.167 235.167,453.333 230,449.5C 224.506,452.719 218.673,455.053 212.5,456.5C 211.832,463.179 210.998,469.846 210,476.5C 209.167,478.667 207.667,480.167 205.5,481C 181.5,481.667 157.5,481.667 133.5,481C 131.19,479.363 129.69,477.196 129,474.5C 128.333,469.167 127.667,463.833 127,458.5C 126.692,457.692 126.192,457.025 125.5,456.5C 119.812,454.571 114.312,452.238 109,449.5C 104.258,453.454 99.4244,457.287 94.5,461C 91.5,461.667 88.5,461.667 85.5,461C 69.3333,444.833 53.1667,428.667 37,412.5C 35.627,410.305 35.2937,407.971 36,405.5C 38.9338,399.967 42.6004,394.967 47,390.5C 47.6667,389.167 47.6667,387.833 47,386.5C 44.6865,381.376 42.5199,376.209 40.5,371C 34.1667,370 27.8333,369 21.5,368C 19.714,367.215 18.214,366.049 17,364.5C 15.8738,352.22 15.3738,339.887 15.5,327.5C 15.6667,316.5 15.8333,305.5 16,294.5C 16.4709,292.754 17.1376,291.087 18,289.5C 25.2372,286.987 32.7372,285.487 40.5,285C 42.2722,279.688 44.4389,274.521 47,269.5C 47.6667,268.167 47.6667,266.833 47,265.5C 43.089,260.678 39.4224,255.678 36,250.5C 35.1361,246.966 35.9694,243.966 38.5,241.5 Z M 304.5,302.5 C 306.463,318.928 307.13,335.595 306.5,352.5C 300.889,353.564 295.222,354.397 289.5,355C 287,356.167 285.167,358 284,360.5C 280.699,370.426 276.866,380.093 272.5,389.5C 274.64,395.104 277.806,400.104 282,404.5C 282.982,405.759 283.315,407.092 283,408.5C 271.667,419.833 260.333,431.167 249,442.5C 244.119,437.152 238.286,433.486 231.5,431.5C 221.205,435.309 210.872,439.142 200.5,443C 198.951,444.214 197.785,445.714 197,447.5C 196.083,453.168 195.25,458.835 194.5,464.5C 177.833,464.5 161.167,464.5 144.5,464.5C 144.635,457.562 143.468,450.896 141,444.5C 131.269,440.921 121.769,436.754 112.5,432C 109.5,431.333 106.5,431.333 103.5,432C 99.3233,436.069 94.6566,439.069 89.5,441C 78.1667,429.667 66.8333,418.333 55.5,407C 60.8478,402.119 64.5145,396.286 66.5,389.5C 62.0984,379.013 57.9318,368.347 54,357.5C 53.0975,356.299 51.9308,355.465 50.5,355C 44.4863,354.165 38.4863,353.332 32.5,352.5C 32.1672,336.153 32.5006,319.82 33.5,303.5C 38.7895,302.505 44.1228,301.672 49.5,301C 51.0806,300.293 52.5806,299.46 54,298.5C 57.2293,288.804 61.2293,279.471 66,270.5C 66.6667,267.833 66.6667,265.167 66,262.5C 62.8821,257.714 59.3821,253.214 55.5,249C 66.8333,237.667 78.1667,226.333 89.5,215C 90.5,214.333 91.5,214.333 92.5,215C 96.8178,219.988 102.151,223.155 108.5,224.5C 119.026,220.074 129.693,215.907 140.5,212C 143.254,205.499 144.587,198.666 144.5,191.5C 161.167,191.5 177.833,191.5 194.5,191.5C 195.25,197.165 196.083,202.832 197,208.5C 197.785,210.286 198.951,211.786 200.5,213C 210.872,216.858 221.205,220.691 231.5,224.5C 237.519,222.651 242.852,219.484 247.5,215C 248.5,214.333 249.5,214.333 250.5,215C 261.333,225.833 272.167,236.667 283,247.5C 281.069,252.657 278.069,257.323 274,261.5C 272,264.833 272,268.167 274,271.5C 278.633,279.724 282.3,288.391 285,297.5C 286.214,299.049 287.714,300.215 289.5,301C 294.481,301.748 299.481,302.248 304.5,302.5 Z M 158.5,244.5 C 199.392,242.021 228.892,259.021 247,295.5C 260.579,334.091 252.079,366.924 221.5,394C 195.21,412.991 166.876,416.658 136.5,405C 97.6515,384.804 81.4848,352.971 88,309.5C 98.3128,273.348 121.813,251.681 158.5,244.5 Z"/></g>
<g><path style="opacity:1" fill="#fbfbfb" d="M 156.5,227.5 C 200.766,224.216 234.599,241.216 258,278.5C 276.876,317.145 274.209,354.145 250,389.5C 220.235,424.307 183.069,435.807 138.5,424C 94.4275,407.21 71.0942,375.21 68.5,328C 71.5736,279.466 95.9069,247.133 141.5,231C 146.596,229.64 151.596,228.474 156.5,227.5 Z M 158.5,244.5 C 121.813,251.681 98.3128,273.348 88,309.5C 81.4848,352.971 97.6515,384.804 136.5,405C 166.876,416.658 195.21,412.991 221.5,394C 252.079,366.924 260.579,334.091 247,295.5C 228.892,259.021 199.392,242.021 158.5,244.5 Z"/></g>
<g><path style="opacity:0.98" fill="#e3e3e3" d="M 56.5,223.5 C 51.5,230.5 45.5,236.5 38.5,241.5C 44.1667,235.167 50.1667,229.167 56.5,223.5 Z"/></g>
<g><path style="opacity:0.788" fill="#dedede" d="M 304.5,302.5 C 305.5,302.5 306.5,302.5 307.5,302.5C 307.83,319.342 307.497,336.008 306.5,352.5C 307.13,335.595 306.463,318.928 304.5,302.5 Z"/></g>
<g><path style="opacity:1" fill="#fcfcfc" d="M 444.5,361.5 C 465.296,362.127 475.129,372.794 474,393.5C 471.756,403.241 465.922,409.574 456.5,412.5C 456.667,431.503 456.5,450.503 456,469.5C 455.065,472.102 453.232,473.602 450.5,474C 412.5,474.333 374.5,474.667 336.5,475C 328.097,491.135 315.43,495.802 298.5,489C 285.723,479.997 282.223,468.164 288,453.5C 298.068,439.285 310.902,436.118 326.5,444C 331.011,447.501 334.344,451.834 336.5,457C 370.832,457.5 405.165,457.667 439.5,457.5C 439.833,442.485 439.499,427.485 438.5,412.5C 424.231,404.882 419.398,393.215 424,377.5C 428.423,368.893 435.256,363.56 444.5,361.5 Z M 446.5,378.5 C 456.452,379.41 459.452,384.41 455.5,393.5C 450.662,398.725 445.829,398.725 441,393.5C 437.838,386.514 439.671,381.514 446.5,378.5 Z M 309.5,456.5 C 319.463,457.435 322.463,462.435 318.5,471.5C 314.289,476.199 309.789,476.532 305,472.5C 300.693,465.417 302.193,460.084 309.5,456.5 Z"/></g>
</svg>
