<?xml version="1.0" encoding="UTF-8"?>
<!DOCTYPE svg PUBLIC "-//W3C//DTD SVG 1.1//EN" "http://www.w3.org/Graphics/SVG/1.1/DTD/svg11.dtd">
<svg xmlns="http://www.w3.org/2000/svg" version="1.1" width="512px" height="512px" style="shape-rendering:geometricPrecision; text-rendering:geometricPrecision; image-rendering:optimizeQuality; fill-rule:evenodd; clip-rule:evenodd" xmlns:xlink="http://www.w3.org/1999/xlink">
<g><path style="opacity:0.992" fill="#f2f2f2" d="M 197.5,-0.5 C 197.833,-0.5 198.167,-0.5 198.5,-0.5C 198.5,26.8333 198.5,54.1667 198.5,81.5C 217.674,81.1697 236.674,81.503 255.5,82.5C 236.167,82.5 216.833,82.5 197.5,82.5C 197.5,54.8333 197.5,27.1667 197.5,-0.5 Z"/></g>
<g><path style="opacity:1" fill="#fdfdfd" d="M 198.5,-0.5 C 264.167,-0.5 329.833,-0.5 395.5,-0.5C 395.5,26.8333 395.5,54.1667 395.5,81.5C 368.995,81.1688 342.661,81.5022 316.5,82.5C 296.524,99.6354 276.358,116.635 256,133.5C 255.5,116.503 255.333,99.5033 255.5,82.5C 236.674,81.503 217.674,81.1697 198.5,81.5C 198.5,54.1667 198.5,26.8333 198.5,-0.5 Z M 275.5,94.5 C 274.504,94.4142 273.671,94.7476 273,95.5C 272.83,85.3249 272.33,75.3249 271.5,65.5C 252.5,65.5 233.5,65.5 214.5,65.5C 214.5,49.1667 214.5,32.8333 214.5,16.5C 269.167,16.5 323.833,16.5 378.5,16.5C 378.5,32.8333 378.5,49.1667 378.5,65.5C 355.164,65.3334 331.831,65.5 308.5,66C 297.055,75.045 286.055,84.545 275.5,94.5 Z"/></g>
<g><path style="opacity:1" fill="#fcfcfc" d="M 230.5,32.5 C 236.167,32.5 241.833,32.5 247.5,32.5C 247.5,38.1667 247.5,43.8333 247.5,49.5C 241.833,49.5 236.167,49.5 230.5,49.5C 230.5,43.8333 230.5,38.1667 230.5,32.5 Z"/></g>
<g><path style="opacity:1" fill="#fefefe" d="M 329.5,32.5 C 329.5,37.8333 329.5,43.1667 329.5,48.5C 307.5,48.5 285.5,48.5 263.5,48.5C 263.5,43.1667 263.5,37.8333 263.5,32.5C 285.5,32.5 307.5,32.5 329.5,32.5 Z"/></g>
<g><path style="opacity:0.918" fill="#dcdcdc" d="M 329.5,32.5 C 330.489,37.9753 330.822,43.642 330.5,49.5C 307.994,49.8308 285.66,49.4974 263.5,48.5C 285.5,48.5 307.5,48.5 329.5,48.5C 329.5,43.1667 329.5,37.8333 329.5,32.5 Z"/></g>
<g><path style="opacity:0.918" fill="#d0d0d0" d="M 346.5,32.5 C 346.5,37.8333 346.5,43.1667 346.5,48.5C 351.833,48.5 357.167,48.5 362.5,48.5C 362.5,43.1667 362.5,37.8333 362.5,32.5C 363.489,37.9753 363.822,43.642 363.5,49.5C 357.5,49.5 351.5,49.5 345.5,49.5C 345.178,43.642 345.511,37.9753 346.5,32.5 Z"/></g>
<g><path style="opacity:1" fill="#fefffe" d="M 346.5,32.5 C 351.833,32.5 357.167,32.5 362.5,32.5C 362.5,37.8333 362.5,43.1667 362.5,48.5C 357.167,48.5 351.833,48.5 346.5,48.5C 346.5,43.1667 346.5,37.8333 346.5,32.5 Z"/></g>
<g><path style="opacity:0.898" fill="#dcdcdc" d="M 271.5,65.5 C 272.33,75.3249 272.83,85.3249 273,95.5C 273.671,94.7476 274.504,94.4142 275.5,94.5C 274.685,95.8366 273.518,96.8366 272,97.5C 271.5,86.8385 271.333,76.1719 271.5,65.5 Z"/></g>
<g><path style="opacity:0.933" fill="#e2e2e2" d="M 395.5,-0.5 C 395.833,-0.5 396.167,-0.5 396.5,-0.5C 396.5,27.1667 396.5,54.8333 396.5,82.5C 369.833,82.5 343.167,82.5 316.5,82.5C 342.661,81.5022 368.995,81.1688 395.5,81.5C 395.5,54.1667 395.5,26.8333 395.5,-0.5 Z"/></g>
<g><path style="opacity:1" fill="#fcfcfc" d="M 271.5,277.5 C 271.5,278.5 271.5,279.5 271.5,280.5C 287.342,280.83 303.009,280.496 318.5,279.5C 332.631,264.868 346.965,250.368 361.5,236C 344.048,228.879 333.548,216.046 330,197.5C 329.333,186.5 329.333,175.5 330,164.5C 338.353,133.497 358.519,119.997 390.5,124C 412.158,130.136 424.992,144.303 429,166.5C 429.667,176.167 429.667,185.833 429,195.5C 427.639,207.222 422.805,217.222 414.5,225.5C 427.221,234.966 432.221,247.632 429.5,263.5C 440.5,263.5 451.5,263.5 462.5,263.5C 462.667,301.168 462.5,338.835 462,376.5C 457.723,404.943 441.556,422.277 413.5,428.5C 415.895,449.12 417.895,469.787 419.5,490.5C 419.5,492.167 419.5,493.833 419.5,495.5C 450.167,495.5 480.833,495.5 511.5,495.5C 511.5,500.833 511.5,506.167 511.5,511.5C 340.833,511.5 170.167,511.5 -0.5,511.5C -0.5,505.833 -0.5,500.167 -0.5,494.5C 24.1667,494.5 48.8333,494.5 73.5,494.5C 73.5,450.833 73.5,407.167 73.5,363.5C 68.3595,362.512 63.0262,362.179 57.5,362.5C 57.5,346.167 57.5,329.833 57.5,313.5C 68.5,313.5 79.5,313.5 90.5,313.5C 90.5,302.5 90.5,291.5 90.5,280.5C 91.5483,264.943 99.5483,254.776 114.5,250C 125.105,246.849 135.772,244.016 146.5,241.5C 147.809,239.429 148.475,236.929 148.5,234C 148.497,231.31 148.164,228.81 147.5,226.5C 139.49,218.82 134.324,209.487 132,198.5C 131.333,186.833 131.333,175.167 132,163.5C 138.581,138.258 154.914,124.591 181,122.5C 202.189,123.747 217.522,133.747 227,152.5C 231.75,168.222 232.75,184.222 230,200.5C 227.572,210.694 222.572,219.361 215,226.5C 214.172,231.202 214.338,235.869 215.5,240.5C 228.933,244.358 242.266,248.525 255.5,253C 264.738,258.649 270.072,266.816 271.5,277.5 Z M 175.5,140.5 C 195.017,139.2 207.517,147.867 213,166.5C 213.667,176.167 213.667,185.833 213,195.5C 207.012,214.92 193.846,223.42 173.5,221C 159.559,216.397 151.392,206.897 149,192.5C 148.333,184.833 148.333,177.167 149,169.5C 151.823,154.183 160.656,144.517 175.5,140.5 Z M 373.5,140.5 C 392.554,139.262 405.054,147.595 411,165.5C 411.667,175.833 411.667,186.167 411,196.5C 404.95,215.202 392.116,223.368 372.5,221C 360.106,217.606 351.939,209.773 348,197.5C 345.776,185.421 346.11,173.421 349,161.5C 353.783,150.385 361.95,143.385 373.5,140.5 Z M 165.5,245.5 C 164.964,242.302 165.631,239.635 167.5,237.5C 177.454,240.337 187.288,240.003 197,236.5C 197.667,239.167 197.667,241.833 197,244.5C 190.296,255.158 181.463,257.325 170.5,251C 168.598,249.27 166.931,247.437 165.5,245.5 Z M 384.5,239.5 C 389.914,239.02 393.414,241.354 395,246.5C 395.216,249.853 394.216,252.853 392,255.5C 373.167,274.333 354.333,293.167 335.5,312C 305.167,312.667 274.833,312.667 244.5,312C 237.833,307.333 237.833,302.667 244.5,298C 271.5,297.667 298.5,297.333 325.5,297C 344.757,277.24 364.424,258.074 384.5,239.5 Z M 223.5,312.5 C 184.833,312.5 146.167,312.5 107.5,312.5C 107.5,301.833 107.5,291.167 107.5,280.5C 109.354,272.48 114.354,267.647 122.5,266C 132.356,263.244 142.189,260.411 152,257.5C 171.499,277.472 190.999,277.472 210.5,257.5C 222.131,261.099 233.798,264.599 245.5,268C 249.98,270.478 252.98,274.145 254.5,279C 235.566,277.933 224.566,286.6 221.5,305C 222.22,307.491 222.887,309.991 223.5,312.5 Z M 410.5,257.5 C 411.498,290.662 411.832,323.996 411.5,357.5C 409.5,369.5 402.5,376.5 390.5,378.5C 367.833,378.5 345.167,378.5 322.5,378.5C 322.5,373.5 322.5,368.5 322.5,363.5C 330.684,363.826 338.684,363.492 346.5,362.5C 346.333,350.162 346.5,337.829 347,325.5C 366.667,305.833 386.333,286.167 406,266.5C 408.06,263.714 409.56,260.714 410.5,257.5 Z M 405.5,411.5 C 377.833,411.5 350.167,411.5 322.5,411.5C 322.5,406.5 322.5,401.5 322.5,396.5C 345.673,396.831 368.673,396.498 391.5,395.5C 410.133,393.426 422.3,383.426 428,365.5C 429.44,337.2 429.94,308.866 429.5,280.5C 434.5,280.5 439.5,280.5 444.5,280.5C 444.667,313.502 444.5,346.502 444,379.5C 438.547,399.124 425.714,409.791 405.5,411.5 Z M 329.5,330.5 C 329.5,335.5 329.5,340.5 329.5,345.5C 244.5,345.5 159.5,345.5 74.5,345.5C 74.5,340.5 74.5,335.5 74.5,330.5C 159.5,330.5 244.5,330.5 329.5,330.5 Z M 90.5,363.5 C 161.833,363.5 233.167,363.5 304.5,363.5C 304.5,368.5 304.5,373.5 304.5,378.5C 246.664,378.168 188.998,378.501 131.5,379.5C 131.5,385.167 131.5,390.833 131.5,396.5C 189.167,396.5 246.833,396.5 304.5,396.5C 304.5,429.167 304.5,461.833 304.5,494.5C 298.132,494.83 291.798,494.496 285.5,493.5C 280.392,482.949 275.059,472.615 269.5,462.5C 245.669,461.833 221.669,461.5 197.5,461.5C 173.157,461.5 149.157,462.167 125.5,463.5C 119.992,473.182 114.992,483.182 110.5,493.5C 103.922,494.46 97.2554,494.793 90.5,494.5C 90.5,461.833 90.5,429.167 90.5,396.5C 98.8333,396.5 107.167,396.5 115.5,396.5C 115.5,390.5 115.5,384.5 115.5,378.5C 107.167,378.5 98.8333,378.5 90.5,378.5C 90.5,373.5 90.5,368.5 90.5,363.5 Z M 363.5,429.5 C 365.236,450.196 367.236,470.863 369.5,491.5C 369.5,492.5 369.5,493.5 369.5,494.5C 353.833,494.5 338.167,494.5 322.5,494.5C 322.5,472.833 322.5,451.167 322.5,429.5C 336.167,429.5 349.833,429.5 363.5,429.5 Z M 402.5,491.5 C 402.5,492.5 402.5,493.5 402.5,494.5C 397.5,494.5 392.5,494.5 387.5,494.5C 387.737,493.209 387.404,492.209 386.5,491.5C 385.092,471.092 383.092,450.758 380.5,430.5C 385.792,429.505 391.125,429.172 396.5,429.5C 398.236,450.196 400.236,470.863 402.5,491.5 Z M 265.5,493.5 C 220.167,494.833 174.833,494.833 129.5,493.5C 132.266,488.809 134.932,483.976 137.5,479C 177.837,478.167 218.171,478.333 258.5,479.5C 260.847,484.193 263.18,488.86 265.5,493.5 Z"/></g>
<g><path style="opacity:0.722" fill="#cbcbcb" d="M 147.5,226.5 C 148.164,228.81 148.497,231.31 148.5,234C 148.475,236.929 147.809,239.429 146.5,241.5C 147.445,236.595 147.779,231.595 147.5,226.5 Z"/></g>
<g><path style="opacity:0.4" fill="#b7b7b7" d="M 167.5,237.5 C 165.631,239.635 164.964,242.302 165.5,245.5C 164.523,242.713 164.19,239.713 164.5,236.5C 165.791,236.263 166.791,236.596 167.5,237.5 Z"/></g>
<g><path style="opacity:0.259" fill="#b2b2b2" d="M 411.5,357.5 C 411.832,323.996 411.498,290.662 410.5,257.5C 411.185,255.586 411.685,253.586 412,251.5C 412.831,287.002 412.664,322.336 411.5,357.5 Z"/></g>
<g><path style="opacity:0.525" fill="#bebebe" d="M 271.5,277.5 C 286.926,279.46 302.593,280.127 318.5,279.5C 303.009,280.496 287.342,280.83 271.5,280.5C 271.5,279.5 271.5,278.5 271.5,277.5 Z"/></g>
<g><path style="opacity:0.467" fill="#bdbdbd" d="M 107.5,280.5 C 107.5,291.167 107.5,301.833 107.5,312.5C 146.167,312.5 184.833,312.5 223.5,312.5C 184.67,313.499 145.67,313.832 106.5,313.5C 106.172,302.321 106.505,291.321 107.5,280.5 Z"/></g>
<g><path style="opacity:0.467" fill="#bcbcbc" d="M 90.5,280.5 C 90.5,291.5 90.5,302.5 90.5,313.5C 79.5,313.5 68.5,313.5 57.5,313.5C 57.5,329.833 57.5,346.167 57.5,362.5C 63.0262,362.179 68.3595,362.512 73.5,363.5C 67.8333,363.5 62.1667,363.5 56.5,363.5C 56.5,346.5 56.5,329.5 56.5,312.5C 67.5,312.5 78.5,312.5 89.5,312.5C 89.1722,301.654 89.5056,290.987 90.5,280.5 Z"/></g>
<g><path style="opacity:0.678" fill="#c2c2c2" d="M 329.5,330.5 C 244.5,330.5 159.5,330.5 74.5,330.5C 74.5,335.5 74.5,340.5 74.5,345.5C 159.5,345.5 244.5,345.5 329.5,345.5C 244.335,346.499 159.002,346.833 73.5,346.5C 73.5,340.833 73.5,335.167 73.5,329.5C 159.002,329.167 244.335,329.501 329.5,330.5 Z"/></g>
<g><path style="opacity:0.722" fill="#c4c4c4" d="M 90.5,363.5 C 161.998,362.501 233.665,362.167 305.5,362.5C 305.5,368.167 305.5,373.833 305.5,379.5C 247.5,379.5 189.5,379.5 131.5,379.5C 188.998,378.501 246.664,378.168 304.5,378.5C 304.5,373.5 304.5,368.5 304.5,363.5C 233.167,363.5 161.833,363.5 90.5,363.5 Z"/></g>
<g><path style="opacity:0.329" fill="#b8b8b8" d="M 346.5,362.5 C 338.684,363.492 330.684,363.826 322.5,363.5C 322.5,368.5 322.5,373.5 322.5,378.5C 345.167,378.5 367.833,378.5 390.5,378.5C 367.673,379.498 344.673,379.831 321.5,379.5C 321.5,373.833 321.5,368.167 321.5,362.5C 329.833,362.5 338.167,362.5 346.5,362.5 Z"/></g>
<g><path style="opacity:0.259" fill="#b9b9b9" d="M 391.5,395.5 C 368.673,396.498 345.673,396.831 322.5,396.5C 322.5,401.5 322.5,406.5 322.5,411.5C 350.167,411.5 377.833,411.5 405.5,411.5C 377.672,412.498 349.672,412.831 321.5,412.5C 321.5,406.833 321.5,401.167 321.5,395.5C 344.833,395.5 368.167,395.5 391.5,395.5 Z"/></g>
<g><path style="opacity:0.176" fill="#b9b9b9" d="M 363.5,429.5 C 349.833,429.5 336.167,429.5 322.5,429.5C 322.5,451.167 322.5,472.833 322.5,494.5C 322.167,494.5 321.833,494.5 321.5,494.5C 321.5,472.5 321.5,450.5 321.5,428.5C 335.677,428.171 349.677,428.504 363.5,429.5 Z"/></g>
<g><path style="opacity:0.918" fill="#e0e0e0" d="M 269.5,462.5 C 221.428,462.172 173.428,462.505 125.5,463.5C 149.157,462.167 173.157,461.5 197.5,461.5C 221.669,461.5 245.669,461.833 269.5,462.5 Z"/></g>
<g><path style="opacity:0.898" fill="#dddddd" d="M 110.5,493.5 C 107.572,494.82 104.239,495.486 100.5,495.5C 96.9825,495.498 93.6491,495.165 90.5,494.5C 97.2554,494.793 103.922,494.46 110.5,493.5 Z"/></g>
<g><path style="opacity:0.898" fill="#dddddd" d="M 129.5,493.5 C 174.833,494.833 220.167,494.833 265.5,493.5C 266.043,493.56 266.376,493.893 266.5,494.5C 220.5,495.833 174.5,495.833 128.5,494.5C 128.624,493.893 128.957,493.56 129.5,493.5 Z"/></g>
<g><path style="opacity:0.898" fill="#dddddd" d="M 369.5,491.5 C 370.434,492.568 370.768,493.901 370.5,495.5C 353.991,495.83 337.658,495.496 321.5,494.5C 321.833,494.5 322.167,494.5 322.5,494.5C 338.167,494.5 353.833,494.5 369.5,494.5C 369.5,493.5 369.5,492.5 369.5,491.5 Z"/></g>
<g><path style="opacity:0.898" fill="#d9d9d9" d="M 386.5,491.5 C 387.404,492.209 387.737,493.209 387.5,494.5C 392.5,494.5 397.5,494.5 402.5,494.5C 402.5,493.5 402.5,492.5 402.5,491.5C 403.434,492.568 403.768,493.901 403.5,495.5C 397.833,495.5 392.167,495.5 386.5,495.5C 386.5,494.167 386.5,492.833 386.5,491.5 Z"/></g>
<g><path style="opacity:0.898" fill="#dcdcdc" d="M 419.5,490.5 C 420.434,491.568 420.768,492.901 420.5,494.5C 450.833,494.5 481.167,494.5 511.5,494.5C 511.5,494.833 511.5,495.167 511.5,495.5C 480.833,495.5 450.167,495.5 419.5,495.5C 419.5,493.833 419.5,492.167 419.5,490.5 Z"/></g>
</svg>
