<?xml version="1.0" encoding="UTF-8"?>
<!DOCTYPE svg PUBLIC "-//W3C//DTD SVG 1.1//EN" "http://www.w3.org/Graphics/SVG/1.1/DTD/svg11.dtd">
<svg xmlns="http://www.w3.org/2000/svg" version="1.1" width="512px" height="512px" style="shape-rendering:geometricPrecision; text-rendering:geometricPrecision; image-rendering:optimizeQuality; fill-rule:evenodd; clip-rule:evenodd" xmlns:xlink="http://www.w3.org/1999/xlink">
<g><path style="opacity:1" fill="#f9f9fa" d="M 426.5,478.5 C 425.167,479.167 424.167,480.167 423.5,481.5C 311.001,482.666 198.334,482.833 85.5,482C 83.3333,481.167 81.8333,479.667 81,477.5C 79.5874,452.422 66.4207,438.922 41.5,437C 39.6711,436.727 38.1711,435.893 37,434.5C 35.3375,320.914 35.0042,207.247 36,93.5C 38.9442,89.8864 42.7775,88.5531 47.5,89.5C 50.5533,89.8893 53.22,89.2227 55.5,87.5C 58.7946,85.8527 62.1279,84.1861 65.5,82.5C 68.5,81.5 70.5,79.5 71.5,76.5C 77.5354,68.2286 80.7021,58.8952 81,48.5C 82.762,45.732 85.262,44.232 88.5,44C 199.167,43.3333 309.833,43.3333 420.5,44C 423.276,44.0657 425.442,45.2324 427,47.5C 428.355,73.855 442.188,88.0217 468.5,90C 469.931,90.4652 471.097,91.2986 472,92.5C 473.662,205.753 473.996,319.086 473,432.5C 471.891,434.815 470.057,436.315 467.5,437C 450.32,437.201 438.153,445.034 431,460.5C 429.539,466.669 428.039,472.669 426.5,478.5 Z M 238.5,60.5 C 238.799,68.253 238.466,75.9196 237.5,83.5C 228.074,87.0443 218.741,90.8777 209.5,95C 207.376,96.1217 205.543,97.6217 204,99.5C 203.5,130.832 203.333,162.165 203.5,193.5C 196.159,193.334 188.826,193.5 181.5,194C 180.333,195.167 179.167,196.333 178,197.5C 177.5,207.828 177.334,218.161 177.5,228.5C 158.83,228.667 140.164,228.5 121.5,228C 112.598,210.361 103.598,192.861 94.5,175.5C 94.573,173.973 93.9063,172.973 92.5,172.5C 99.991,163.305 100.324,153.971 93.5,144.5C 93.1667,142.167 91.8333,140.833 89.5,140.5C 81.1406,134.027 72.474,133.86 63.5,140C 60.6194,142.279 58.6194,145.112 57.5,148.5C 56.027,151.017 55.3603,153.85 55.5,157C 55.5056,159.033 55.8389,160.866 56.5,162.5C 59.541,172.86 66.541,178.526 77.5,179.5C 88.2556,200.011 98.7556,220.677 109,241.5C 110.734,243.451 112.901,244.451 115.5,244.5C 135.993,245.497 156.66,245.831 177.5,245.5C 177.5,251.167 177.5,256.833 177.5,262.5C 144.165,262.333 110.832,262.5 77.5,263C 76.944,263.383 76.6107,263.883 76.5,264.5C 75.5416,264.953 74.7083,265.619 74,266.5C 71.902,273.542 74.402,277.542 81.5,278.5C 113.329,279.498 145.329,279.832 177.5,279.5C 177.5,285.167 177.5,290.833 177.5,296.5C 155.831,296.333 134.164,296.5 112.5,297C 111.584,297.278 110.918,297.778 110.5,298.5C 109.094,298.973 108.427,299.973 108.5,301.5C 100.103,324.357 92.1033,347.357 84.5,370.5C 81.6458,371.205 78.9791,372.205 76.5,373.5C 66.6239,377.916 62.4572,385.583 64,396.5C 64.4717,400.11 65.9717,403.11 68.5,405.5C 68.8333,407.833 70.1667,409.167 72.5,409.5C 80.8734,415.931 89.5401,416.098 98.5,410C 107.29,401.343 108.79,391.509 103,380.5C 101.833,379.333 100.667,378.167 99.5,377C 107.135,355.927 114.469,334.761 121.5,313.5C 140.167,313.5 158.833,313.5 177.5,313.5C 177.173,323.348 177.506,333.014 178.5,342.5C 179.219,344.888 180.885,346.388 183.5,347C 191.493,347.5 199.493,347.666 207.5,347.5C 207.5,357.833 207.5,368.167 207.5,378.5C 189.83,378.333 172.164,378.5 154.5,379C 152.152,379.346 150.319,380.513 149,382.5C 147.867,396.085 147.034,409.752 146.5,423.5C 134.482,431.235 131.648,441.568 138,454.5C 146.137,463.881 155.97,466.048 167.5,461C 175.485,455.187 178.651,447.354 177,437.5C 176.246,434.316 174.746,431.649 172.5,429.5C 172.573,427.973 171.906,426.973 170.5,426.5C 169.078,425.075 167.411,424.075 165.5,423.5C 164.528,414.25 164.195,404.917 164.5,395.5C 182.836,395.667 201.17,395.5 219.5,395C 220.667,393.833 221.833,392.667 223,391.5C 223.5,376.837 223.667,362.17 223.5,347.5C 228.5,347.5 233.5,347.5 238.5,347.5C 238.5,363.167 238.5,378.833 238.5,394.5C 228.855,398.32 219.188,402.154 209.5,406C 207.34,406.996 205.673,408.496 204.5,410.5C 203.503,428.659 203.17,446.992 203.5,465.5C 167.833,465.5 132.167,465.5 96.5,465.5C 95.471,456.718 92.1377,449.052 86.5,442.5C 86.573,440.973 85.9063,439.973 84.5,439.5C 75.9248,429.457 65.0914,423.124 52,420.5C 51.5,315.501 51.3333,210.501 51.5,105.5C 63.9705,104.099 74.3039,98.7661 82.5,89.5C 83.9063,89.0269 84.573,88.0269 84.5,86.5C 91.3635,79.281 95.3635,70.6143 96.5,60.5C 143.833,60.5 191.167,60.5 238.5,60.5 Z M 266.5,60.5 C 266.814,73.9125 266.481,87.2459 265.5,100.5C 255.407,104.378 245.407,108.545 235.5,113C 233.951,114.214 232.785,115.714 232,117.5C 231.5,142.831 231.333,168.164 231.5,193.5C 227.833,193.5 224.167,193.5 220.5,193.5C 220.167,165.159 220.5,136.825 221.5,108.5C 232.469,104.014 243.136,99.0138 253.5,93.5C 254,92.5 254.5,91.5 255,90.5C 255.5,80.5056 255.666,70.5056 255.5,60.5C 259.167,60.5 262.833,60.5 266.5,60.5 Z M 283.5,60.5 C 287.833,60.5 292.167,60.5 296.5,60.5C 296.833,79.1786 296.5,97.8452 295.5,116.5C 285.048,120.892 274.715,125.559 264.5,130.5C 263.667,131.5 262.833,132.5 262,133.5C 261.5,153.497 261.333,173.497 261.5,193.5C 257.167,193.5 252.833,193.5 248.5,193.5C 248.5,170.833 248.5,148.167 248.5,125.5C 260.212,121.727 271.379,116.727 282,110.5C 283.471,93.9282 283.971,77.2616 283.5,60.5 Z M 430.5,93.5 C 430.973,94.9063 431.973,95.573 433.5,95.5C 440.052,101.138 447.718,104.471 456.5,105.5C 456.5,210.833 456.5,316.167 456.5,421.5C 440.09,423.927 427.757,432.261 419.5,446.5C 418.094,446.973 417.427,447.973 417.5,449.5C 414.654,454.376 412.987,459.709 412.5,465.5C 367.833,465.5 323.167,465.5 278.5,465.5C 278.5,461.167 278.5,456.833 278.5,452.5C 288.812,448.346 299.145,444.179 309.5,440C 311.141,438.871 312.141,437.371 312.5,435.5C 313.498,406.338 313.831,377.005 313.5,347.5C 317.702,347.817 321.702,347.483 325.5,346.5C 328.167,345.833 329.833,344.167 330.5,341.5C 331.494,332.014 331.827,322.348 331.5,312.5C 350.167,312.5 368.833,312.5 387.5,312.5C 396.43,331.528 405.764,350.361 415.5,369C 403.601,381.035 403.601,393.035 415.5,405C 421.418,408.331 427.751,409.331 434.5,408C 437.025,407.576 439.025,406.41 440.5,404.5C 442.833,404.167 444.167,402.833 444.5,400.5C 447.149,398.588 448.482,395.921 448.5,392.5C 449.161,390.866 449.494,389.033 449.5,387C 449.64,383.85 448.973,381.017 447.5,378.5C 445.244,372.416 440.911,368.583 434.5,367C 433.267,364.686 431.933,362.519 430.5,360.5C 430.573,358.973 429.906,357.973 428.5,357.5C 421.008,341.182 413.008,325.182 404.5,309.5C 404.573,307.973 403.906,306.973 402.5,306.5C 401.62,303.738 400.454,301.071 399,298.5C 397.89,296.963 396.39,296.297 394.5,296.5C 373.673,295.503 352.673,295.169 331.5,295.5C 331.5,289.833 331.5,284.167 331.5,278.5C 365.004,278.832 398.338,278.498 431.5,277.5C 435.003,276.351 436.669,273.851 436.5,270C 436.722,265.571 434.722,263.071 430.5,262.5C 397.671,261.502 364.671,261.168 331.5,261.5C 331.5,255.833 331.5,250.167 331.5,244.5C 353.007,244.831 374.34,244.497 395.5,243.5C 397.371,243.141 398.871,242.141 400,240.5C 410.412,220.009 421.078,199.676 432,179.5C 437.512,177.405 442.179,174.072 446,169.5C 447.411,167.35 448.245,165.016 448.5,162.5C 449.161,160.866 449.494,159.033 449.5,157C 449.64,153.85 448.973,151.017 447.5,148.5C 443.084,138.624 435.417,134.457 424.5,136C 420.89,136.472 417.89,137.972 415.5,140.5C 413.167,140.833 411.833,142.167 411.5,144.5C 408.23,148.086 406.563,152.419 406.5,157.5C 406.986,163.466 409.319,168.466 413.5,172.5C 414.234,173.708 414.567,175.041 414.5,176.5C 409.072,185.021 404.405,194.021 400.5,203.5C 399.094,203.973 398.427,204.973 398.5,206.5C 395.326,211.516 392.659,216.849 390.5,222.5C 389.094,222.973 388.427,223.973 388.5,225.5C 387.662,225.842 387.328,226.508 387.5,227.5C 368.833,227.5 350.167,227.5 331.5,227.5C 331.827,217.652 331.494,207.986 330.5,198.5C 330.141,196.629 329.141,195.129 327.5,194C 322.845,193.501 318.179,193.334 313.5,193.5C 313.5,183.167 313.5,172.833 313.5,162.5C 331.836,162.667 350.17,162.5 368.5,162C 369.667,160.833 370.833,159.667 372,158.5C 372.333,143.5 372.667,128.5 373,113.5C 384.526,106.934 388.192,97.2678 384,84.5C 378.178,74.011 369.345,70.1776 357.5,73C 342.835,80.6563 339.335,91.823 347,106.5C 349.177,109.523 352.011,111.523 355.5,112.5C 355.5,123.5 355.5,134.5 355.5,145.5C 337.659,145.17 319.992,145.503 302.5,146.5C 301.508,146.328 300.842,146.662 300.5,147.5C 298.5,147.5 297.5,148.5 297.5,150.5C 296.504,164.657 296.171,178.99 296.5,193.5C 290.5,193.5 284.5,193.5 278.5,193.5C 278.167,176.487 278.501,159.487 279.5,142.5C 289.126,138.236 298.792,134.069 308.5,130C 310.726,128.773 312.226,126.939 313,124.5C 313.5,103.169 313.667,81.8359 313.5,60.5C 346.168,60.3334 378.835,60.5 411.5,61C 414.124,74.0914 420.457,84.9248 430.5,93.5 Z M 361.5,89.5 C 368.004,89.1377 369.671,91.6377 366.5,97C 362.535,98.4169 360.201,97.0836 359.5,93C 360.305,91.8873 360.972,90.7206 361.5,89.5 Z M 78.5,152.5 C 79.1667,153.833 80.1667,154.833 81.5,155.5C 80.667,161.335 77.8337,162.668 73,159.5C 72.0166,154.981 73.8499,152.648 78.5,152.5 Z M 426.5,161.5 C 425.833,160.167 424.833,159.167 423.5,158.5C 424.029,153.94 426.362,152.273 430.5,153.5C 433.909,158.53 432.575,161.197 426.5,161.5 Z M 314.5,330.5 C 274.5,330.5 234.5,330.5 194.5,330.5C 194.5,290.5 194.5,250.5 194.5,210.5C 234.5,210.5 274.5,210.5 314.5,210.5C 314.5,250.5 314.5,290.5 314.5,330.5 Z M 268.5,410.5 C 257.697,414.436 247.03,418.769 236.5,423.5C 235.575,424.357 234.908,425.357 234.5,426.5C 233.505,439.323 233.171,452.323 233.5,465.5C 229.167,465.5 224.833,465.5 220.5,465.5C 220.183,450.089 220.517,434.755 221.5,419.5C 231.585,415.694 241.585,411.694 251.5,407.5C 252.906,407.027 253.573,406.027 253.5,404.5C 254.338,404.158 254.672,403.492 254.5,402.5C 255.497,384.341 255.83,366.008 255.5,347.5C 259.833,347.5 264.167,347.5 268.5,347.5C 268.5,368.5 268.5,389.5 268.5,410.5 Z M 295.5,427.5 C 284.962,431.1 274.628,435.267 264.5,440C 263.177,440.816 262.511,441.983 262.5,443.5C 261.508,450.648 261.175,457.981 261.5,465.5C 257.833,465.5 254.167,465.5 250.5,465.5C 250.5,455.5 250.5,445.5 250.5,435.5C 261.028,431.906 271.361,427.739 281.5,423C 283.141,421.871 284.141,420.371 284.5,418.5C 285.498,395.006 285.831,371.339 285.5,347.5C 289.167,347.5 292.833,347.5 296.5,347.5C 296.824,374.241 296.491,400.908 295.5,427.5 Z M 425.5,383.5 C 432.004,383.138 433.671,385.638 430.5,391C 424.206,391.578 422.539,389.078 425.5,383.5 Z M 84.5,397.5 C 83.7095,396.599 82.7095,395.932 81.5,395.5C 80.1025,390.393 82.1025,388.226 87.5,389C 90.5791,393.165 89.5791,395.999 84.5,397.5 Z M 156.5,437.5 C 161.994,441.04 161.827,444.04 156,446.5C 151.508,445.694 150.508,443.361 153,439.5C 154.302,438.915 155.469,438.249 156.5,437.5 Z"/></g>
<g><path style="opacity:0.922" fill="#c9ced6" d="M 238.5,60.5 C 239.165,64.1515 239.499,67.9848 239.5,72C 239.49,76.229 238.823,80.0623 237.5,83.5C 238.466,75.9196 238.799,68.253 238.5,60.5 Z"/></g>
<g><path style="opacity:0.871" fill="#bec3cd" d="M 266.5,60.5 C 267.166,66.9914 267.5,73.6581 267.5,80.5C 267.497,87.5351 266.83,94.2017 265.5,100.5C 266.481,87.2459 266.814,73.9125 266.5,60.5 Z"/></g>
<g><path style="opacity:0.976" fill="#c1c6cf" d="M 71.5,76.5 C 70.5,79.5 68.5,81.5 65.5,82.5C 67.1667,80.1667 69.1667,78.1667 71.5,76.5 Z"/></g>
<g><path style="opacity:0.031" fill="#9dabb4" d="M 84.5,86.5 C 84.573,88.0269 83.9063,89.0269 82.5,89.5C 82.427,87.9731 83.0937,86.9731 84.5,86.5 Z"/></g>
<g><path style="opacity:0.996" fill="#b9c0c8" d="M 55.5,87.5 C 53.22,89.2227 50.5533,89.8893 47.5,89.5C 49.9608,88.469 52.6275,87.8023 55.5,87.5 Z"/></g>
<g><path style="opacity:0.706" fill="#a4a8b1" d="M 430.5,93.5 C 432.027,93.427 433.027,94.0937 433.5,95.5C 431.973,95.573 430.973,94.9063 430.5,93.5 Z"/></g>
<g><path style="opacity:0.039" fill="#a3aeb6" d="M 89.5,140.5 C 91.8333,140.833 93.1667,142.167 93.5,144.5C 91.8333,143.5 90.5,142.167 89.5,140.5 Z"/></g>
<g><path style="opacity:0.882" fill="#aaafb9" d="M 415.5,140.5 C 414.5,142.167 413.167,143.5 411.5,144.5C 411.833,142.167 413.167,140.833 415.5,140.5 Z"/></g>
<g><path style="opacity:0.557" fill="#9aa2b2" d="M 355.5,112.5 C 356.495,123.654 356.828,134.988 356.5,146.5C 338.5,146.5 320.5,146.5 302.5,146.5C 319.992,145.503 337.659,145.17 355.5,145.5C 355.5,134.5 355.5,123.5 355.5,112.5 Z"/></g>
<g><path style="opacity:0.612" fill="#9fa5b0" d="M 300.5,147.5 C 299.833,148.833 298.833,149.833 297.5,150.5C 297.5,148.5 298.5,147.5 300.5,147.5 Z"/></g>
<g><path style="opacity:0.906" fill="#a8adc1" d="M 78.5,152.5 C 80.5,152.5 81.5,153.5 81.5,155.5C 80.1667,154.833 79.1667,153.833 78.5,152.5 Z"/></g>
<g><path style="opacity:0.686" fill="#aaafbc" d="M 57.5,148.5 C 56.7705,153.13 56.4372,157.797 56.5,162.5C 55.8389,160.866 55.5056,159.033 55.5,157C 55.3603,153.85 56.027,151.017 57.5,148.5 Z"/></g>
<g><path style="opacity:0.765" fill="#b2b8c3" d="M 447.5,148.5 C 448.973,151.017 449.64,153.85 449.5,157C 449.494,159.033 449.161,160.866 448.5,162.5C 448.563,157.797 448.229,153.13 447.5,148.5 Z"/></g>
<g><path style="opacity:0.91" fill="#a7aab6" d="M 423.5,158.5 C 424.833,159.167 425.833,160.167 426.5,161.5C 424.5,161.5 423.5,160.5 423.5,158.5 Z"/></g>
<g><path style="opacity:0.506" fill="#a1a7b1" d="M 92.5,172.5 C 93.9063,172.973 94.573,173.973 94.5,175.5C 93.0937,175.027 92.427,174.027 92.5,172.5 Z"/></g>
<g><path style="opacity:0.114" fill="#a2a9b6" d="M 413.5,172.5 C 414.586,172.62 415.253,173.287 415.5,174.5C 415.457,175.416 415.124,176.083 414.5,176.5C 414.567,175.041 414.234,173.708 413.5,172.5 Z"/></g>
<g><path style="opacity:0.549" fill="#a2a8b1" d="M 400.5,203.5 C 400.573,205.027 399.906,206.027 398.5,206.5C 398.427,204.973 399.094,203.973 400.5,203.5 Z"/></g>
<g><path style="opacity:0.573" fill="#a4a9b2" d="M 390.5,222.5 C 390.573,224.027 389.906,225.027 388.5,225.5C 388.427,223.973 389.094,222.973 390.5,222.5 Z"/></g>
<g><path style="opacity:0.557" fill="#a1a9b7" d="M 330.5,198.5 C 331.494,207.986 331.827,217.652 331.5,227.5C 350.167,227.5 368.833,227.5 387.5,227.5C 368.674,228.497 349.674,228.83 330.5,228.5C 330.5,218.5 330.5,208.5 330.5,198.5 Z"/></g>
<g><path style="opacity:0.942" fill="#b1b7c4" d="M 115.5,244.5 C 136.5,244.5 157.5,244.5 178.5,244.5C 178.823,250.69 178.49,256.69 177.5,262.5C 177.5,256.833 177.5,251.167 177.5,245.5C 156.66,245.831 135.993,245.497 115.5,244.5 Z"/></g>
<g><path style="opacity:0.557" fill="#a9b0bd" d="M 395.5,243.5 C 374.34,244.497 353.007,244.831 331.5,244.5C 331.5,250.167 331.5,255.833 331.5,261.5C 364.671,261.168 397.671,261.502 430.5,262.5C 397.167,262.5 363.833,262.5 330.5,262.5C 330.5,256.167 330.5,249.833 330.5,243.5C 352.167,243.5 373.833,243.5 395.5,243.5 Z"/></g>
<g><path style="opacity:0.996" fill="#edeff1" d="M 177.5,262.5 C 143.961,263.18 110.294,263.847 76.5,264.5C 76.6107,263.883 76.944,263.383 77.5,263C 110.832,262.5 144.165,262.333 177.5,262.5 Z"/></g>
<g><path style="opacity:0.422" fill="#9da3b4" d="M 314.5,330.5 C 314.5,290.5 314.5,250.5 314.5,210.5C 274.5,210.5 234.5,210.5 194.5,210.5C 194.5,250.5 194.5,290.5 194.5,330.5C 193.501,290.337 193.168,250.003 193.5,209.5C 234.167,209.5 274.833,209.5 315.5,209.5C 315.832,250.003 315.499,290.337 314.5,330.5 Z M 314.5,330.5 C 274.5,330.5 234.5,330.5 194.5,330.5C 194.5,290.5 194.5,250.5 194.5,210.5C 234.5,210.5 274.5,210.5 314.5,210.5C 314.5,250.5 314.5,290.5 314.5,330.5 Z"/></g>
<g><path style="opacity:0.91" fill="#aab0c3" d="M 209.5,262.5 C 211.404,262.738 212.738,263.738 213.5,265.5C 211.596,265.262 210.262,264.262 209.5,262.5 Z"/></g>
<g><path style="opacity:1" fill="#eeeff2" d="M 285.5,249.5 C 290.37,249.032 295.036,249.698 299.5,251.5C 303.813,257.088 303.146,261.922 297.5,266C 293.167,266.667 288.833,266.667 284.5,266C 277.777,260.024 278.11,254.524 285.5,249.5 Z"/></g>
<g><path style="opacity:1" fill="#f4f5f6" d="M 213.5,265.5 C 212.738,263.738 211.404,262.738 209.5,262.5C 207.43,256.811 209.096,252.644 214.5,250C 233.565,249.038 252.565,249.372 271.5,251C 274.318,254.338 275.151,258.171 274,262.5C 272.786,264.049 271.286,265.215 269.5,266C 250.662,266.829 231.995,266.662 213.5,265.5 Z"/></g>
<g><path style="opacity:0.929" fill="#c8ccd5" d="M 297.5,278.5 C 278.12,278.191 258.787,278.525 239.5,279.5C 239.611,278.883 239.944,278.383 240.5,278C 259.671,277.171 278.671,277.338 297.5,278.5 Z"/></g>
<g><path style="opacity:0.942" fill="#b0b5c3" d="M 81.5,278.5 C 113.833,278.5 146.167,278.5 178.5,278.5C 178.823,284.69 178.49,290.69 177.5,296.5C 177.5,290.833 177.5,285.167 177.5,279.5C 145.329,279.832 113.329,279.498 81.5,278.5 Z"/></g>
<g><path style="opacity:1" fill="#eff0f3" d="M 226.5,278.5 C 227.167,279.833 228.167,280.833 229.5,281.5C 232.546,290.167 229.212,294.501 219.5,294.5C 210.131,293.973 206.964,289.306 210,280.5C 210.903,279.299 212.069,278.465 213.5,278C 218.02,277.186 222.354,277.353 226.5,278.5 Z"/></g>
<g><path style="opacity:0.008" fill="#999cac" d="M 226.5,278.5 C 228.5,278.5 229.5,279.5 229.5,281.5C 228.167,280.833 227.167,279.833 226.5,278.5 Z"/></g>
<g><path style="opacity:1" fill="#f6f7f8" d="M 297.5,278.5 C 298.492,278.328 299.158,278.662 299.5,279.5C 299.427,281.027 300.094,282.027 301.5,282.5C 303.353,287.647 301.686,291.48 296.5,294C 278.093,294.819 259.76,294.652 241.5,293.5C 241.027,292.094 240.027,291.427 238.5,291.5C 237.028,289.883 236.361,287.883 236.5,285.5C 236.078,282.692 237.078,280.692 239.5,279.5C 258.787,278.525 278.12,278.191 297.5,278.5 Z"/></g>
<g><path style="opacity:0.671" fill="#a5afbd" d="M 299.5,279.5 C 300.906,279.973 301.573,280.973 301.5,282.5C 300.094,282.027 299.427,281.027 299.5,279.5 Z"/></g>
<g><path style="opacity:0.557" fill="#9fa4af" d="M 238.5,291.5 C 240.027,291.427 241.027,292.094 241.5,293.5C 239.973,293.573 238.973,292.906 238.5,291.5 Z"/></g>
<g><path style="opacity:0.462" fill="#a9b0bd" d="M 431.5,277.5 C 398.338,278.498 365.004,278.832 331.5,278.5C 331.5,284.167 331.5,289.833 331.5,295.5C 352.673,295.169 373.673,295.503 394.5,296.5C 373.167,296.5 351.833,296.5 330.5,296.5C 330.5,290.167 330.5,283.833 330.5,277.5C 364.167,277.5 397.833,277.5 431.5,277.5 Z"/></g>
<g><path style="opacity:0.541" fill="#9ea4ae" d="M 110.5,298.5 C 110.573,300.027 109.906,301.027 108.5,301.5C 108.427,299.973 109.094,298.973 110.5,298.5 Z"/></g>
<g><path style="opacity:0.529" fill="#a2a8b1" d="M 402.5,306.5 C 403.906,306.973 404.573,307.973 404.5,309.5C 403.094,309.027 402.427,308.027 402.5,306.5 Z"/></g>
<g><path style="opacity:0.941" fill="#b2b7c4" d="M 121.5,313.5 C 140.326,312.503 159.326,312.17 178.5,312.5C 178.5,322.5 178.5,332.5 178.5,342.5C 177.506,333.014 177.173,323.348 177.5,313.5C 158.833,313.5 140.167,313.5 121.5,313.5 Z"/></g>
<g><path style="opacity:0.69" fill="#b6bcc7" d="M 387.5,312.5 C 368.833,312.5 350.167,312.5 331.5,312.5C 331.827,322.348 331.494,332.014 330.5,341.5C 330.5,331.5 330.5,321.5 330.5,311.5C 349.674,311.17 368.674,311.503 387.5,312.5 Z"/></g>
<g><path style="opacity:0.922" fill="#c0c6cf" d="M 223.5,347.5 C 228.64,346.512 233.974,346.179 239.5,346.5C 239.83,362.675 239.496,378.675 238.5,394.5C 238.5,378.833 238.5,363.167 238.5,347.5C 233.5,347.5 228.5,347.5 223.5,347.5 Z"/></g>
<g><path style="opacity:0.486" fill="#a2aab8" d="M 268.5,410.5 C 268.5,389.5 268.5,368.5 268.5,347.5C 264.167,347.5 259.833,347.5 255.5,347.5C 255.83,366.008 255.497,384.341 254.5,402.5C 254.5,383.833 254.5,365.167 254.5,346.5C 259.5,346.5 264.5,346.5 269.5,346.5C 269.831,368.007 269.497,389.34 268.5,410.5 Z"/></g>
<g><path style="opacity:0.804" fill="#b0b6c3" d="M 295.5,427.5 C 296.491,400.908 296.824,374.241 296.5,347.5C 292.833,347.5 289.167,347.5 285.5,347.5C 285.831,371.339 285.498,395.006 284.5,418.5C 284.5,394.5 284.5,370.5 284.5,346.5C 288.833,346.5 293.167,346.5 297.5,346.5C 298.158,373.854 297.491,400.854 295.5,427.5 Z"/></g>
<g><path style="opacity:0.69" fill="#a6aebb" d="M 325.5,346.5 C 321.702,347.483 317.702,347.817 313.5,347.5C 313.831,377.005 313.498,406.338 312.5,435.5C 312.5,405.833 312.5,376.167 312.5,346.5C 316.833,346.5 321.167,346.5 325.5,346.5 Z"/></g>
<g><path style="opacity:0.514" fill="#a1a7b1" d="M 428.5,357.5 C 429.906,357.973 430.573,358.973 430.5,360.5C 429.094,360.027 428.427,359.027 428.5,357.5 Z"/></g>
<g><path style="opacity:1" fill="#c0c4ce" d="M 84.5,370.5 C 82.4777,372.693 79.8111,373.693 76.5,373.5C 78.9791,372.205 81.6458,371.205 84.5,370.5 Z"/></g>
<g><path style="opacity:0.745" fill="#aeb3c0" d="M 447.5,378.5 C 448.973,381.017 449.64,383.85 449.5,387C 449.494,389.033 449.161,390.866 448.5,392.5C 448.563,387.797 448.229,383.13 447.5,378.5 Z"/></g>
<g><path style="opacity:0.804" fill="#b3b9c6" d="M 164.5,395.5 C 164.195,404.917 164.528,414.25 165.5,423.5C 164.173,419.217 163.507,414.551 163.5,409.5C 163.501,404.654 163.834,399.988 164.5,395.5 Z"/></g>
<g><path style="opacity:0.98" fill="#afb3c9" d="M 81.5,395.5 C 82.7095,395.932 83.7095,396.599 84.5,397.5C 82.8212,397.715 81.8212,397.048 81.5,395.5 Z"/></g>
<g><path style="opacity:0.039" fill="#96a5a8" d="M 444.5,400.5 C 444.167,402.833 442.833,404.167 440.5,404.5C 441.5,402.833 442.833,401.5 444.5,400.5 Z"/></g>
<g><path style="opacity:0.055" fill="#9aa3bb" d="M 253.5,404.5 C 253.573,406.027 252.906,407.027 251.5,407.5C 251.427,405.973 252.094,404.973 253.5,404.5 Z"/></g>
<g><path style="opacity:0.008" fill="#9d9eb1" d="M 68.5,405.5 C 70.1667,406.5 71.5,407.833 72.5,409.5C 70.1667,409.167 68.8333,407.833 68.5,405.5 Z"/></g>
<g><path style="opacity:0.541" fill="#a5adba" d="M 221.5,419.5 C 220.517,434.755 220.183,450.089 220.5,465.5C 224.833,465.5 229.167,465.5 233.5,465.5C 233.171,452.323 233.505,439.323 234.5,426.5C 234.5,439.833 234.5,453.167 234.5,466.5C 229.5,466.5 224.5,466.5 219.5,466.5C 218.849,450.464 219.516,434.798 221.5,419.5 Z"/></g>
<g><path style="opacity:0.757" fill="#a3a5bb" d="M 170.5,426.5 C 171.906,426.973 172.573,427.973 172.5,429.5C 171.094,429.027 170.427,428.027 170.5,426.5 Z"/></g>
<g><path style="opacity:0.639" fill="#a7aebb" d="M 250.5,435.5 C 250.5,445.5 250.5,455.5 250.5,465.5C 254.167,465.5 257.833,465.5 261.5,465.5C 261.175,457.981 261.508,450.648 262.5,443.5C 262.5,451.167 262.5,458.833 262.5,466.5C 258.167,466.5 253.833,466.5 249.5,466.5C 249.172,455.986 249.506,445.653 250.5,435.5 Z"/></g>
<g><path style="opacity:0.773" fill="#a8acbe" d="M 84.5,439.5 C 85.9063,439.973 86.573,440.973 86.5,442.5C 85.0937,442.027 84.427,441.027 84.5,439.5 Z"/></g>
<g><path style="opacity:0.592" fill="#a4a8b2" d="M 419.5,446.5 C 419.573,448.027 418.906,449.027 417.5,449.5C 417.427,447.973 418.094,446.973 419.5,446.5 Z"/></g>
<g><path style="opacity:0.557" fill="#a8afbc" d="M 204.5,410.5 C 204.5,429.167 204.5,447.833 204.5,466.5C 168.329,466.832 132.329,466.498 96.5,465.5C 132.167,465.5 167.833,465.5 203.5,465.5C 203.17,446.992 203.503,428.659 204.5,410.5 Z"/></g>
<g><path style="opacity:0.557" fill="#a1a8b6" d="M 278.5,452.5 C 278.5,456.833 278.5,461.167 278.5,465.5C 323.167,465.5 367.833,465.5 412.5,465.5C 367.67,466.499 322.67,466.832 277.5,466.5C 277.181,461.637 277.514,456.97 278.5,452.5 Z"/></g>
<g><path style="opacity:0.008" fill="#9499a1" d="M 426.5,478.5 C 426.5,480.5 425.5,481.5 423.5,481.5C 424.167,480.167 425.167,479.167 426.5,478.5 Z"/></g>
</svg>
