<?xml version="1.0" encoding="UTF-8"?>
<!DOCTYPE svg PUBLIC "-//W3C//DTD SVG 1.1//EN" "http://www.w3.org/Graphics/SVG/1.1/DTD/svg11.dtd">
<svg xmlns="http://www.w3.org/2000/svg" version="1.1" width="512px" height="512px" style="shape-rendering:geometricPrecision; text-rendering:geometricPrecision; image-rendering:optimizeQuality; fill-rule:evenodd; clip-rule:evenodd" xmlns:xlink="http://www.w3.org/1999/xlink">
<g><path style="opacity:1" fill="#fefefe" d="M 508.5,38.5 C 508.427,40.0269 509.094,41.0269 510.5,41.5C 510.833,41.5 511.167,41.5 511.5,41.5C 511.5,102.833 511.5,164.167 511.5,225.5C 506.663,230.768 501.829,230.768 497,225.5C 496.5,182.835 496.333,140.168 496.5,97.5C 422.166,97.6667 347.833,97.5 273.5,97C 270.634,95.6071 269.301,93.2738 269.5,90C 269.301,86.7262 270.634,84.3929 273.5,83C 347.833,82.5 422.166,82.3333 496.5,82.5C 496.5,71.5 496.5,60.5 496.5,49.5C 335.833,49.5 175.167,49.5 14.5,49.5C 14.5,60.5 14.5,71.5 14.5,82.5C 91.6685,82.1674 168.668,82.5007 245.5,83.5C 246.167,84.8333 247.167,85.8333 248.5,86.5C 249.833,88.8333 249.833,91.1667 248.5,93.5C 247.167,94.1667 246.167,95.1667 245.5,96.5C 168.668,97.4993 91.6685,97.8326 14.5,97.5C 14.5,191.5 14.5,285.5 14.5,379.5C 46.5017,379.333 78.5017,379.5 110.5,380C 115.833,384.667 115.833,389.333 110.5,394C 75.6642,394.831 40.9976,394.664 6.5,393.5C 6.02694,392.094 5.02694,391.427 3.5,391.5C 1.80584,390.473 0.472504,389.139 -0.5,387.5C -0.5,272.167 -0.5,156.833 -0.5,41.5C -0.166667,41.5 0.166667,41.5 0.5,41.5C 2.26242,40.7377 3.26242,39.4044 3.5,37.5C 5.02694,37.573 6.02694,36.9063 6.5,35.5C 172.333,34.3338 338.333,34.1672 504.5,35C 506.324,35.66 507.657,36.8267 508.5,38.5 Z M 252.5,125.5 C 257.909,124.871 261.243,127.204 262.5,132.5C 259.347,140.363 254.847,141.363 249,135.5C 247.755,131.235 248.922,127.902 252.5,125.5 Z M 270.5,151.5 C 270.973,152.906 271.973,153.573 273.5,153.5C 273.842,154.338 274.508,154.672 275.5,154.5C 275.973,155.906 276.973,156.573 278.5,156.5C 278.973,157.906 279.973,158.573 281.5,158.5C 281.842,159.338 282.508,159.672 283.5,159.5C 283.973,160.906 284.973,161.573 286.5,161.5C 286.973,162.906 287.973,163.573 289.5,163.5C 289.842,164.338 290.508,164.672 291.5,164.5C 291.973,165.906 292.973,166.573 294.5,166.5C 294.973,167.906 295.973,168.573 297.5,168.5C 297.973,169.906 298.973,170.573 300.5,170.5C 300.842,171.338 301.508,171.672 302.5,171.5C 302.973,172.906 303.973,173.573 305.5,173.5C 305.973,174.906 306.973,175.573 308.5,175.5C 308.842,176.338 309.508,176.672 310.5,176.5C 310.973,177.906 311.973,178.573 313.5,178.5C 314.355,179.531 315.022,180.697 315.5,182C 314.245,183.887 314.245,185.72 315.5,187.5C 315.267,189.062 314.6,190.395 313.5,191.5C 311.566,192.11 309.899,193.11 308.5,194.5C 306.973,194.427 305.973,195.094 305.5,196.5C 303.973,196.427 302.973,197.094 302.5,198.5C 301.508,198.328 300.842,198.662 300.5,199.5C 298.973,199.427 297.973,200.094 297.5,201.5C 295.973,201.427 294.973,202.094 294.5,203.5C 293.508,203.328 292.842,203.662 292.5,204.5C 290.973,204.427 289.973,205.094 289.5,206.5C 287.973,206.427 286.973,207.094 286.5,208.5C 284.566,209.11 282.899,210.11 281.5,211.5C 279.973,211.427 278.973,212.094 278.5,213.5C 276.566,214.11 274.899,215.11 273.5,216.5C 271.973,216.427 270.973,217.094 270.5,218.5C 269.391,218.443 268.391,218.11 267.5,217.5C 258.413,212.168 249.413,212.501 240.5,218.5C 238.275,216.89 235.941,215.557 233.5,214.5C 232.564,213.026 231.23,212.026 229.5,211.5C 226.869,209.847 224.203,208.181 221.5,206.5C 220.71,205.599 219.71,204.932 218.5,204.5C 215.434,202.11 212.1,200.11 208.5,198.5C 207.564,197.026 206.23,196.026 204.5,195.5C 202.302,193.902 199.969,192.569 197.5,191.5C 196.4,190.395 195.733,189.062 195.5,187.5C 196.755,185.72 196.755,183.887 195.5,182C 195.759,180.739 196.426,179.739 197.5,179C 212.034,169.635 226.7,160.469 241.5,151.5C 245.806,154.077 250.473,155.41 255.5,155.5C 260.741,154.973 265.741,153.64 270.5,151.5 Z M 166.5,181.5 C 167.833,180.833 168.833,179.833 169.5,178.5C 177.726,177.223 180.892,180.556 179,188.5C 175.888,191.723 172.388,192.223 168.5,190C 166.821,187.435 166.154,184.602 166.5,181.5 Z M 341.5,178.5 C 342.167,179.833 343.167,180.833 344.5,181.5C 345.189,190.146 341.522,192.979 333.5,190C 330.313,187.039 329.98,183.873 332.5,180.5C 335.104,177.737 338.104,177.07 341.5,178.5 Z"/></g>
<g><path style="opacity:0.965" fill="#aeaeae" d="M 6.5,35.5 C 6.02694,36.9063 5.02694,37.573 3.5,37.5C 3.97306,36.0937 4.97306,35.427 6.5,35.5 Z"/></g>
<g><path style="opacity:0.992" fill="#b4b4b4" d="M 3.5,37.5 C 3.26242,39.4044 2.26242,40.7377 0.5,41.5C 0.737579,39.5956 1.73758,38.2623 3.5,37.5 Z"/></g>
<g><path style="opacity:0.635" fill="#a1a1a1" d="M 508.5,38.5 C 509.906,38.9731 510.573,39.9731 510.5,41.5C 509.094,41.0269 508.427,40.0269 508.5,38.5 Z"/></g>
<g><path style="opacity:1" fill="#eeeeee" d="M 42.5,72.5 C 42.1667,71.5 41.5,70.8333 40.5,70.5C 37.8909,67.3133 37.8909,63.9799 40.5,60.5C 43.549,58.534 46.8823,58.034 50.5,59C 55.8333,63.6667 55.8333,68.3333 50.5,73C 47.633,73.8007 44.9664,73.6341 42.5,72.5 Z"/></g>
<g><path style="opacity:1" fill="#eeeeee" d="M 72.5,72.5 C 72.1667,71.5 71.5,70.8333 70.5,70.5C 67.8909,67.3133 67.8909,63.9799 70.5,60.5C 73.549,58.534 76.8823,58.034 80.5,59C 85.8333,63.6667 85.8333,68.3333 80.5,73C 77.633,73.8007 74.9664,73.6341 72.5,72.5 Z"/></g>
<g><path style="opacity:1" fill="#eeeeee" d="M 102.5,72.5 C 102.167,71.5 101.5,70.8333 100.5,70.5C 97.8909,67.3133 97.8909,63.9799 100.5,60.5C 103.549,58.534 106.882,58.034 110.5,59C 115.833,63.6667 115.833,68.3333 110.5,73C 107.633,73.8007 104.966,73.6341 102.5,72.5 Z"/></g>
<g><path style="opacity:0.008" fill="#969696" d="M 40.5,70.5 C 41.5,70.8333 42.1667,71.5 42.5,72.5C 41.1667,72.5 40.5,71.8333 40.5,70.5 Z"/></g>
<g><path style="opacity:0.008" fill="#969696" d="M 70.5,70.5 C 71.5,70.8333 72.1667,71.5 72.5,72.5C 71.1667,72.5 70.5,71.8333 70.5,70.5 Z"/></g>
<g><path style="opacity:0.008" fill="#969696" d="M 100.5,70.5 C 101.5,70.8333 102.167,71.5 102.5,72.5C 101.167,72.5 100.5,71.8333 100.5,70.5 Z"/></g>
<g><path style="opacity:0.055" fill="#9a9a9a" d="M 245.5,83.5 C 247.5,83.5 248.5,84.5 248.5,86.5C 247.167,85.8333 246.167,84.8333 245.5,83.5 Z"/></g>
<g><path style="opacity:0.024" fill="#929292" d="M 248.5,93.5 C 248.5,95.5 247.5,96.5 245.5,96.5C 246.167,95.1667 247.167,94.1667 248.5,93.5 Z"/></g>
<g><path style="opacity:1" fill="#f7f7f7" d="M 271.5,116.5 C 271.427,118.027 272.094,119.027 273.5,119.5C 273.427,121.027 274.094,122.027 275.5,122.5C 278.068,127.176 278.901,132.176 278,137.5C 283.341,140.696 288.508,144.03 293.5,147.5C 294.035,149.446 295.368,150.446 297.5,150.5C 306.637,155.57 315.637,160.903 324.5,166.5C 326.027,166.573 327.027,165.906 327.5,164.5C 335.099,160.461 342.766,160.628 350.5,165C 351.381,165.708 352.047,166.542 352.5,167.5C 353.167,168.833 354.167,169.833 355.5,170.5C 357.474,172.428 358.974,174.761 360,177.5C 362.774,189.193 359.274,198.36 349.5,205C 348.552,205.483 347.552,205.649 346.5,205.5C 346.5,227.5 346.5,249.5 346.5,271.5C 349.803,272.151 352.47,273.818 354.5,276.5C 354.427,278.027 355.094,279.027 356.5,279.5C 356.427,281.027 357.094,282.027 358.5,282.5C 359.268,283.263 359.768,284.263 360,285.5C 360.667,290.167 360.667,294.833 360,299.5C 358.884,302.756 357.051,305.422 354.5,307.5C 353.5,307.833 352.833,308.5 352.5,309.5C 351.657,311.173 350.324,312.34 348.5,313C 340.246,316.635 332.246,316.135 324.5,311.5C 308.833,321.333 293.167,331.167 277.5,341C 278.809,356.837 271.475,365.671 255.5,367.5C 251.421,367.566 247.755,366.566 244.5,364.5C 244.027,363.094 243.027,362.427 241.5,362.5C 240.5,360.833 239.167,359.5 237.5,358.5C 235.526,356.572 234.026,354.239 233,351.5C 232.767,347.415 232.267,343.415 231.5,339.5C 231.027,338.094 230.027,337.427 228.5,337.5C 228.027,336.094 227.027,335.427 225.5,335.5C 224.508,335.672 223.842,335.338 223.5,334.5C 223.027,333.094 222.027,332.427 220.5,332.5C 220.027,331.094 219.027,330.427 217.5,330.5C 217.027,329.094 216.027,328.427 214.5,328.5C 213.508,328.672 212.842,328.338 212.5,327.5C 212.027,326.094 211.027,325.427 209.5,325.5C 209.027,324.094 208.027,323.427 206.5,323.5C 206.027,322.094 205.027,321.427 203.5,321.5C 202.508,321.672 201.842,321.338 201.5,320.5C 201.027,319.094 200.027,318.427 198.5,318.5C 198.027,317.094 197.027,316.427 195.5,316.5C 195.027,315.094 194.027,314.427 192.5,314.5C 191.508,314.672 190.842,314.338 190.5,313.5C 190.027,312.094 189.027,311.427 187.5,311.5C 183.022,313.436 178.356,314.77 173.5,315.5C 169.511,315.255 165.844,314.255 162.5,312.5C 161.738,310.738 160.404,309.738 158.5,309.5C 158.167,308.5 157.5,307.833 156.5,307.5C 153.949,305.422 152.116,302.756 151,299.5C 150.333,294.833 150.333,290.167 151,285.5C 151.232,284.263 151.732,283.263 152.5,282.5C 153.906,282.027 154.573,281.027 154.5,279.5C 155.906,279.027 156.573,278.027 156.5,276.5C 158.404,276.262 159.738,275.262 160.5,273.5C 162.027,273.573 163.027,272.906 163.5,271.5C 163.833,271.5 164.167,271.5 164.5,271.5C 165.832,260.854 166.499,249.854 166.5,238.5C 166.499,227.146 165.832,216.146 164.5,205.5C 162.847,205.34 161.514,204.674 160.5,203.5C 159.415,201.413 157.749,200.08 155.5,199.5C 153.254,197.351 151.754,194.684 151,191.5C 150.333,186.833 150.333,182.167 151,177.5C 151.608,175.934 152.442,174.6 153.5,173.5C 154.906,173.027 155.573,172.027 155.5,170.5C 156.833,169.833 157.833,168.833 158.5,167.5C 158.5,166.833 158.833,166.5 159.5,166.5C 161.027,166.573 162.027,165.906 162.5,164.5C 170.988,160.126 179.154,160.793 187,166.5C 187.671,165.748 188.504,165.414 189.5,165.5C 191.027,165.573 192.027,164.906 192.5,163.5C 193.899,162.11 195.566,161.11 197.5,160.5C 199.027,160.573 200.027,159.906 200.5,158.5C 202.027,158.573 203.027,157.906 203.5,156.5C 204.899,155.11 206.566,154.11 208.5,153.5C 210.027,153.573 211.027,152.906 211.5,151.5C 213.027,151.573 214.027,150.906 214.5,149.5C 215.899,148.11 217.566,147.11 219.5,146.5C 221.027,146.573 222.027,145.906 222.5,144.5C 224.027,144.573 225.027,143.906 225.5,142.5C 227.027,142.573 228.027,141.906 228.5,140.5C 228.842,139.662 229.508,139.328 230.5,139.5C 231.496,139.586 232.329,139.252 233,138.5C 233.499,134.179 233.666,129.846 233.5,125.5C 233.263,124.209 233.596,123.209 234.5,122.5C 235.906,122.027 236.573,121.027 236.5,119.5C 236.5,118.833 236.833,118.5 237.5,118.5C 239.167,117.5 240.5,116.167 241.5,114.5C 245.207,110.983 249.707,109.316 255,109.5C 261.567,109.539 267.067,111.872 271.5,116.5 Z M 252.5,125.5 C 248.922,127.902 247.755,131.235 249,135.5C 254.847,141.363 259.347,140.363 262.5,132.5C 261.243,127.204 257.909,124.871 252.5,125.5 Z M 270.5,151.5 C 270.973,152.906 271.973,153.573 273.5,153.5C 273.842,154.338 274.508,154.672 275.5,154.5C 275.973,155.906 276.973,156.573 278.5,156.5C 278.973,157.906 279.973,158.573 281.5,158.5C 281.842,159.338 282.508,159.672 283.5,159.5C 283.973,160.906 284.973,161.573 286.5,161.5C 286.973,162.906 287.973,163.573 289.5,163.5C 289.842,164.338 290.508,164.672 291.5,164.5C 291.973,165.906 292.973,166.573 294.5,166.5C 294.973,167.906 295.973,168.573 297.5,168.5C 297.973,169.906 298.973,170.573 300.5,170.5C 300.842,171.338 301.508,171.672 302.5,171.5C 302.973,172.906 303.973,173.573 305.5,173.5C 305.973,174.906 306.973,175.573 308.5,175.5C 308.842,176.338 309.508,176.672 310.5,176.5C 310.973,177.906 311.973,178.573 313.5,178.5C 314.355,179.531 315.022,180.697 315.5,182C 314.245,183.887 314.245,185.72 315.5,187.5C 315.267,189.062 314.6,190.395 313.5,191.5C 311.566,192.11 309.899,193.11 308.5,194.5C 306.973,194.427 305.973,195.094 305.5,196.5C 303.973,196.427 302.973,197.094 302.5,198.5C 301.508,198.328 300.842,198.662 300.5,199.5C 298.973,199.427 297.973,200.094 297.5,201.5C 295.973,201.427 294.973,202.094 294.5,203.5C 293.508,203.328 292.842,203.662 292.5,204.5C 290.973,204.427 289.973,205.094 289.5,206.5C 287.973,206.427 286.973,207.094 286.5,208.5C 284.566,209.11 282.899,210.11 281.5,211.5C 279.973,211.427 278.973,212.094 278.5,213.5C 276.566,214.11 274.899,215.11 273.5,216.5C 271.973,216.427 270.973,217.094 270.5,218.5C 269.391,218.443 268.391,218.11 267.5,217.5C 258.413,212.168 249.413,212.501 240.5,218.5C 238.275,216.89 235.941,215.557 233.5,214.5C 232.564,213.026 231.23,212.026 229.5,211.5C 226.869,209.847 224.203,208.181 221.5,206.5C 220.71,205.599 219.71,204.932 218.5,204.5C 215.434,202.11 212.1,200.11 208.5,198.5C 207.564,197.026 206.23,196.026 204.5,195.5C 202.302,193.902 199.969,192.569 197.5,191.5C 196.4,190.395 195.733,189.062 195.5,187.5C 196.755,185.72 196.755,183.887 195.5,182C 195.759,180.739 196.426,179.739 197.5,179C 212.034,169.635 226.7,160.469 241.5,151.5C 245.806,154.077 250.473,155.41 255.5,155.5C 260.741,154.973 265.741,153.64 270.5,151.5 Z M 166.5,181.5 C 167.833,180.833 168.833,179.833 169.5,178.5C 177.726,177.223 180.892,180.556 179,188.5C 175.888,191.723 172.388,192.223 168.5,190C 166.821,187.435 166.154,184.602 166.5,181.5 Z M 341.5,178.5 C 342.167,179.833 343.167,180.833 344.5,181.5C 345.189,190.146 341.522,192.979 333.5,190C 330.313,187.039 329.98,183.873 332.5,180.5C 335.104,177.737 338.104,177.07 341.5,178.5 Z M 189.5,204.5 C 189.973,205.906 190.973,206.573 192.5,206.5C 192.842,207.338 193.508,207.672 194.5,207.5C 194.973,208.906 195.973,209.573 197.5,209.5C 197.973,210.906 198.973,211.573 200.5,211.5C 200.973,212.906 201.973,213.573 203.5,213.5C 203.973,214.906 204.973,215.573 206.5,215.5C 206.842,216.338 207.508,216.672 208.5,216.5C 208.973,217.906 209.973,218.573 211.5,218.5C 211.973,219.906 212.973,220.573 214.5,220.5C 214.973,221.906 215.973,222.573 217.5,222.5C 217.842,223.338 218.508,223.672 219.5,223.5C 219.973,224.906 220.973,225.573 222.5,225.5C 222.973,226.906 223.973,227.573 225.5,227.5C 225.973,228.906 226.973,229.573 228.5,229.5C 228.842,230.338 229.508,230.672 230.5,230.5C 230.783,231.289 231.283,231.956 232,232.5C 232.177,236.356 232.677,240.023 233.5,243.5C 234.272,247.598 236.272,250.931 239.5,253.5C 239.973,254.906 240.973,255.573 242.5,255.5C 242.973,256.906 243.973,257.573 245.5,257.5C 245.842,258.338 246.508,258.672 247.5,258.5C 247.822,280.242 247.488,301.909 246.5,323.5C 244.243,323.962 242.243,324.962 240.5,326.5C 236.466,324.112 232.466,321.778 228.5,319.5C 227.564,318.026 226.23,317.026 224.5,316.5C 218.806,312.32 212.806,308.654 206.5,305.5C 205.564,304.026 204.23,303.026 202.5,302.5C 200.565,301.19 198.565,299.857 196.5,298.5C 195.294,296.516 195.294,294.516 196.5,292.5C 195.919,288.929 194.919,285.596 193.5,282.5C 193.573,280.973 192.906,279.973 191.5,279.5C 191.573,277.973 190.906,276.973 189.5,276.5C 187.47,273.818 184.803,272.151 181.5,271.5C 181.5,249.5 181.5,227.5 181.5,205.5C 183.484,205.617 185.15,204.95 186.5,203.5C 187.417,204.127 188.417,204.461 189.5,204.5 Z M 325.5,203.5 C 325.973,204.906 326.973,205.573 328.5,205.5C 329.117,205.611 329.617,205.944 330,206.5C 330.667,227.833 330.667,249.167 330,270.5C 329.617,271.056 329.117,271.389 328.5,271.5C 326.973,271.427 325.973,272.094 325.5,273.5C 323.596,273.738 322.262,274.738 321.5,276.5C 320.094,276.973 319.427,277.973 319.5,279.5C 318.094,279.973 317.427,280.973 317.5,282.5C 315.374,286.76 314.707,291.26 315.5,296C 314.348,298.318 312.681,300.151 310.5,301.5C 308.973,301.427 307.973,302.094 307.5,303.5C 305.566,304.11 303.899,305.11 302.5,306.5C 300.973,306.427 299.973,307.094 299.5,308.5C 297.973,308.427 296.973,309.094 296.5,310.5C 295.508,310.328 294.842,310.662 294.5,311.5C 292.973,311.427 291.973,312.094 291.5,313.5C 289.973,313.427 288.973,314.094 288.5,315.5C 286.566,316.11 284.899,317.11 283.5,318.5C 281.973,318.427 280.973,319.094 280.5,320.5C 278.973,320.427 277.973,321.094 277.5,322.5C 276.508,322.328 275.842,322.662 275.5,323.5C 273.973,323.427 272.973,324.094 272.5,325.5C 271.508,325.328 270.842,325.662 270.5,326.5C 269.609,325.89 268.609,325.557 267.5,325.5C 266.486,324.326 265.153,323.66 263.5,323.5C 263.178,301.425 263.511,279.425 264.5,257.5C 270.487,255.012 274.653,250.678 277,244.5C 277.971,240.208 278.471,236.042 278.5,232C 293.89,221.975 309.556,212.475 325.5,203.5 Z M 258.5,230.5 C 259.167,231.833 260.167,232.833 261.5,233.5C 262.415,242.076 258.748,244.909 250.5,242C 246.813,235.944 248.313,231.778 255,229.5C 256.138,229.989 257.305,230.322 258.5,230.5 Z M 169.5,298.5 C 168.833,297.167 167.833,296.167 166.5,295.5C 165.811,286.854 169.478,284.021 177.5,287C 180.687,289.961 181.02,293.127 178.5,296.5C 175.896,299.263 172.896,299.93 169.5,298.5 Z M 344.5,295.5 C 343.167,296.167 342.167,297.167 341.5,298.5C 333.274,299.777 330.108,296.444 332,288.5C 335.112,285.277 338.612,284.777 342.5,287C 344.179,289.565 344.846,292.398 344.5,295.5 Z M 252.5,337.5 C 261.388,337.723 263.888,341.723 260,349.5C 255.63,352.559 251.963,351.892 249,347.5C 247.756,343.191 248.923,339.858 252.5,337.5 Z"/></g>
<g><path style="opacity:0.886" fill="#aaaaaa" d="M 241.5,114.5 C 240.5,116.167 239.167,117.5 237.5,118.5C 237.833,116.167 239.167,114.833 241.5,114.5 Z"/></g>
<g><path style="opacity:0.816" fill="#a7a7a7" d="M 271.5,116.5 C 272.906,116.973 273.573,117.973 273.5,119.5C 272.094,119.027 271.427,118.027 271.5,116.5 Z"/></g>
<g><path style="opacity:0.565" fill="#9d9d9d" d="M 236.5,119.5 C 236.573,121.027 235.906,122.027 234.5,122.5C 234.427,120.973 235.094,119.973 236.5,119.5 Z"/></g>
<g><path style="opacity:0.749" fill="#acacac" d="M 273.5,119.5 C 274.906,119.973 275.573,120.973 275.5,122.5C 274.094,122.027 273.427,121.027 273.5,119.5 Z"/></g>
<g><path style="opacity:0.994" fill="#c9c9c9" d="M 233.5,125.5 C 233.666,129.846 233.499,134.179 233,138.5C 232.329,139.252 231.496,139.586 230.5,139.5C 230.783,138.711 231.283,138.044 232,137.5C 232.176,133.312 232.676,129.312 233.5,125.5 Z"/></g>
<g><path style="opacity:1" fill="#f9f9f9" d="M 74.5,136.5 C 74.8333,137.5 75.5,138.167 76.5,138.5C 78.0265,139.492 78.6932,140.992 78.5,143C 78.6932,145.008 78.0265,146.508 76.5,147.5C 75.5,147.833 74.8333,148.5 74.5,149.5C 63.8333,150.833 53.1667,150.833 42.5,149.5C 42.1667,148.5 41.5,147.833 40.5,147.5C 38.9735,146.508 38.3068,145.008 38.5,143C 38.3068,140.992 38.9735,139.492 40.5,138.5C 41.5,138.167 42.1667,137.5 42.5,136.5C 53.1667,135.167 63.8333,135.167 74.5,136.5 Z"/></g>
<g><path style="opacity:1" fill="#f9f9f9" d="M 468.5,136.5 C 468.833,137.5 469.5,138.167 470.5,138.5C 472.026,139.492 472.693,140.992 472.5,143C 472.693,145.008 472.026,146.508 470.5,147.5C 469.5,147.833 468.833,148.5 468.5,149.5C 457.833,150.833 447.167,150.833 436.5,149.5C 436.167,148.5 435.5,147.833 434.5,147.5C 432.974,146.508 432.307,145.008 432.5,143C 432.307,140.992 432.974,139.492 434.5,138.5C 435.5,138.167 436.167,137.5 436.5,136.5C 447.167,135.167 457.833,135.167 468.5,136.5 Z"/></g>
<g><path style="opacity:0.749" fill="#a2a2a2" d="M 42.5,136.5 C 42.1667,137.5 41.5,138.167 40.5,138.5C 40.5,137.167 41.1667,136.5 42.5,136.5 Z"/></g>
<g><path style="opacity:0.008" fill="#969696" d="M 74.5,136.5 C 75.8333,136.5 76.5,137.167 76.5,138.5C 75.5,138.167 74.8333,137.5 74.5,136.5 Z"/></g>
<g><path style="opacity:0.749" fill="#a2a2a2" d="M 436.5,136.5 C 436.167,137.5 435.5,138.167 434.5,138.5C 434.5,137.167 435.167,136.5 436.5,136.5 Z"/></g>
<g><path style="opacity:0.008" fill="#969696" d="M 468.5,136.5 C 469.833,136.5 470.5,137.167 470.5,138.5C 469.5,138.167 468.833,137.5 468.5,136.5 Z"/></g>
<g><path style="opacity:0.929" fill="#a8a8a8" d="M 228.5,140.5 C 228.027,141.906 227.027,142.573 225.5,142.5C 225.973,141.094 226.973,140.427 228.5,140.5 Z"/></g>
<g><path style="opacity:0.961" fill="#b0b0b0" d="M 225.5,142.5 C 225.027,143.906 224.027,144.573 222.5,144.5C 222.973,143.094 223.973,142.427 225.5,142.5 Z"/></g>
<g><path style="opacity:0.984" fill="#bababa" d="M 222.5,144.5 C 222.027,145.906 221.027,146.573 219.5,146.5C 219.973,145.094 220.973,144.427 222.5,144.5 Z"/></g>
<g><path style="opacity:0.008" fill="#979797" d="M 40.5,147.5 C 41.5,147.833 42.1667,148.5 42.5,149.5C 41.1667,149.5 40.5,148.833 40.5,147.5 Z"/></g>
<g><path style="opacity:0.008" fill="#969696" d="M 76.5,147.5 C 76.5,148.833 75.8333,149.5 74.5,149.5C 74.8333,148.5 75.5,147.833 76.5,147.5 Z"/></g>
<g><path style="opacity:1" fill="#b7b7b7" d="M 293.5,147.5 C 295.23,148.026 296.564,149.026 297.5,150.5C 295.368,150.446 294.035,149.446 293.5,147.5 Z"/></g>
<g><path style="opacity:0.008" fill="#979797" d="M 434.5,147.5 C 435.5,147.833 436.167,148.5 436.5,149.5C 435.167,149.5 434.5,148.833 434.5,147.5 Z"/></g>
<g><path style="opacity:0.008" fill="#969696" d="M 470.5,147.5 C 470.5,148.833 469.833,149.5 468.5,149.5C 468.833,148.5 469.5,147.833 470.5,147.5 Z"/></g>
<g><path style="opacity:0.957" fill="#b0b0b0" d="M 214.5,149.5 C 214.027,150.906 213.027,151.573 211.5,151.5C 211.973,150.094 212.973,149.427 214.5,149.5 Z"/></g>
<g><path style="opacity:0.984" fill="#bababa" d="M 211.5,151.5 C 211.027,152.906 210.027,153.573 208.5,153.5C 208.973,152.094 209.973,151.427 211.5,151.5 Z"/></g>
<g><path style="opacity:0.635" fill="#9f9f9f" d="M 270.5,151.5 C 272.027,151.427 273.027,152.094 273.5,153.5C 271.973,153.573 270.973,152.906 270.5,151.5 Z"/></g>
<g><path style="opacity:0.753" fill="#aaaaaa" d="M 275.5,154.5 C 277.027,154.427 278.027,155.094 278.5,156.5C 276.973,156.573 275.973,155.906 275.5,154.5 Z"/></g>
<g><path style="opacity:0.957" fill="#aeaeae" d="M 203.5,156.5 C 203.027,157.906 202.027,158.573 200.5,158.5C 200.973,157.094 201.973,156.427 203.5,156.5 Z"/></g>
<g><path style="opacity:0.639" fill="#a1a1a1" d="M 278.5,156.5 C 280.027,156.427 281.027,157.094 281.5,158.5C 279.973,158.573 278.973,157.906 278.5,156.5 Z"/></g>
<g><path style="opacity:0.976" fill="#b6b6b6" d="M 200.5,158.5 C 200.027,159.906 199.027,160.573 197.5,160.5C 197.973,159.094 198.973,158.427 200.5,158.5 Z"/></g>
<g><path style="opacity:0.816" fill="#afafaf" d="M 283.5,159.5 C 285.027,159.427 286.027,160.094 286.5,161.5C 284.973,161.573 283.973,160.906 283.5,159.5 Z"/></g>
<g><path style="opacity:0.729" fill="#a6a6a6" d="M 286.5,161.5 C 288.027,161.427 289.027,162.094 289.5,163.5C 287.973,163.573 286.973,162.906 286.5,161.5 Z"/></g>
<g><path style="opacity:1" fill="#fbfbfb" d="M 42.5,163.5 C 59.17,163.333 75.8367,163.5 92.5,164C 97.8333,168.667 97.8333,173.333 92.5,178C 75.8367,178.5 59.17,178.667 42.5,178.5C 41.7377,176.738 40.4044,175.738 38.5,175.5C 37.5318,173.393 37.1984,171.059 37.5,168.5C 38.9063,168.027 39.573,167.027 39.5,165.5C 41.0269,165.573 42.0269,164.906 42.5,163.5 Z"/></g>
<g><path style="opacity:1" fill="#fbfbfb" d="M 420.5,163.5 C 437.342,163.17 454.008,163.503 470.5,164.5C 470.738,166.404 471.738,167.738 473.5,168.5C 474.186,172.287 473.186,175.454 470.5,178C 453.167,178.667 435.833,178.667 418.5,178C 413.72,174.008 413.387,169.841 417.5,165.5C 419.027,165.573 420.027,164.906 420.5,163.5 Z"/></g>
<g><path style="opacity:0.965" fill="#adadad" d="M 42.5,163.5 C 42.0269,164.906 41.0269,165.573 39.5,165.5C 39.9731,164.094 40.9731,163.427 42.5,163.5 Z"/></g>
<g><path style="opacity:0.957" fill="#afafaf" d="M 192.5,163.5 C 192.027,164.906 191.027,165.573 189.5,165.5C 189.973,164.094 190.973,163.427 192.5,163.5 Z"/></g>
<g><path style="opacity:0.992" fill="#bbbbbb" d="M 420.5,163.5 C 420.027,164.906 419.027,165.573 417.5,165.5C 417.973,164.094 418.973,163.427 420.5,163.5 Z"/></g>
<g><path style="opacity:0.969" fill="#b2b2b2" d="M 162.5,164.5 C 162.027,165.906 161.027,166.573 159.5,166.5C 159.973,165.094 160.973,164.427 162.5,164.5 Z"/></g>
<g><path style="opacity:0.863" fill="#b5b5b5" d="M 291.5,164.5 C 293.027,164.427 294.027,165.094 294.5,166.5C 292.973,166.573 291.973,165.906 291.5,164.5 Z"/></g>
<g><path style="opacity:0.98" fill="#b6b6b6" d="M 327.5,164.5 C 327.027,165.906 326.027,166.573 324.5,166.5C 324.973,165.094 325.973,164.427 327.5,164.5 Z"/></g>
<g><path style="opacity:0.992" fill="#b3b3b3" d="M 470.5,164.5 C 472.262,165.262 473.262,166.596 473.5,168.5C 471.738,167.738 470.738,166.404 470.5,164.5 Z"/></g>
<g><path style="opacity:0.596" fill="#a0a0a0" d="M 39.5,165.5 C 39.573,167.027 38.9063,168.027 37.5,168.5C 37.427,166.973 38.0937,165.973 39.5,165.5 Z"/></g>
<g><path style="opacity:0.753" fill="#a8a8a8" d="M 294.5,166.5 C 296.027,166.427 297.027,167.094 297.5,168.5C 295.973,168.573 294.973,167.906 294.5,166.5 Z"/></g>
<g><path style="opacity:0.016" fill="#989898" d="M 352.5,167.5 C 354.5,167.5 355.5,168.5 355.5,170.5C 354.167,169.833 353.167,168.833 352.5,167.5 Z"/></g>
<g><path style="opacity:0.784" fill="#a1a1a1" d="M 158.5,167.5 C 157.833,168.833 156.833,169.833 155.5,170.5C 155.5,168.5 156.5,167.5 158.5,167.5 Z"/></g>
<g><path style="opacity:0.651" fill="#a0a0a0" d="M 297.5,168.5 C 299.027,168.427 300.027,169.094 300.5,170.5C 298.973,170.573 297.973,169.906 297.5,168.5 Z"/></g>
<g><path style="opacity:0.914" fill="#bcbcbc" d="M 155.5,170.5 C 155.573,172.027 154.906,173.027 153.5,173.5C 153.427,171.973 154.094,170.973 155.5,170.5 Z"/></g>
<g><path style="opacity:0.78" fill="#acacac" d="M 302.5,171.5 C 304.027,171.427 305.027,172.094 305.5,173.5C 303.973,173.573 302.973,172.906 302.5,171.5 Z"/></g>
<g><path style="opacity:0.639" fill="#a2a2a2" d="M 305.5,173.5 C 307.027,173.427 308.027,174.094 308.5,175.5C 306.973,175.573 305.973,174.906 305.5,173.5 Z"/></g>
<g><path style="opacity:0.992" fill="#b3b3b3" d="M 38.5,175.5 C 40.4044,175.738 41.7377,176.738 42.5,178.5C 40.5956,178.262 39.2623,177.262 38.5,175.5 Z"/></g>
<g><path style="opacity:0.835" fill="#b2b2b2" d="M 310.5,176.5 C 312.027,176.427 313.027,177.094 313.5,178.5C 311.973,178.573 310.973,177.906 310.5,176.5 Z"/></g>
<g><path style="opacity:0.851" fill="#9d9d9d" d="M 341.5,178.5 C 343.5,178.5 344.5,179.5 344.5,181.5C 343.167,180.833 342.167,179.833 341.5,178.5 Z"/></g>
<g><path style="opacity:0.129" fill="#929292" d="M 169.5,178.5 C 168.833,179.833 167.833,180.833 166.5,181.5C 166.5,179.5 167.5,178.5 169.5,178.5 Z"/></g>
<g><path style="opacity:0.857" fill="#b1b1b1" d="M 195.5,187.5 C 195.733,189.062 196.4,190.395 197.5,191.5C 194.691,191.042 194.024,189.709 195.5,187.5 Z"/></g>
<g><path style="opacity:0.886" fill="#b5b5b5" d="M 315.5,187.5 C 316.976,189.709 316.309,191.042 313.5,191.5C 314.6,190.395 315.267,189.062 315.5,187.5 Z"/></g>
<g><path style="opacity:1" fill="#fcfcfc" d="M 42.5,191.5 C 63.3401,191.169 84.0067,191.503 104.5,192.5C 110.167,198.833 116.167,204.833 122.5,210.5C 125.167,213.167 125.167,215.833 122.5,218.5C 121.5,218.833 120.833,219.5 120.5,220.5C 117.739,222.94 114.739,223.107 111.5,221C 106.833,216.333 102.167,211.667 97.5,207C 79.1697,206.5 60.8364,206.333 42.5,206.5C 41.7377,204.738 40.4044,203.738 38.5,203.5C 37.5318,201.393 37.1984,199.059 37.5,196.5C 38.9063,196.027 39.573,195.027 39.5,193.5C 41.0269,193.573 42.0269,192.906 42.5,191.5 Z"/></g>
<g><path style="opacity:1" fill="#fbfbfb" d="M 470.5,192.5 C 470.738,194.404 471.738,195.738 473.5,196.5C 474.186,200.287 473.186,203.454 470.5,206C 451.5,206.333 432.5,206.667 413.5,207C 408.833,211.667 404.167,216.333 399.5,221C 396.261,223.107 393.261,222.94 390.5,220.5C 390.167,219.5 389.5,218.833 388.5,218.5C 385.833,215.833 385.833,213.167 388.5,210.5C 394.833,204.833 400.833,198.833 406.5,192.5C 427.833,191.167 449.167,191.167 470.5,192.5 Z"/></g>
<g><path style="opacity:0.965" fill="#adadad" d="M 42.5,191.5 C 42.0269,192.906 41.0269,193.573 39.5,193.5C 39.9731,192.094 40.9731,191.427 42.5,191.5 Z"/></g>
<g><path style="opacity:0.024" fill="#a0a0a0" d="M 104.5,192.5 C 111.5,197.5 117.5,203.5 122.5,210.5C 116.167,204.833 110.167,198.833 104.5,192.5 Z"/></g>
<g><path style="opacity:0.992" fill="#b3b3b3" d="M 470.5,192.5 C 472.262,193.262 473.262,194.596 473.5,196.5C 471.738,195.738 470.738,194.404 470.5,192.5 Z"/></g>
<g><path style="opacity:0.596" fill="#a0a0a0" d="M 39.5,193.5 C 39.573,195.027 38.9063,196.027 37.5,196.5C 37.427,194.973 38.0937,193.973 39.5,193.5 Z"/></g>
<g><path style="opacity:0.957" fill="#afafaf" d="M 308.5,194.5 C 308.027,195.906 307.027,196.573 305.5,196.5C 305.973,195.094 306.973,194.427 308.5,194.5 Z"/></g>
<g><path style="opacity:1" fill="#b4b4b4" d="M 204.5,195.5 C 206.23,196.026 207.564,197.026 208.5,198.5C 206.368,198.446 205.035,197.446 204.5,195.5 Z"/></g>
<g><path style="opacity:0.988" fill="#bbbbbb" d="M 305.5,196.5 C 305.027,197.906 304.027,198.573 302.5,198.5C 302.973,197.094 303.973,196.427 305.5,196.5 Z"/></g>
<g><path style="opacity:0.973" fill="#aaaaaa" d="M 155.5,199.5 C 157.749,200.08 159.415,201.413 160.5,203.5C 158.251,202.92 156.585,201.587 155.5,199.5 Z"/></g>
<g><path style="opacity:0.953" fill="#adadad" d="M 300.5,199.5 C 300.027,200.906 299.027,201.573 297.5,201.5C 297.973,200.094 298.973,199.427 300.5,199.5 Z"/></g>
<g><path style="opacity:0.98" fill="#b8b8b8" d="M 297.5,201.5 C 297.027,202.906 296.027,203.573 294.5,203.5C 294.973,202.094 295.973,201.427 297.5,201.5 Z"/></g>
<g><path style="opacity:0.992" fill="#b3b3b3" d="M 38.5,203.5 C 40.4044,203.738 41.7377,204.738 42.5,206.5C 40.5956,206.262 39.2623,205.262 38.5,203.5 Z"/></g>
<g><path style="opacity:0.91" fill="#ababab" d="M 406.5,192.5 C 400.833,198.833 394.833,204.833 388.5,210.5C 393.5,203.5 399.5,197.5 406.5,192.5 Z"/></g>
<g><path style="opacity:0.463" fill="#9b9b9b" d="M 325.5,203.5 C 327.027,203.427 328.027,204.094 328.5,205.5C 326.973,205.573 325.973,204.906 325.5,203.5 Z"/></g>
<g><path style="opacity:0.686" fill="#a2a2a2" d="M 189.5,204.5 C 191.027,204.427 192.027,205.094 192.5,206.5C 190.973,206.573 189.973,205.906 189.5,204.5 Z"/></g>
<g><path style="opacity:1" fill="#b9b9b9" d="M 218.5,204.5 C 219.71,204.932 220.71,205.599 221.5,206.5C 219.821,206.715 218.821,206.048 218.5,204.5 Z"/></g>
<g><path style="opacity:0.937" fill="#aaaaaa" d="M 292.5,204.5 C 292.027,205.906 291.027,206.573 289.5,206.5C 289.973,205.094 290.973,204.427 292.5,204.5 Z"/></g>
<g><path style="opacity:0.988" fill="#e6e6e6" d="M 164.5,205.5 C 165.832,216.146 166.499,227.146 166.5,238.5C 166.499,249.854 165.832,260.854 164.5,271.5C 165.833,249.5 165.833,227.5 164.5,205.5 Z"/></g>
<g><path style="opacity:0.973" fill="#b3b3b3" d="M 289.5,206.5 C 289.027,207.906 288.027,208.573 286.5,208.5C 286.973,207.094 287.973,206.427 289.5,206.5 Z"/></g>
<g><path style="opacity:0.839" fill="#b2b2b2" d="M 194.5,207.5 C 196.027,207.427 197.027,208.094 197.5,209.5C 195.973,209.573 194.973,208.906 194.5,207.5 Z"/></g>
<g><path style="opacity:0.753" fill="#a8a8a8" d="M 197.5,209.5 C 199.027,209.427 200.027,210.094 200.5,211.5C 198.973,211.573 197.973,210.906 197.5,209.5 Z"/></g>
<g><path style="opacity:0.682" fill="#a2a2a2" d="M 200.5,211.5 C 202.027,211.427 203.027,212.094 203.5,213.5C 201.973,213.573 200.973,212.906 200.5,211.5 Z"/></g>
<g><path style="opacity:1" fill="#b6b6b6" d="M 229.5,211.5 C 231.23,212.026 232.564,213.026 233.5,214.5C 231.368,214.446 230.035,213.446 229.5,211.5 Z"/></g>
<g><path style="opacity:0.957" fill="#afafaf" d="M 281.5,211.5 C 281.027,212.906 280.027,213.573 278.5,213.5C 278.973,212.094 279.973,211.427 281.5,211.5 Z"/></g>
<g><path style="opacity:0.608" fill="#9d9d9d" d="M 203.5,213.5 C 205.027,213.427 206.027,214.094 206.5,215.5C 204.973,215.573 203.973,214.906 203.5,213.5 Z"/></g>
<g><path style="opacity:0.808" fill="#aeaeae" d="M 208.5,216.5 C 210.027,216.427 211.027,217.094 211.5,218.5C 209.973,218.573 208.973,217.906 208.5,216.5 Z"/></g>
<g><path style="opacity:0.953" fill="#adadad" d="M 273.5,216.5 C 273.027,217.906 272.027,218.573 270.5,218.5C 270.973,217.094 271.973,216.427 273.5,216.5 Z"/></g>
<g><path style="opacity:0.78" fill="#b3b3b3" d="M 267.5,217.5 C 268.391,218.11 269.391,218.443 270.5,218.5C 269.053,219.885 268.053,219.552 267.5,217.5 Z"/></g>
<g><path style="opacity:0.008" fill="#959595" d="M 122.5,218.5 C 122.5,219.833 121.833,220.5 120.5,220.5C 120.833,219.5 121.5,218.833 122.5,218.5 Z"/></g>
<g><path style="opacity:0.682" fill="#a4a4a4" d="M 211.5,218.5 C 213.027,218.427 214.027,219.094 214.5,220.5C 212.973,220.573 211.973,219.906 211.5,218.5 Z"/></g>
<g><path style="opacity:0.008" fill="#969696" d="M 388.5,218.5 C 389.5,218.833 390.167,219.5 390.5,220.5C 389.167,220.5 388.5,219.833 388.5,218.5 Z"/></g>
<g><path style="opacity:0.6" fill="#9d9d9d" d="M 214.5,220.5 C 216.027,220.427 217.027,221.094 217.5,222.5C 215.973,222.573 214.973,221.906 214.5,220.5 Z"/></g>
<g><path style="opacity:0.78" fill="#acacac" d="M 219.5,223.5 C 221.027,223.427 222.027,224.094 222.5,225.5C 220.973,225.573 219.973,224.906 219.5,223.5 Z"/></g>
<g><path style="opacity:0.714" fill="#a6a6a6" d="M 222.5,225.5 C 224.027,225.427 225.027,226.094 225.5,227.5C 223.973,227.573 222.973,226.906 222.5,225.5 Z"/></g>
<g><path style="opacity:0.651" fill="#9f9f9f" d="M 225.5,227.5 C 227.027,227.427 228.027,228.094 228.5,229.5C 226.973,229.573 225.973,228.906 225.5,227.5 Z"/></g>
<g><path style="opacity:0.886" fill="#9f9f9f" d="M 258.5,230.5 C 260.5,230.5 261.5,231.5 261.5,233.5C 260.167,232.833 259.167,231.833 258.5,230.5 Z"/></g>
<g><path style="opacity:0.996" fill="#c8c8c8" d="M 230.5,230.5 C 231.496,230.414 232.329,230.748 233,231.5C 233.499,235.486 233.666,239.486 233.5,243.5C 232.677,240.023 232.177,236.356 232,232.5C 231.283,231.956 230.783,231.289 230.5,230.5 Z"/></g>
<g><path style="opacity:0.714" fill="#9e9e9e" d="M 507.5,250.5 C 504.763,250.401 502.096,250.735 499.5,251.5C 500.492,249.974 501.992,249.307 504,249.5C 505.385,249.514 506.551,249.848 507.5,250.5 Z"/></g>
<g><path style="opacity:1" fill="#fcfcfc" d="M 507.5,250.5 C 508.833,251.5 510.167,252.5 511.5,253.5C 511.5,298.167 511.5,342.833 511.5,387.5C 509.691,390.139 507.358,392.306 504.5,394C 436.167,394.5 367.834,394.667 299.5,394.5C 299.5,404.167 299.5,413.833 299.5,423.5C 313.794,421.925 325.461,426.591 334.5,437.5C 334.427,439.027 335.094,440.027 336.5,440.5C 336.427,442.027 337.094,443.027 338.5,443.5C 340.008,445.181 341.008,447.181 341.5,449.5C 341.565,452.428 342.232,455.095 343.5,457.5C 344.641,460.64 344.808,463.973 344,467.5C 343.8,469.32 342.966,470.653 341.5,471.5C 340.5,471.833 339.833,472.5 339.5,473.5C 338.942,474.79 337.942,475.623 336.5,476C 309.5,476.667 282.5,476.667 255.5,476C 250.72,472.008 250.387,467.841 254.5,463.5C 256.027,463.573 257.027,462.906 257.5,461.5C 281.176,461.833 304.843,461.5 328.5,460.5C 327.675,458.199 327.008,455.865 326.5,453.5C 326.715,451.821 326.048,450.821 324.5,450.5C 322.529,448.192 320.529,445.858 318.5,443.5C 318.027,442.094 317.027,441.427 315.5,441.5C 311.642,440.161 307.642,439.327 303.5,439C 269.137,438.049 234.804,438.382 200.5,440C 190.788,443.547 184.788,450.381 182.5,460.5C 197.822,461.333 213.156,461.833 228.5,462C 230.333,462.5 231.5,463.667 232,465.5C 233.378,469.987 232.212,473.487 228.5,476C 210.5,476.667 192.5,476.667 174.5,476C 173.058,475.623 172.058,474.79 171.5,473.5C 171.167,472.5 170.5,471.833 169.5,471.5C 168.034,470.653 167.2,469.32 167,467.5C 166.192,463.973 166.359,460.64 167.5,457.5C 168.768,455.095 169.435,452.428 169.5,449.5C 169.992,447.181 170.992,445.181 172.5,443.5C 173.906,443.027 174.573,442.027 174.5,440.5C 175.906,440.027 176.573,439.027 176.5,437.5C 176.833,436.5 177.5,435.833 178.5,435.5C 180.749,434.92 182.415,433.587 183.5,431.5C 183.5,430.833 183.833,430.5 184.5,430.5C 186.027,430.573 187.027,429.906 187.5,428.5C 194.795,424.102 202.795,422.435 211.5,423.5C 211.5,413.833 211.5,404.167 211.5,394.5C 187.498,394.667 163.498,394.5 139.5,394C 134.72,390.008 134.387,385.841 138.5,381.5C 140.027,381.573 141.027,380.906 141.5,379.5C 259.833,379.5 378.167,379.5 496.5,379.5C 496.168,337.33 496.501,295.33 497.5,253.5C 498.5,253.167 499.167,252.5 499.5,251.5C 502.096,250.735 504.763,250.401 507.5,250.5 Z M 227.5,394.5 C 246.167,394.5 264.833,394.5 283.5,394.5C 283.5,404.167 283.5,413.833 283.5,423.5C 264.833,423.5 246.167,423.5 227.5,423.5C 227.5,413.833 227.5,404.167 227.5,394.5 Z"/></g>
<g><path style="opacity:0.714" fill="#9f9f9f" d="M 499.5,251.5 C 499.167,252.5 498.5,253.167 497.5,253.5C 497.5,252.167 498.167,251.5 499.5,251.5 Z"/></g>
<g><path style="opacity:0.945" fill="#aaaaaa" d="M 239.5,253.5 C 241.027,253.427 242.027,254.094 242.5,255.5C 240.973,255.573 239.973,254.906 239.5,253.5 Z"/></g>
<g><path style="opacity:0.714" fill="#a2a2a2" d="M 397.5,255.5 C 395.097,255.448 392.764,255.781 390.5,256.5C 391.312,255.007 392.645,254.34 394.5,254.5C 395.726,254.52 396.726,254.853 397.5,255.5 Z"/></g>
<g><path style="opacity:1" fill="#f5f5f5" d="M 120.5,256.5 C 120.833,257.5 121.5,258.167 122.5,258.5C 125.167,261.167 125.167,263.833 122.5,266.5C 121.094,266.973 120.427,267.973 120.5,269.5C 115.776,275.227 110.442,280.227 104.5,284.5C 83.4974,284.667 62.4974,284.5 41.5,284C 40.7562,282.961 39.7562,282.461 38.5,282.5C 37.5318,280.393 37.1984,278.059 37.5,275.5C 38.9063,275.027 39.573,274.027 39.5,272.5C 41.0269,272.573 42.0269,271.906 42.5,270.5C 61.1233,269.692 79.79,269.192 98.5,269C 102.833,264.667 107.167,260.333 111.5,256C 114.813,253.859 117.813,254.026 120.5,256.5 Z"/></g>
<g><path style="opacity:1" fill="#f6f6f6" d="M 397.5,255.5 C 402.908,259.4 407.908,263.9 412.5,269C 430.5,269.333 448.5,269.667 466.5,270C 468.058,270.21 469.391,270.71 470.5,271.5C 470.738,273.404 471.738,274.738 473.5,275.5C 474.186,279.287 473.186,282.454 470.5,285C 448.996,285.829 427.663,285.663 406.5,284.5C 400.833,278.167 394.833,272.167 388.5,266.5C 386.016,263.671 386.016,260.671 388.5,257.5C 388.957,256.702 389.624,256.369 390.5,256.5C 392.764,255.781 395.097,255.448 397.5,255.5 Z"/></g>
<g><path style="opacity:0.016" fill="#979797" d="M 120.5,256.5 C 121.833,256.5 122.5,257.167 122.5,258.5C 121.5,258.167 120.833,257.5 120.5,256.5 Z"/></g>
<g><path style="opacity:0.639" fill="#a4a4a4" d="M 242.5,255.5 C 244.027,255.427 245.027,256.094 245.5,257.5C 243.973,257.573 242.973,256.906 242.5,255.5 Z"/></g>
<g><path style="opacity:0.992" fill="#ebebeb" d="M 247.5,258.5 C 248.167,269.161 248.5,279.995 248.5,291C 248.499,302.188 247.832,313.021 246.5,323.5C 247.488,301.909 247.822,280.242 247.5,258.5 Z"/></g>
<g><path style="opacity:0.149" fill="#868686" d="M 264.5,257.5 C 263.511,279.425 263.178,301.425 263.5,323.5C 262.833,312.672 262.5,301.672 262.5,290.5C 262.501,279.146 263.168,268.146 264.5,257.5 Z"/></g>
<g><path style="opacity:0.024" fill="#959595" d="M 122.5,266.5 C 122.573,268.027 121.906,269.027 120.5,269.5C 120.427,267.973 121.094,266.973 122.5,266.5 Z"/></g>
<g><path style="opacity:0.024" fill="#9e9e9e" d="M 388.5,266.5 C 394.833,272.167 400.833,278.167 406.5,284.5C 399.5,279.5 393.5,273.5 388.5,266.5 Z"/></g>
<g><path style="opacity:0.976" fill="#b1b1b1" d="M 42.5,270.5 C 42.0269,271.906 41.0269,272.573 39.5,272.5C 39.9731,271.094 40.9731,270.427 42.5,270.5 Z"/></g>
<g><path style="opacity:0.953" fill="#ababab" d="M 163.5,271.5 C 163.027,272.906 162.027,273.573 160.5,273.5C 160.973,272.094 161.973,271.427 163.5,271.5 Z"/></g>
<g><path style="opacity:0.961" fill="#adadad" d="M 328.5,271.5 C 328.027,272.906 327.027,273.573 325.5,273.5C 325.973,272.094 326.973,271.427 328.5,271.5 Z"/></g>
<g><path style="opacity:0.996" fill="#b5b5b5" d="M 470.5,271.5 C 472.262,272.262 473.262,273.596 473.5,275.5C 471.738,274.738 470.738,273.404 470.5,271.5 Z"/></g>
<g><path style="opacity:0.616" fill="#a2a2a2" d="M 39.5,272.5 C 39.573,274.027 38.9063,275.027 37.5,275.5C 37.427,273.973 38.0937,272.973 39.5,272.5 Z"/></g>
<g><path style="opacity:0.918" fill="#adadad" d="M 160.5,273.5 C 159.738,275.262 158.404,276.262 156.5,276.5C 157.262,274.738 158.596,273.738 160.5,273.5 Z"/></g>
<g><path style="opacity:0.945" fill="#b2b2b2" d="M 325.5,273.5 C 324.738,275.262 323.404,276.262 321.5,276.5C 322.262,274.738 323.596,273.738 325.5,273.5 Z"/></g>
<g><path style="opacity:0.933" fill="#a9a9a9" d="M 156.5,276.5 C 156.573,278.027 155.906,279.027 154.5,279.5C 154.427,277.973 155.094,276.973 156.5,276.5 Z"/></g>
<g><path style="opacity:0.965" fill="#b0b0b0" d="M 189.5,276.5 C 190.906,276.973 191.573,277.973 191.5,279.5C 190.094,279.027 189.427,278.027 189.5,276.5 Z"/></g>
<g><path style="opacity:0.957" fill="#aeaeae" d="M 321.5,276.5 C 321.573,278.027 320.906,279.027 319.5,279.5C 319.427,277.973 320.094,276.973 321.5,276.5 Z"/></g>
<g><path style="opacity:0.941" fill="#aaaaaa" d="M 354.5,276.5 C 355.906,276.973 356.573,277.973 356.5,279.5C 355.094,279.027 354.427,278.027 354.5,276.5 Z"/></g>
<g><path style="opacity:0.733" fill="#a8a8a8" d="M 154.5,279.5 C 154.573,281.027 153.906,282.027 152.5,282.5C 152.427,280.973 153.094,279.973 154.5,279.5 Z"/></g>
<g><path style="opacity:0.796" fill="#afafaf" d="M 191.5,279.5 C 192.906,279.973 193.573,280.973 193.5,282.5C 192.094,282.027 191.427,281.027 191.5,279.5 Z"/></g>
<g><path style="opacity:0.804" fill="#b0b0b0" d="M 319.5,279.5 C 319.573,281.027 318.906,282.027 317.5,282.5C 317.427,280.973 318.094,279.973 319.5,279.5 Z"/></g>
<g><path style="opacity:0.725" fill="#a7a7a7" d="M 356.5,279.5 C 357.906,279.973 358.573,280.973 358.5,282.5C 357.094,282.027 356.427,281.027 356.5,279.5 Z"/></g>
<g><path style="opacity:0.996" fill="#e5e6e5" d="M 38.5,282.5 C 39.7562,282.461 40.7562,282.961 41.5,284C 62.4974,284.5 83.4974,284.667 104.5,284.5C 83.3373,285.663 62.004,285.829 40.5,285C 39.6195,284.292 38.9528,283.458 38.5,282.5 Z"/></g>
<g><path style="opacity:0.906" fill="#a0a0a0" d="M 166.5,295.5 C 167.833,296.167 168.833,297.167 169.5,298.5C 167.5,298.5 166.5,297.5 166.5,295.5 Z"/></g>
<g><path style="opacity:0.882" fill="#a6a6a6" d="M 344.5,295.5 C 344.5,297.5 343.5,298.5 341.5,298.5C 342.167,297.167 343.167,296.167 344.5,295.5 Z"/></g>
<g><path style="opacity:1" fill="#f5f5f5" d="M 92.5,312.5 C 75.4967,312.667 58.4967,312.5 41.5,312C 40.7562,310.961 39.7562,310.461 38.5,310.5C 37.5318,308.393 37.1984,306.059 37.5,303.5C 38.9063,303.027 39.573,302.027 39.5,300.5C 41.0269,300.573 42.0269,299.906 42.5,298.5C 59.1763,297.03 75.843,297.197 92.5,299C 97.8066,303.625 97.8066,308.125 92.5,312.5 Z"/></g>
<g><path style="opacity:1" fill="#f4f4f4" d="M 470.5,299.5 C 470.738,301.404 471.738,302.738 473.5,303.5C 474.186,307.287 473.186,310.454 470.5,313C 453.167,313.667 435.833,313.667 418.5,313C 412.369,305.983 413.703,300.983 422.5,298C 437.167,297.333 451.833,297.333 466.5,298C 468.058,298.21 469.391,298.71 470.5,299.5 Z"/></g>
<g><path style="opacity:0.976" fill="#b1b1b1" d="M 42.5,298.5 C 42.0269,299.906 41.0269,300.573 39.5,300.5C 39.9731,299.094 40.9731,298.427 42.5,298.5 Z"/></g>
<g><path style="opacity:0.996" fill="#b5b5b5" d="M 470.5,299.5 C 472.262,300.262 473.262,301.596 473.5,303.5C 471.738,302.738 470.738,301.404 470.5,299.5 Z"/></g>
<g><path style="opacity:0.616" fill="#a2a2a2" d="M 39.5,300.5 C 39.573,302.027 38.9063,303.027 37.5,303.5C 37.427,301.973 38.0937,300.973 39.5,300.5 Z"/></g>
<g><path style="opacity:0.969" fill="#b1b1b1" d="M 310.5,301.5 C 310.027,302.906 309.027,303.573 307.5,303.5C 307.973,302.094 308.973,301.427 310.5,301.5 Z"/></g>
<g><path style="opacity:1" fill="#b6b6b6" d="M 202.5,302.5 C 204.23,303.026 205.564,304.026 206.5,305.5C 204.368,305.446 203.035,304.446 202.5,302.5 Z"/></g>
<g><path style="opacity:0.957" fill="#aeaeae" d="M 302.5,306.5 C 302.027,307.906 301.027,308.573 299.5,308.5C 299.973,307.094 300.973,306.427 302.5,306.5 Z"/></g>
<g><path style="opacity:0.008" fill="#979797" d="M 156.5,307.5 C 157.5,307.833 158.167,308.5 158.5,309.5C 157.167,309.5 156.5,308.833 156.5,307.5 Z"/></g>
<g><path style="opacity:0.008" fill="#989898" d="M 354.5,307.5 C 354.5,308.833 353.833,309.5 352.5,309.5C 352.833,308.5 353.5,307.833 354.5,307.5 Z"/></g>
<g><path style="opacity:0.984" fill="#b8b8b8" d="M 299.5,308.5 C 299.027,309.906 298.027,310.573 296.5,310.5C 296.973,309.094 297.973,308.427 299.5,308.5 Z"/></g>
<g><path style="opacity:0.957" fill="#b8b8b8" d="M 158.5,309.5 C 160.404,309.738 161.738,310.738 162.5,312.5C 160.596,312.262 159.262,311.262 158.5,309.5 Z"/></g>
<g><path style="opacity:0.996" fill="#e3e3e3" d="M 38.5,310.5 C 39.7562,310.461 40.7562,310.961 41.5,312C 58.4967,312.5 75.4967,312.667 92.5,312.5C 75.3382,313.662 58.0049,313.829 40.5,313C 39.6195,312.292 38.9528,311.458 38.5,310.5 Z"/></g>
<g><path style="opacity:0.643" fill="#a0a0a0" d="M 187.5,311.5 C 189.027,311.427 190.027,312.094 190.5,313.5C 188.973,313.573 187.973,312.906 187.5,311.5 Z"/></g>
<g><path style="opacity:0.941" fill="#aaaaaa" d="M 294.5,311.5 C 294.027,312.906 293.027,313.573 291.5,313.5C 291.973,312.094 292.973,311.427 294.5,311.5 Z"/></g>
<g><path style="opacity:0.976" fill="#b5b5b5" d="M 291.5,313.5 C 291.027,314.906 290.027,315.573 288.5,315.5C 288.973,314.094 289.973,313.427 291.5,313.5 Z"/></g>
<g><path style="opacity:0.816" fill="#afafaf" d="M 192.5,314.5 C 194.027,314.427 195.027,315.094 195.5,316.5C 193.973,316.573 192.973,315.906 192.5,314.5 Z"/></g>
<g><path style="opacity:0.714" fill="#a6a6a6" d="M 195.5,316.5 C 197.027,316.427 198.027,317.094 198.5,318.5C 196.973,318.573 195.973,317.906 195.5,316.5 Z"/></g>
<g><path style="opacity:1" fill="#b5b5b5" d="M 224.5,316.5 C 226.23,317.026 227.564,318.026 228.5,319.5C 226.368,319.446 225.035,318.446 224.5,316.5 Z"/></g>
<g><path style="opacity:0.639" fill="#9f9f9f" d="M 198.5,318.5 C 200.027,318.427 201.027,319.094 201.5,320.5C 199.973,320.573 198.973,319.906 198.5,318.5 Z"/></g>
<g><path style="opacity:0.957" fill="#afafaf" d="M 283.5,318.5 C 283.027,319.906 282.027,320.573 280.5,320.5C 280.973,319.094 281.973,318.427 283.5,318.5 Z"/></g>
<g><path style="opacity:0.984" fill="#bbbbbb" d="M 280.5,320.5 C 280.027,321.906 279.027,322.573 277.5,322.5C 277.973,321.094 278.973,320.427 280.5,320.5 Z"/></g>
<g><path style="opacity:0.843" fill="#b1b1b1" d="M 203.5,321.5 C 205.027,321.427 206.027,322.094 206.5,323.5C 204.973,323.573 203.973,322.906 203.5,321.5 Z"/></g>
<g><path style="opacity:0.765" fill="#a9a9a9" d="M 206.5,323.5 C 208.027,323.427 209.027,324.094 209.5,325.5C 207.973,325.573 206.973,324.906 206.5,323.5 Z"/></g>
<g><path style="opacity:0.957" fill="#aeaeae" d="M 275.5,323.5 C 275.027,324.906 274.027,325.573 272.5,325.5C 272.973,324.094 273.973,323.427 275.5,323.5 Z"/></g>
<g><path style="opacity:1" fill="#f2f2f2" d="M 74.5,327.5 C 74.8333,328.5 75.5,329.167 76.5,329.5C 79.5268,333.792 78.8602,337.626 74.5,341C 63.8333,341.667 53.1667,341.667 42.5,341C 37.1774,336.286 37.1774,331.62 42.5,327C 52.0916,325.413 61.7583,325.08 71.5,326C 72.7375,326.232 73.7375,326.732 74.5,327.5 Z"/></g>
<g><path style="opacity:0.671" fill="#a2a2a2" d="M 209.5,325.5 C 211.027,325.427 212.027,326.094 212.5,327.5C 210.973,327.573 209.973,326.906 209.5,325.5 Z"/></g>
<g><path style="opacity:0.541" fill="#9e9e9e" d="M 267.5,325.5 C 268.609,325.557 269.609,325.89 270.5,326.5C 269.221,327.715 268.221,327.382 267.5,325.5 Z"/></g>
<g><path style="opacity:1" fill="#f2f2f2" d="M 468.5,327.5 C 468.833,328.5 469.5,329.167 470.5,329.5C 473.527,333.792 472.86,337.626 468.5,341C 457.833,341.667 447.167,341.667 436.5,341C 431.177,336.286 431.177,331.62 436.5,327C 446.092,325.413 455.758,325.08 465.5,326C 466.737,326.232 467.737,326.732 468.5,327.5 Z"/></g>
<g><path style="opacity:0.016" fill="#999999" d="M 74.5,327.5 C 75.8333,327.5 76.5,328.167 76.5,329.5C 75.5,329.167 74.8333,328.5 74.5,327.5 Z"/></g>
<g><path style="opacity:0.016" fill="#999999" d="M 468.5,327.5 C 469.833,327.5 470.5,328.167 470.5,329.5C 469.5,329.167 468.833,328.5 468.5,327.5 Z"/></g>
<g><path style="opacity:0.816" fill="#afafaf" d="M 214.5,328.5 C 216.027,328.427 217.027,329.094 217.5,330.5C 215.973,330.573 214.973,329.906 214.5,328.5 Z"/></g>
<g><path style="opacity:0.753" fill="#a8a8a8" d="M 217.5,330.5 C 219.027,330.427 220.027,331.094 220.5,332.5C 218.973,332.573 217.973,331.906 217.5,330.5 Z"/></g>
<g><path style="opacity:0.639" fill="#a1a1a1" d="M 220.5,332.5 C 222.027,332.427 223.027,333.094 223.5,334.5C 221.973,334.573 220.973,333.906 220.5,332.5 Z"/></g>
<g><path style="opacity:0.863" fill="#b3b3b3" d="M 225.5,335.5 C 227.027,335.427 228.027,336.094 228.5,337.5C 226.973,337.573 225.973,336.906 225.5,335.5 Z"/></g>
<g><path style="opacity:0.784" fill="#ababab" d="M 228.5,337.5 C 230.027,337.427 231.027,338.094 231.5,339.5C 229.973,339.573 228.973,338.906 228.5,337.5 Z"/></g>
<g><path style="opacity:0.024" fill="#9a9a9a" d="M 237.5,358.5 C 239.167,359.5 240.5,360.833 241.5,362.5C 239.167,362.167 237.833,360.833 237.5,358.5 Z"/></g>
<g><path style="opacity:0.784" fill="#acacac" d="M 241.5,362.5 C 243.027,362.427 244.027,363.094 244.5,364.5C 242.973,364.573 241.973,363.906 241.5,362.5 Z"/></g>
<g><path style="opacity:0.992" fill="#bdbdbd" d="M 141.5,379.5 C 141.027,380.906 140.027,381.573 138.5,381.5C 138.973,380.094 139.973,379.427 141.5,379.5 Z"/></g>
<g><path style="opacity:0.635" fill="#a1a1a1" d="M 3.5,391.5 C 5.02694,391.427 6.02694,392.094 6.5,393.5C 4.97306,393.573 3.97306,392.906 3.5,391.5 Z"/></g>
<g><path style="opacity:0.945" fill="#ababab" d="M 187.5,428.5 C 187.027,429.906 186.027,430.573 184.5,430.5C 184.973,429.094 185.973,428.427 187.5,428.5 Z"/></g>
<g><path style="opacity:0.996" fill="#c8c8c8" d="M 183.5,431.5 C 182.415,433.587 180.749,434.92 178.5,435.5C 179.585,433.413 181.251,432.08 183.5,431.5 Z"/></g>
<g><path style="opacity:0.804" fill="#a8a8a8" d="M 176.5,437.5 C 176.573,439.027 175.906,440.027 174.5,440.5C 174.427,438.973 175.094,437.973 176.5,437.5 Z"/></g>
<g><path style="opacity:0.792" fill="#a6a6a6" d="M 334.5,437.5 C 335.906,437.973 336.573,438.973 336.5,440.5C 335.094,440.027 334.427,439.027 334.5,437.5 Z"/></g>
<g><path style="opacity:0.816" fill="#b0b0b0" d="M 174.5,440.5 C 174.573,442.027 173.906,443.027 172.5,443.5C 172.427,441.973 173.094,440.973 174.5,440.5 Z"/></g>
<g><path style="opacity:0.78" fill="#ababab" d="M 315.5,441.5 C 317.027,441.427 318.027,442.094 318.5,443.5C 316.973,443.573 315.973,442.906 315.5,441.5 Z"/></g>
<g><path style="opacity:0.808" fill="#afafaf" d="M 336.5,440.5 C 337.906,440.973 338.573,441.973 338.5,443.5C 337.094,443.027 336.427,442.027 336.5,440.5 Z"/></g>
<g><path style="opacity:1" fill="#b8b8b8" d="M 324.5,450.5 C 326.048,450.821 326.715,451.821 326.5,453.5C 325.599,452.71 324.932,451.71 324.5,450.5 Z"/></g>
<g><path style="opacity:0.996" fill="#bababa" d="M 169.5,449.5 C 169.435,452.428 168.768,455.095 167.5,457.5C 167.294,454.505 167.96,451.838 169.5,449.5 Z"/></g>
<g><path style="opacity:0.996" fill="#b9b9b9" d="M 341.5,449.5 C 343.04,451.838 343.706,454.505 343.5,457.5C 342.232,455.095 341.565,452.428 341.5,449.5 Z"/></g>
<g><path style="opacity:0.996" fill="#bdbdbd" d="M 257.5,461.5 C 257.027,462.906 256.027,463.573 254.5,463.5C 254.973,462.094 255.973,461.427 257.5,461.5 Z"/></g>
<g><path style="opacity:0.016" fill="#989898" d="M 169.5,471.5 C 170.5,471.833 171.167,472.5 171.5,473.5C 170.167,473.5 169.5,472.833 169.5,471.5 Z"/></g>
<g><path style="opacity:0.016" fill="#989898" d="M 341.5,471.5 C 341.5,472.833 340.833,473.5 339.5,473.5C 339.833,472.5 340.5,471.833 341.5,471.5 Z"/></g>
</svg>
