<?xml version="1.0" encoding="UTF-8"?>
<!DOCTYPE svg PUBLIC "-//W3C//DTD SVG 1.1//EN" "http://www.w3.org/Graphics/SVG/1.1/DTD/svg11.dtd">
<svg xmlns="http://www.w3.org/2000/svg" version="1.1" width="512px" height="512px" style="shape-rendering:geometricPrecision; text-rendering:geometricPrecision; image-rendering:optimizeQuality; fill-rule:evenodd; clip-rule:evenodd" xmlns:xlink="http://www.w3.org/1999/xlink">
<g><path style="opacity:1" fill="#f8f8f8" d="M 498.5,27.5 C 498.427,29.0269 499.094,30.0269 500.5,30.5C 501.6,32.2774 502.434,34.2774 503,36.5C 503.667,137.5 503.667,238.5 503,339.5C 501.722,346.055 498.889,351.722 494.5,356.5C 493.094,356.973 492.427,357.973 492.5,359.5C 492.167,360.5 491.5,361.167 490.5,361.5C 488.973,361.427 487.973,362.094 487.5,363.5C 482.514,368.28 476.514,370.946 469.5,371.5C 420.833,371.5 372.167,371.5 323.5,371.5C 323.185,375.371 323.518,379.038 324.5,382.5C 325.828,391.462 327.161,400.462 328.5,409.5C 328.171,412.228 328.837,414.562 330.5,416.5C 332.591,424.685 335.258,432.685 338.5,440.5C 348.446,442.475 358.779,443.142 369.5,442.5C 375.897,441.962 381.23,443.962 385.5,448.5C 385.973,449.906 386.973,450.573 388.5,450.5C 388.427,452.027 389.094,453.027 390.5,453.5C 390.427,455.027 391.094,456.027 392.5,456.5C 393.674,457.514 394.34,458.847 394.5,460.5C 395.292,466.13 395.625,471.797 395.5,477.5C 394.873,481.42 393.207,484.753 390.5,487.5C 389.094,487.973 388.427,488.973 388.5,490.5C 383.475,496.008 377.141,498.842 369.5,499C 293.5,499.667 217.5,499.667 141.5,499C 137.047,498.975 133.047,497.808 129.5,495.5C 128.738,493.738 127.404,492.738 125.5,492.5C 125.027,491.094 124.027,490.427 122.5,490.5C 122.573,488.973 121.906,487.973 120.5,487.5C 116.142,482.766 114.142,477.099 114.5,470.5C 114.043,465.217 115.376,460.55 118.5,456.5C 119.906,456.027 120.573,455.027 120.5,453.5C 122.5,452.167 124.167,450.5 125.5,448.5C 125.5,447.833 125.833,447.5 126.5,447.5C 128.027,447.573 129.027,446.906 129.5,445.5C 133.018,443.034 137.018,442.034 141.5,442.5C 152.221,443.142 162.554,442.475 172.5,440.5C 179.388,421.724 183.721,402.391 185.5,382.5C 186.482,379.038 186.815,375.371 186.5,371.5C 138.167,371.5 89.8333,371.5 41.5,371.5C 37.0583,371.268 33.0583,369.935 29.5,367.5C 29.0269,366.094 28.0269,365.427 26.5,365.5C 26.0269,364.094 25.0269,363.427 23.5,363.5C 22.7377,361.738 21.4044,360.738 19.5,360.5C 19.2624,358.596 18.2624,357.262 16.5,356.5C 12.1109,351.722 9.27756,346.055 8,339.5C 7.5,242.501 7.33334,145.501 7.5,48.5C 9.03954,46.1617 9.70621,43.4951 9.5,40.5C 9.79586,38.597 10.4625,36.9303 11.5,35.5C 12.9063,35.0269 13.573,34.0269 13.5,32.5C 14.9063,32.0269 15.573,31.0269 15.5,29.5C 16.9063,29.0269 17.573,28.0269 17.5,26.5C 17.8333,25.5 18.5,24.8333 19.5,24.5C 21.7488,23.9202 23.4154,22.5869 24.5,20.5C 24.9731,19.0937 25.9731,18.427 27.5,18.5C 29.0269,18.573 30.0269,17.9063 30.5,16.5C 35.678,13.6204 41.3447,12.1204 47.5,12C 189.167,11.3333 330.833,11.3333 472.5,12C 484.1,12.4668 492.766,17.6335 498.5,27.5 Z M 479.5,28.5 C 479.973,29.9063 480.973,30.573 482.5,30.5C 484.761,33.3649 486.761,36.3649 488.5,39.5C 488.5,122.5 488.5,205.5 488.5,288.5C 450.5,288.5 412.5,288.5 374.5,288.5C 373.01,285.788 373.344,283.288 375.5,281C 386.66,280.342 391.327,274.508 389.5,263.5C 390.625,257.311 388.959,252.144 384.5,248C 380.645,247.236 377.145,245.736 374,243.5C 373.333,242.167 373.333,240.833 374,239.5C 377.745,235.779 378.911,231.446 377.5,226.5C 378.568,225.566 379.901,225.232 381.5,225.5C 385.112,226.639 388.446,228.306 391.5,230.5C 392.262,232.262 393.596,233.262 395.5,233.5C 401.275,237.295 407.275,237.462 413.5,234C 421,226.5 428.5,219 436,211.5C 437.903,209.559 438.736,207.226 438.5,204.5C 439.865,201.041 439.531,197.708 437.5,194.5C 437.262,192.596 436.262,191.262 434.5,190.5C 434.5,189.833 434.167,189.5 433.5,189.5C 433.573,187.973 432.906,186.973 431.5,186.5C 425.432,173.706 428.099,163.206 439.5,155C 444.318,153.131 449.318,152.131 454.5,152C 460.767,150.066 464.601,145.9 466,139.5C 466.82,132.986 466.653,126.653 465.5,120.5C 465.573,118.973 464.906,117.973 463.5,117.5C 463.389,116.883 463.056,116.383 462.5,116C 437.33,115.17 412.33,115.337 387.5,116.5C 385.5,116.5 384.5,117.5 384.5,119.5C 383.551,130.952 380.551,141.952 375.5,152.5C 374.094,152.973 373.427,153.973 373.5,155.5C 371.738,156.262 370.738,157.596 370.5,159.5C 369.5,159.833 368.833,160.5 368.5,161.5C 366.167,163.167 364.167,165.167 362.5,167.5C 360.596,167.738 359.262,168.738 358.5,170.5C 356.973,170.427 355.973,171.094 355.5,172.5C 332.973,184.149 311.307,182.816 290.5,168.5C 290.027,167.094 289.027,166.427 287.5,166.5C 286.167,164.5 284.5,162.833 282.5,161.5C 281.92,159.251 280.587,157.585 278.5,156.5C 278.573,154.973 277.906,153.973 276.5,153.5C 271.014,143.223 268.18,132.223 268,120.5C 267.167,118.333 265.667,116.833 263.5,116C 238.833,115.333 214.167,115.333 189.5,116C 188.584,116.278 187.918,116.778 187.5,117.5C 186.094,117.973 185.427,118.973 185.5,120.5C 185.334,127.508 185.5,134.508 186,141.5C 186.223,143.881 187.39,145.547 189.5,146.5C 189.5,147.833 190.167,148.5 191.5,148.5C 192.975,150.41 194.975,151.576 197.5,152C 203.071,152.227 208.405,153.394 213.5,155.5C 214.5,157.167 215.833,158.5 217.5,159.5C 225.678,170.101 225.345,180.435 216.5,190.5C 215.094,190.973 214.427,191.973 214.5,193.5C 212.953,195.807 212.287,198.473 212.5,201.5C 212.287,204.527 212.953,207.193 214.5,209.5C 214.427,211.027 215.094,212.027 216.5,212.5C 218.167,214.833 220.167,216.833 222.5,218.5C 223.167,219.833 224.167,220.833 225.5,221.5C 228.5,225.167 231.833,228.5 235.5,231.5C 235.973,232.906 236.973,233.573 238.5,233.5C 242.363,236.198 246.696,237.031 251.5,236C 257.128,231.874 263.128,228.374 269.5,225.5C 270.833,225.5 272.167,225.5 273.5,225.5C 273.19,228.713 273.523,231.713 274.5,234.5C 274.685,236.196 275.519,237.529 277,238.5C 277.494,240.134 277.66,241.801 277.5,243.5C 276.167,244.167 275.167,245.167 274.5,246.5C 272.265,246.205 270.265,246.539 268.5,247.5C 266.973,247.427 265.973,248.094 265.5,249.5C 263.738,250.262 262.738,251.596 262.5,253.5C 261.379,259.418 261.212,265.418 262,271.5C 262.2,273.32 263.034,274.653 264.5,275.5C 264.5,276.833 265.167,277.5 266.5,277.5C 266.611,278.117 266.944,278.617 267.5,279C 270.167,279.667 272.833,280.333 275.5,281C 277.229,282.789 277.896,284.956 277.5,287.5C 192.571,288.497 107.571,288.83 22.5,288.5C 22.5,208.167 22.5,127.833 22.5,47.5C 26.7478,35.7577 35.0811,28.9244 47.5,27C 189.167,26.3333 330.833,26.3333 472.5,27C 474.813,27.662 477.146,28.162 479.5,28.5 Z M 81.5,53.5 C 96.1667,53.5 110.833,53.5 125.5,53.5C 125.5,68.5 125.5,83.5 125.5,98.5C 110.833,98.5 96.1667,98.5 81.5,98.5C 81.5,83.5 81.5,68.5 81.5,53.5 Z M 303.5,53.5 C 318.167,53.5 332.833,53.5 347.5,53.5C 347.5,68.5 347.5,83.5 347.5,98.5C 332.833,98.5 318.167,98.5 303.5,98.5C 303.5,83.5 303.5,68.5 303.5,53.5 Z M 140.5,70.5 C 189.833,70.5 239.167,70.5 288.5,70.5C 288.5,74.1667 288.5,77.8333 288.5,81.5C 239.167,81.5 189.833,81.5 140.5,81.5C 140.5,77.8333 140.5,74.1667 140.5,70.5 Z M 92.5,113.5 C 99.8333,113.5 107.167,113.5 114.5,113.5C 114.5,143.167 114.5,172.833 114.5,202.5C 107.167,202.5 99.8333,202.5 92.5,202.5C 92.5,172.833 92.5,143.167 92.5,113.5 Z M 334.5,113.5 C 334.5,118.167 334.5,122.833 334.5,127.5C 328.833,127.5 323.167,127.5 317.5,127.5C 317.5,122.833 317.5,118.167 317.5,113.5C 323.167,113.5 328.833,113.5 334.5,113.5 Z M 254.5,134.5 C 257.133,152.436 265.467,167.103 279.5,178.5C 279.973,179.906 280.973,180.573 282.5,180.5C 283.262,182.262 284.596,183.262 286.5,183.5C 286.973,184.906 287.973,185.573 289.5,185.5C 314.967,199.164 340.3,198.664 365.5,184C 384.25,171.066 394.916,153.233 397.5,130.5C 415.5,130.5 433.5,130.5 451.5,130.5C 451.5,132.5 451.5,134.5 451.5,136.5C 448.39,137.088 445.39,137.755 442.5,138.5C 439.084,138.528 436.084,139.528 433.5,141.5C 431.973,141.427 430.973,142.094 430.5,143.5C 428.973,143.427 427.973,144.094 427.5,145.5C 424.5,146.5 422.5,148.5 421.5,151.5C 420.094,151.973 419.427,152.973 419.5,154.5C 417.127,156.579 415.794,159.246 415.5,162.5C 414.076,164.515 413.41,166.848 413.5,169.5C 412.011,182.035 415.678,192.702 424.5,201.5C 417.5,208.167 410.5,214.833 403.5,221.5C 403.167,220.5 402.5,219.833 401.5,219.5C 401.027,218.094 400.027,217.427 398.5,217.5C 398.5,216.833 398.167,216.5 397.5,216.5C 396.71,215.599 395.71,214.932 394.5,214.5C 384.938,210.038 375.105,209.371 365,212.5C 361.058,209.853 357.225,209.853 353.5,212.5C 351.596,212.738 350.262,213.738 349.5,215.5C 343.95,215.112 341.45,212.112 342,206.5C 341.623,205.058 340.79,204.058 339.5,203.5C 339.5,202.167 338.833,201.5 337.5,201.5C 337.082,200.778 336.416,200.278 335.5,200C 328.833,199.333 322.167,199.333 315.5,200C 314.058,200.377 313.058,201.21 312.5,202.5C 311.094,202.973 310.427,203.973 310.5,205.5C 308.837,207.438 308.171,209.772 308.5,212.5C 307.167,213.167 306.167,214.167 305.5,215.5C 301.319,213.582 296.986,211.915 292.5,210.5C 288.739,212.187 285.072,212.353 281.5,211C 272.372,209.517 263.705,210.851 255.5,215C 253.382,216.049 251.716,217.549 250.5,219.5C 248.983,219.511 247.816,220.177 247,221.5C 246.617,220.944 246.117,220.611 245.5,220.5C 239.108,214.112 233.108,207.445 227.5,200.5C 228.906,200.027 229.573,199.027 229.5,197.5C 233.515,194.148 236.015,189.815 237,184.5C 238.573,179.145 238.74,173.812 237.5,168.5C 237.59,165.848 236.924,163.515 235.5,161.5C 235.737,160.209 235.404,159.209 234.5,158.5C 234.573,156.973 233.906,155.973 232.5,155.5C 232.573,153.973 231.906,152.973 230.5,152.5C 230.573,150.973 229.906,149.973 228.5,149.5C 221.134,141.156 211.801,137.156 200.5,137.5C 200.5,135.167 200.5,132.833 200.5,130.5C 218.167,130.5 235.833,130.5 253.5,130.5C 253.232,132.099 253.566,133.432 254.5,134.5 Z M 328.5,215.5 C 328.928,219.244 330.595,222.244 333.5,224.5C 333.973,225.906 334.973,226.573 336.5,226.5C 336.973,227.906 337.973,228.573 339.5,228.5C 345.87,231.355 352.204,231.021 358.5,227.5C 359.478,227.977 360.311,228.643 361,229.5C 360.694,231.823 360.028,234.156 359,236.5C 357.329,243.975 359.163,250.309 364.5,255.5C 364.973,256.906 365.973,257.573 367.5,257.5C 369.176,259.834 371.509,260.834 374.5,260.5C 374.5,262.167 374.5,263.833 374.5,265.5C 373.209,265.263 372.209,265.596 371.5,266.5C 370.508,266.328 369.842,266.662 369.5,267.5C 367.973,267.427 366.973,268.094 366.5,269.5C 365.833,269.5 365.5,269.833 365.5,270.5C 364.167,270.5 363.5,271.167 363.5,272.5C 362.094,272.973 361.427,273.973 361.5,275.5C 359.323,278.373 358.323,281.706 358.5,285.5C 358.323,289.294 359.323,292.627 361.5,295.5C 360.599,297.727 358.933,298.727 356.5,298.5C 356.082,297.778 355.416,297.278 354.5,297C 352.333,296.833 350.167,296.667 348,296.5C 344.523,296.328 341.356,296.994 338.5,298.5C 336.973,298.427 335.973,299.094 335.5,300.5C 331.529,303.092 329.029,306.759 328,311.5C 326.644,312.38 325.144,312.714 323.5,312.5C 323.293,309.759 322.293,307.426 320.5,305.5C 319.92,303.251 318.587,301.585 316.5,300.5C 309.387,295.414 302.054,294.747 294.5,298.5C 293.5,298.5 292.5,298.5 291.5,298.5C 290.833,297.5 290.167,296.5 289.5,295.5C 291.942,292.535 292.942,289.035 292.5,285C 292.942,280.965 291.942,277.465 289.5,274.5C 289.573,272.973 288.906,271.973 287.5,271.5C 284.6,268.214 280.933,266.214 276.5,265.5C 276.5,263.833 276.5,262.167 276.5,260.5C 284.195,259.314 289.362,254.981 292,247.5C 293.169,241.327 292.336,235.493 289.5,230C 290.167,229.333 290.833,228.667 291.5,228C 295.392,228.897 299.392,229.731 303.5,230.5C 313.308,230.338 319.641,225.671 322.5,216.5C 324.169,214.338 326.169,214.005 328.5,215.5 Z M 59.5,217.5 C 88.8333,217.5 118.167,217.5 147.5,217.5C 147.5,234.5 147.5,251.5 147.5,268.5C 118.167,268.5 88.8333,268.5 59.5,268.5C 59.5,251.5 59.5,234.5 59.5,217.5 Z M 336.5,246.5 C 337.833,248.5 339.5,250.167 341.5,251.5C 341.932,252.71 342.599,253.71 343.5,254.5C 344.32,257.448 344.986,260.448 345.5,263.5C 344.828,266.512 344.161,269.512 343.5,272.5C 342.094,272.973 341.427,273.973 341.5,275.5C 333.484,283.17 324.484,284.503 314.5,279.5C 314.027,278.094 313.027,277.427 311.5,277.5C 311.262,275.596 310.262,274.262 308.5,273.5C 303.175,257.178 308.842,247.178 325.5,243.5C 329.352,243.896 333.019,244.896 336.5,246.5 Z M 277.5,305.5 C 279.167,307.833 281.167,309.833 283.5,311.5C 284.262,313.262 285.596,314.262 287.5,314.5C 292.506,316.252 297.172,315.419 301.5,312C 303.167,311.333 304.833,311.333 306.5,312C 307.861,315.712 309.528,319.212 311.5,322.5C 311.5,323.833 312.167,324.5 313.5,324.5C 314.347,325.966 315.68,326.8 317.5,327C 323.167,327.667 328.833,327.667 334.5,327C 336.587,326.208 338.421,325.041 340,323.5C 341.624,319.689 343.124,315.856 344.5,312C 346.5,311.333 348.5,311.333 350.5,312C 354.215,315.31 358.548,316.31 363.5,315C 367.8,311.702 371.8,308.035 375.5,304C 413.165,303.5 450.832,303.333 488.5,303.5C 488.667,314.838 488.5,326.172 488,337.5C 487.153,339.854 486.32,342.188 485.5,344.5C 484.094,344.973 483.427,345.973 483.5,347.5C 481.5,348.833 479.833,350.5 478.5,352.5C 476.973,352.427 475.973,353.094 475.5,354.5C 472.821,355.226 470.154,356.059 467.5,357C 326.167,357.667 184.833,357.667 43.5,357C 37.2756,355.263 31.9423,352.097 27.5,347.5C 27.573,345.973 26.9063,344.973 25.5,344.5C 24.4986,341.828 23.4986,339.162 22.5,336.5C 22.5,325.5 22.5,314.5 22.5,303.5C 106.834,303.333 191.167,303.5 275.5,304C 276.044,304.717 276.711,305.217 277.5,305.5 Z M 322.5,439.5 C 300.51,440.833 278.177,441.5 255.5,441.5C 232.823,441.5 210.49,440.833 188.5,439.5C 196.257,417.966 200.257,395.633 200.5,372.5C 236.833,372.5 273.167,372.5 309.5,372.5C 309.881,395.733 314.214,418.066 322.5,439.5 Z M 376.5,481.5 C 374.973,481.427 373.973,482.094 373.5,483.5C 296.518,484.652 219.518,484.818 142.5,484C 132.576,482.329 128.41,476.496 130,466.5C 132.206,460.808 136.373,457.641 142.5,457C 217.833,456.333 293.167,456.333 368.5,457C 378.446,458.73 382.613,464.563 381,474.5C 379.988,477.202 378.488,479.535 376.5,481.5 Z"/></g>
<g><path style="opacity:0.98" fill="#b5b5b5" d="M 30.5,16.5 C 30.0269,17.9063 29.0269,18.573 27.5,18.5C 27.9731,17.0937 28.9731,16.427 30.5,16.5 Z"/></g>
<g><path style="opacity:0.992" fill="#c2c2c2" d="M 24.5,20.5 C 23.4154,22.5869 21.7488,23.9202 19.5,24.5C 20.5846,22.4131 22.2512,21.0798 24.5,20.5 Z"/></g>
<g><path style="opacity:0.808" fill="#a8a8a8" d="M 17.5,26.5 C 17.573,28.0269 16.9063,29.0269 15.5,29.5C 15.427,27.9731 16.0937,26.9731 17.5,26.5 Z"/></g>
<g><path style="opacity:0.851" fill="#afafaf" d="M 479.5,28.5 C 481.027,28.427 482.027,29.0937 482.5,30.5C 480.973,30.573 479.973,29.9063 479.5,28.5 Z"/></g>
<g><path style="opacity:0.576" fill="#9f9f9f" d="M 498.5,27.5 C 499.906,27.9731 500.573,28.9731 500.5,30.5C 499.094,30.0269 498.427,29.0269 498.5,27.5 Z"/></g>
<g><path style="opacity:0.863" fill="#b4b4b4" d="M 15.5,29.5 C 15.573,31.0269 14.9063,32.0269 13.5,32.5C 13.427,30.9731 14.0937,29.9731 15.5,29.5 Z"/></g>
<g><path style="opacity:0.573" fill="#a0a0a0" d="M 13.5,32.5 C 13.573,34.0269 12.9063,35.0269 11.5,35.5C 11.427,33.9731 12.0937,32.9731 13.5,32.5 Z"/></g>
<g><path style="opacity:1" fill="#fbfbfb" d="M 140.5,55.5 C 189.997,56.4989 239.664,56.8322 289.5,56.5C 289.5,52.1667 289.5,47.8333 289.5,43.5C 289.328,42.5084 289.662,41.8417 290.5,41.5C 292.027,41.573 293.027,40.9063 293.5,39.5C 314.663,38.3373 335.996,38.1706 357.5,39C 359.286,39.7845 360.786,40.9512 362,42.5C 362.667,64.8333 362.667,87.1667 362,109.5C 360.491,111.919 358.325,112.919 355.5,112.5C 353.167,112.5 350.833,112.5 348.5,112.5C 348.5,120.5 348.5,128.5 348.5,136.5C 348.548,139.292 347.215,141.125 344.5,142C 331.833,142.667 319.167,142.667 306.5,142C 305.944,141.617 305.611,141.117 305.5,140.5C 305.167,139.5 304.5,138.833 303.5,138.5C 303.5,129.833 303.5,121.167 303.5,112.5C 300.833,112.5 298.167,112.5 295.5,112.5C 292.392,112.625 290.392,111.292 289.5,108.5C 289.5,104.167 289.5,99.8333 289.5,95.5C 239.664,95.1678 189.997,95.5011 140.5,96.5C 140.666,100.846 140.499,105.179 140,109.5C 138.736,111.607 136.903,112.607 134.5,112.5C 132.5,112.5 130.5,112.5 128.5,112.5C 128.169,142.671 128.502,172.671 129.5,202.5C 139.506,202.334 149.506,202.5 159.5,203C 160.333,203.833 161.167,204.667 162,205.5C 162.667,230.167 162.667,254.833 162,279.5C 161.578,281.426 160.411,282.426 158.5,282.5C 122.165,282.667 85.8318,282.5 49.5,282C 48.7562,280.961 47.7562,280.461 46.5,280.5C 45.7784,280.082 45.2784,279.416 45,278.5C 44.1775,254.428 44.3442,230.428 45.5,206.5C 46.8333,205.833 47.8333,204.833 48.5,203.5C 57.9856,202.506 67.6522,202.173 77.5,202.5C 78.4981,172.671 78.8314,142.671 78.5,112.5C 76.8333,112.5 75.1667,112.5 73.5,112.5C 70.4392,112.556 68.2725,111.222 67,108.5C 66.1705,86.6628 66.3372,64.9961 67.5,43.5C 69.1667,42.5 70.5,41.1667 71.5,39.5C 92.7605,38.3456 114.094,38.1789 135.5,39C 137.286,39.7845 138.786,40.9512 140,42.5C 140.499,46.8206 140.666,51.1539 140.5,55.5 Z M 81.5,53.5 C 81.5,68.5 81.5,83.5 81.5,98.5C 96.1667,98.5 110.833,98.5 125.5,98.5C 125.5,83.5 125.5,68.5 125.5,53.5C 110.833,53.5 96.1667,53.5 81.5,53.5 Z M 303.5,53.5 C 303.5,68.5 303.5,83.5 303.5,98.5C 318.167,98.5 332.833,98.5 347.5,98.5C 347.5,83.5 347.5,68.5 347.5,53.5C 332.833,53.5 318.167,53.5 303.5,53.5 Z M 140.5,70.5 C 189.833,70.5 239.167,70.5 288.5,70.5C 288.5,74.1667 288.5,77.8333 288.5,81.5C 239.167,81.5 189.833,81.5 140.5,81.5C 140.5,77.8333 140.5,74.1667 140.5,70.5 Z M 92.5,113.5 C 99.8333,113.5 107.167,113.5 114.5,113.5C 114.5,143.167 114.5,172.833 114.5,202.5C 107.167,202.5 99.8333,202.5 92.5,202.5C 92.5,172.833 92.5,143.167 92.5,113.5 Z M 334.5,113.5 C 334.5,118.167 334.5,122.833 334.5,127.5C 328.833,127.5 323.167,127.5 317.5,127.5C 317.5,122.833 317.5,118.167 317.5,113.5C 323.167,113.5 328.833,113.5 334.5,113.5 Z M 59.5,217.5 C 88.8333,217.5 118.167,217.5 147.5,217.5C 147.5,234.5 147.5,251.5 147.5,268.5C 118.167,268.5 88.8333,268.5 59.5,268.5C 59.5,251.5 59.5,234.5 59.5,217.5 Z"/></g>
<g><path style="opacity:0.965" fill="#b0b0b0" d="M 71.5,39.5 C 70.5,41.1667 69.1667,42.5 67.5,43.5C 67.8333,41.1667 69.1667,39.8333 71.5,39.5 Z"/></g>
<g><path style="opacity:0.98" fill="#b5b5b5" d="M 293.5,39.5 C 293.027,40.9063 292.027,41.573 290.5,41.5C 290.973,40.0937 291.973,39.427 293.5,39.5 Z"/></g>
<g><path style="opacity:0.165" fill="#878787" d="M 488.5,39.5 C 489.499,122.665 489.833,205.998 489.5,289.5C 450.996,289.832 412.663,289.499 374.5,288.5C 412.5,288.5 450.5,288.5 488.5,288.5C 488.5,205.5 488.5,122.5 488.5,39.5 Z"/></g>
<g><path style="opacity:0.737" fill="#a8a8a8" d="M 9.5,40.5 C 9.70621,43.4951 9.03954,46.1617 7.5,48.5C 7.56513,45.5718 8.2318,42.9052 9.5,40.5 Z"/></g>
<g><path style="opacity:0.714" fill="#a6a6a6" d="M 289.5,43.5 C 289.5,47.8333 289.5,52.1667 289.5,56.5C 239.664,56.8322 189.997,56.4989 140.5,55.5C 189.833,55.5 239.167,55.5 288.5,55.5C 288.183,51.2984 288.517,47.2984 289.5,43.5 Z"/></g>
<g><path style="opacity:0.839" fill="#bfbfbf" d="M 140.5,70.5 C 189.997,69.5011 239.664,69.1678 289.5,69.5C 289.5,73.8333 289.5,78.1667 289.5,82.5C 239.664,82.8322 189.997,82.4989 140.5,81.5C 189.833,81.5 239.167,81.5 288.5,81.5C 288.5,77.8333 288.5,74.1667 288.5,70.5C 239.167,70.5 189.833,70.5 140.5,70.5 Z"/></g>
<g><path style="opacity:0.463" fill="#949494" d="M 140.5,96.5 C 189.997,95.5011 239.664,95.1678 289.5,95.5C 289.5,99.8333 289.5,104.167 289.5,108.5C 288.517,104.702 288.183,100.702 288.5,96.5C 239.167,96.5 189.833,96.5 140.5,96.5 Z"/></g>
<g><path style="opacity:0.534" fill="#979797" d="M 73.5,112.5 C 75.1667,112.5 76.8333,112.5 78.5,112.5C 78.8314,142.671 78.4981,172.671 77.5,202.5C 77.5,172.833 77.5,143.167 77.5,113.5C 75.901,113.768 74.5676,113.434 73.5,112.5 Z"/></g>
<g><path style="opacity:0.745" fill="#a2a2a2" d="M 92.5,113.5 C 99.9818,112.508 107.648,112.175 115.5,112.5C 115.831,142.671 115.498,172.671 114.5,202.5C 114.5,172.833 114.5,143.167 114.5,113.5C 107.167,113.5 99.8333,113.5 92.5,113.5 Z"/></g>
<g><path style="opacity:0.808" fill="#aeaeae" d="M 134.5,112.5 C 133.081,113.451 131.415,113.784 129.5,113.5C 129.5,143.167 129.5,172.833 129.5,202.5C 128.502,172.671 128.169,142.671 128.5,112.5C 130.5,112.5 132.5,112.5 134.5,112.5 Z"/></g>
<g><path style="opacity:0.129" fill="#929292" d="M 334.5,113.5 C 328.833,113.5 323.167,113.5 317.5,113.5C 317.5,118.167 317.5,122.833 317.5,127.5C 323.167,127.5 328.833,127.5 334.5,127.5C 328.69,128.49 322.69,128.823 316.5,128.5C 316.5,123.167 316.5,117.833 316.5,112.5C 322.69,112.177 328.69,112.51 334.5,113.5 Z"/></g>
<g><path style="opacity:0.937" fill="#bbbbbb" d="M 295.5,112.5 C 298.167,112.5 300.833,112.5 303.5,112.5C 303.5,121.167 303.5,129.833 303.5,138.5C 302.507,130.35 302.174,122.017 302.5,113.5C 299.941,113.802 297.607,113.468 295.5,112.5 Z"/></g>
<g><path style="opacity:0.179" fill="#848484" d="M 355.5,112.5 C 353.735,113.461 351.735,113.795 349.5,113.5C 349.825,121.352 349.492,129.018 348.5,136.5C 348.5,128.5 348.5,120.5 348.5,112.5C 350.833,112.5 353.167,112.5 355.5,112.5 Z"/></g>
<g><path style="opacity:0.839" fill="#a9a9a9" d="M 387.5,116.5 C 386.833,117.833 385.833,118.833 384.5,119.5C 384.5,117.5 385.5,116.5 387.5,116.5 Z"/></g>
<g><path style="opacity:0.573" fill="#9e9e9e" d="M 187.5,117.5 C 187.573,119.027 186.906,120.027 185.5,120.5C 185.427,118.973 186.094,117.973 187.5,117.5 Z"/></g>
<g><path style="opacity:0.898" fill="#bcbcbc" d="M 463.5,117.5 C 464.906,117.973 465.573,118.973 465.5,120.5C 464.094,120.027 463.427,119.027 463.5,117.5 Z"/></g>
<g><path style="opacity:0.639" fill="#9d9d9d" d="M 254.5,134.5 C 253.566,133.432 253.232,132.099 253.5,130.5C 235.833,130.5 218.167,130.5 200.5,130.5C 200.5,132.833 200.5,135.167 200.5,137.5C 199.527,135.052 199.194,132.385 199.5,129.5C 217.833,129.5 236.167,129.5 254.5,129.5C 254.5,131.167 254.5,132.833 254.5,134.5 Z"/></g>
<g><path style="opacity:0.639" fill="#a4a4a4" d="M 397.5,130.5 C 415.659,129.503 433.992,129.17 452.5,129.5C 452.802,132.059 452.468,134.393 451.5,136.5C 451.5,134.5 451.5,132.5 451.5,130.5C 433.5,130.5 415.5,130.5 397.5,130.5 Z"/></g>
<g><path style="opacity:0.849" fill="#aeaeae" d="M 451.5,136.5 C 449.012,138.388 446.012,139.055 442.5,138.5C 445.39,137.755 448.39,137.088 451.5,136.5 Z"/></g>
<g><path style="opacity:0.008" fill="#979797" d="M 303.5,138.5 C 304.5,138.833 305.167,139.5 305.5,140.5C 304.167,140.5 303.5,139.833 303.5,138.5 Z"/></g>
<g><path style="opacity:0.988" fill="#bcbcbc" d="M 433.5,141.5 C 433.027,142.906 432.027,143.573 430.5,143.5C 430.973,142.094 431.973,141.427 433.5,141.5 Z"/></g>
<g><path style="opacity:0.016" fill="#989898" d="M 189.5,146.5 C 190.5,146.833 191.167,147.5 191.5,148.5C 190.167,148.5 189.5,147.833 189.5,146.5 Z"/></g>
<g><path style="opacity:0.91" fill="#a6a6a6" d="M 427.5,145.5 C 425.833,147.833 423.833,149.833 421.5,151.5C 422.5,148.5 424.5,146.5 427.5,145.5 Z"/></g>
<g><path style="opacity:0.953" fill="#ababab" d="M 228.5,149.5 C 229.906,149.973 230.573,150.973 230.5,152.5C 229.094,152.027 228.427,151.027 228.5,149.5 Z"/></g>
<g><path style="opacity:0.918" fill="#b9b9b9" d="M 421.5,151.5 C 421.573,153.027 420.906,154.027 419.5,154.5C 419.427,152.973 420.094,151.973 421.5,151.5 Z"/></g>
<g><path style="opacity:0.89" fill="#b8b8b8" d="M 230.5,152.5 C 231.906,152.973 232.573,153.973 232.5,155.5C 231.094,155.027 230.427,154.027 230.5,152.5 Z"/></g>
<g><path style="opacity:0.78" fill="#acacac" d="M 375.5,152.5 C 375.573,154.027 374.906,155.027 373.5,155.5C 373.427,153.973 374.094,152.973 375.5,152.5 Z"/></g>
<g><path style="opacity:0.996" fill="#b6b6b6" d="M 213.5,155.5 C 215.833,155.833 217.167,157.167 217.5,159.5C 215.833,158.5 214.5,157.167 213.5,155.5 Z"/></g>
<g><path style="opacity:0.839" fill="#afafaf" d="M 276.5,153.5 C 277.906,153.973 278.573,154.973 278.5,156.5C 277.094,156.027 276.427,155.027 276.5,153.5 Z"/></g>
<g><path style="opacity:0.58" fill="#a1a1a1" d="M 232.5,155.5 C 233.906,155.973 234.573,156.973 234.5,158.5C 233.094,158.027 232.427,157.027 232.5,155.5 Z"/></g>
<g><path style="opacity:0.925" fill="#b1b1b1" d="M 373.5,155.5 C 373.262,157.404 372.262,158.738 370.5,159.5C 370.738,157.596 371.738,156.262 373.5,155.5 Z"/></g>
<g><path style="opacity:0.863" fill="#acacac" d="M 278.5,156.5 C 280.587,157.585 281.92,159.251 282.5,161.5C 280.413,160.415 279.08,158.749 278.5,156.5 Z"/></g>
<g><path style="opacity:0.992" fill="#c5c5c5" d="M 368.5,161.5 C 367.5,164.5 365.5,166.5 362.5,167.5C 364.167,165.167 366.167,163.167 368.5,161.5 Z"/></g>
<g><path style="opacity:0.016" fill="#989898" d="M 287.5,166.5 C 289.027,166.427 290.027,167.094 290.5,168.5C 288.973,168.573 287.973,167.906 287.5,166.5 Z"/></g>
<g><path style="opacity:0.91" fill="#b6b6b6" d="M 235.5,161.5 C 236.924,163.515 237.59,165.848 237.5,168.5C 236.076,166.485 235.41,164.152 235.5,161.5 Z"/></g>
<g><path style="opacity:0.906" fill="#adadad" d="M 362.5,167.5 C 361.738,169.262 360.404,170.262 358.5,170.5C 359.262,168.738 360.596,167.738 362.5,167.5 Z"/></g>
<g><path style="opacity:0.78" fill="#aaaaaa" d="M 415.5,162.5 C 415.59,165.152 414.924,167.485 413.5,169.5C 413.41,166.848 414.076,164.515 415.5,162.5 Z"/></g>
<g><path style="opacity:0.973" fill="#b4b4b4" d="M 358.5,170.5 C 358.027,171.906 357.027,172.573 355.5,172.5C 355.973,171.094 356.973,170.427 358.5,170.5 Z"/></g>
<g><path style="opacity:0.961" fill="#b0b0b0" d="M 279.5,178.5 C 281.027,178.427 282.027,179.094 282.5,180.5C 280.973,180.573 279.973,179.906 279.5,178.5 Z"/></g>
<g><path style="opacity:0.941" fill="#b6b6b6" d="M 282.5,180.5 C 284.404,180.738 285.738,181.738 286.5,183.5C 284.596,183.262 283.262,182.262 282.5,180.5 Z"/></g>
<g><path style="opacity:0.635" fill="#a1a1a1" d="M 286.5,183.5 C 288.027,183.427 289.027,184.094 289.5,185.5C 287.973,185.573 286.973,184.906 286.5,183.5 Z"/></g>
<g><path style="opacity:0.925" fill="#a8a8a8" d="M 431.5,186.5 C 432.906,186.973 433.573,187.973 433.5,189.5C 432.094,189.027 431.427,188.027 431.5,186.5 Z"/></g>
<g><path style="opacity:1" fill="#bcbcbc" d="M 434.5,190.5 C 436.262,191.262 437.262,192.596 437.5,194.5C 435.738,193.738 434.738,192.404 434.5,190.5 Z"/></g>
<g><path style="opacity:0.78" fill="#a7a7a7" d="M 216.5,190.5 C 216.573,192.027 215.906,193.027 214.5,193.5C 214.427,191.973 215.094,190.973 216.5,190.5 Z"/></g>
<g><path style="opacity:0.031" fill="#979797" d="M 229.5,197.5 C 229.573,199.027 228.906,200.027 227.5,200.5C 227.427,198.973 228.094,197.973 229.5,197.5 Z"/></g>
<g><path style="opacity:0.455" fill="#9a9a9a" d="M 437.5,194.5 C 439.531,197.708 439.865,201.041 438.5,204.5C 438.384,201.14 438.051,197.807 437.5,194.5 Z"/></g>
<g><path style="opacity:0.008" fill="#969696" d="M 337.5,201.5 C 338.833,201.5 339.5,202.167 339.5,203.5C 338.5,203.167 337.833,202.5 337.5,201.5 Z"/></g>
<g><path style="opacity:0.863" fill="#a3a3a3" d="M 424.5,201.5 C 418.762,208.744 412.428,215.577 405.5,222C 404.563,222.692 403.897,222.525 403.5,221.5C 410.5,214.833 417.5,208.167 424.5,201.5 Z"/></g>
<g><path style="opacity:0.929" fill="#bdbdbd" d="M 312.5,202.5 C 312.573,204.027 311.906,205.027 310.5,205.5C 310.427,203.973 311.094,202.973 312.5,202.5 Z"/></g>
<g><path style="opacity:0.592" fill="#9a9a9a" d="M 48.5,203.5 C 47.8333,204.833 46.8333,205.833 45.5,206.5C 45.5,204.5 46.5,203.5 48.5,203.5 Z"/></g>
<g><path style="opacity:0.008" fill="#949494" d="M 214.5,209.5 C 215.906,209.973 216.573,210.973 216.5,212.5C 215.094,212.027 214.427,211.027 214.5,209.5 Z"/></g>
<g><path style="opacity:0.361" fill="#8e8e8e" d="M 328.5,215.5 C 326.169,214.005 324.169,214.338 322.5,216.5C 322.5,215.5 322.5,214.5 322.5,213.5C 325.082,213.025 327.082,213.692 328.5,215.5 Z"/></g>
<g><path style="opacity:0.914" fill="#afafaf" d="M 353.5,212.5 C 352.738,214.262 351.404,215.262 349.5,215.5C 350.262,213.738 351.596,212.738 353.5,212.5 Z"/></g>
<g><path style="opacity:0.922" fill="#aaaaaa" d="M 308.5,212.5 C 308.5,214.5 307.5,215.5 305.5,215.5C 306.167,214.167 307.167,213.167 308.5,212.5 Z"/></g>
<g><path style="opacity:1" fill="#bababa" d="M 394.5,214.5 C 395.71,214.932 396.71,215.599 397.5,216.5C 395.821,216.715 394.821,216.048 394.5,214.5 Z"/></g>
<g><path style="opacity:0.129" fill="#858585" d="M 59.5,217.5 C 59.5,217.167 59.5,216.833 59.5,216.5C 89.1667,216.5 118.833,216.5 148.5,216.5C 148.5,233.833 148.5,251.167 148.5,268.5C 148.167,268.5 147.833,268.5 147.5,268.5C 147.5,251.5 147.5,234.5 147.5,217.5C 118.167,217.5 88.8333,217.5 59.5,217.5 Z"/></g>
<g><path style="opacity:0.008" fill="#959595" d="M 398.5,217.5 C 400.027,217.427 401.027,218.094 401.5,219.5C 399.973,219.573 398.973,218.906 398.5,217.5 Z"/></g>
<g><path style="opacity:0.965" fill="#acacac" d="M 222.5,218.5 C 224.5,218.5 225.5,219.5 225.5,221.5C 224.167,220.833 223.167,219.833 222.5,218.5 Z"/></g>
<g><path style="opacity:0.992" fill="#bbbbbb" d="M 250.5,219.5 C 248.996,222.697 247.33,223.03 245.5,220.5C 246.117,220.611 246.617,220.944 247,221.5C 247.816,220.177 248.983,219.511 250.5,219.5 Z"/></g>
<g><path style="opacity:0.957" fill="#adadad" d="M 333.5,224.5 C 335.027,224.427 336.027,225.094 336.5,226.5C 334.973,226.573 333.973,225.906 333.5,224.5 Z"/></g>
<g><path style="opacity:0.576" fill="#a3a3a3" d="M 381.5,225.5 C 379.901,225.232 378.568,225.566 377.5,226.5C 376.957,226.44 376.624,226.107 376.5,225.5C 378.299,224.212 379.965,224.212 381.5,225.5 Z"/></g>
<g><path style="opacity:0.639" fill="#a5a5a5" d="M 336.5,226.5 C 338.027,226.427 339.027,227.094 339.5,228.5C 337.973,228.573 336.973,227.906 336.5,226.5 Z"/></g>
<g><path style="opacity:1" fill="#f5f5f5" d="M 351.5,285.5 C 349.833,286.5 348.5,287.833 347.5,289.5C 343.618,293.277 338.951,295.777 333.5,297C 328.167,297.667 322.833,297.667 317.5,297C 314.524,296.295 311.858,295.129 309.5,293.5C 309.027,292.094 308.027,291.427 306.5,291.5C 306.027,290.094 305.027,289.427 303.5,289.5C 293.6,281.38 289.6,271.046 291.5,258.5C 292.924,256.485 293.59,254.152 293.5,251.5C 293.928,247.756 295.595,244.756 298.5,242.5C 301.167,240.5 303.5,238.167 305.5,235.5C 307.027,235.573 308.027,234.906 308.5,233.5C 325.215,225.048 340.049,227.714 353,241.5C 363.433,256.737 362.933,271.404 351.5,285.5 Z M 336.5,246.5 C 337.833,248.5 339.5,250.167 341.5,251.5C 341.932,252.71 342.599,253.71 343.5,254.5C 344.32,257.448 344.986,260.448 345.5,263.5C 344.828,266.512 344.161,269.512 343.5,272.5C 342.094,272.973 341.427,273.973 341.5,275.5C 333.484,283.17 324.484,284.503 314.5,279.5C 314.027,278.094 313.027,277.427 311.5,277.5C 311.262,275.596 310.262,274.262 308.5,273.5C 303.175,257.178 308.842,247.178 325.5,243.5C 329.352,243.896 333.019,244.896 336.5,246.5 Z"/></g>
<g><path style="opacity:0.973" fill="#bcbcbc" d="M 269.5,225.5 C 270.919,224.549 272.585,224.216 274.5,224.5C 274.5,227.833 274.5,231.167 274.5,234.5C 273.523,231.713 273.19,228.713 273.5,225.5C 272.167,225.5 270.833,225.5 269.5,225.5 Z"/></g>
<g><path style="opacity:0.965" fill="#adadad" d="M 391.5,230.5 C 393.404,230.738 394.738,231.738 395.5,233.5C 393.596,233.262 392.262,232.262 391.5,230.5 Z"/></g>
<g><path style="opacity:0.808" fill="#a6a6a6" d="M 235.5,231.5 C 237.027,231.427 238.027,232.094 238.5,233.5C 236.973,233.573 235.973,232.906 235.5,231.5 Z"/></g>
<g><path style="opacity:0.98" fill="#b7b7b7" d="M 308.5,233.5 C 308.027,234.906 307.027,235.573 305.5,235.5C 305.973,234.094 306.973,233.427 308.5,233.5 Z"/></g>
<g><path style="opacity:0.965" fill="#b0b0b0" d="M 305.5,235.5 C 303.5,238.167 301.167,240.5 298.5,242.5C 299.833,239.167 302.167,236.833 305.5,235.5 Z"/></g>
<g><path style="opacity:0.922" fill="#aaaaaa" d="M 277.5,243.5 C 277.5,245.5 276.5,246.5 274.5,246.5C 275.167,245.167 276.167,244.167 277.5,243.5 Z"/></g>
<g><path style="opacity:0.961" fill="#a2a2a2" d="M 336.5,246.5 C 339.167,247.167 340.833,248.833 341.5,251.5C 339.5,250.167 337.833,248.5 336.5,246.5 Z"/></g>
<g><path style="opacity:0.988" fill="#b8b8b8" d="M 268.5,247.5 C 268.027,248.906 267.027,249.573 265.5,249.5C 265.973,248.094 266.973,247.427 268.5,247.5 Z"/></g>
<g><path style="opacity:0.996" fill="#b7b7b7" d="M 265.5,249.5 C 265.262,251.404 264.262,252.738 262.5,253.5C 262.738,251.596 263.738,250.262 265.5,249.5 Z"/></g>
<g><path style="opacity:1" fill="#b9b9b9" d="M 341.5,251.5 C 343.048,251.821 343.715,252.821 343.5,254.5C 342.599,253.71 341.932,252.71 341.5,251.5 Z"/></g>
<g><path style="opacity:0.871" fill="#afafaf" d="M 364.5,255.5 C 366.027,255.427 367.027,256.094 367.5,257.5C 365.973,257.573 364.973,256.906 364.5,255.5 Z"/></g>
<g><path style="opacity:0.827" fill="#b0b0b0" d="M 293.5,251.5 C 293.59,254.152 292.924,256.485 291.5,258.5C 291.41,255.848 292.076,253.515 293.5,251.5 Z"/></g>
<g><path style="opacity:0.539" fill="#9a9a9a" d="M 374.5,260.5 C 375.461,262.265 375.795,264.265 375.5,266.5C 374.167,266.5 372.833,266.5 371.5,266.5C 372.209,265.596 373.209,265.263 374.5,265.5C 374.5,263.833 374.5,262.167 374.5,260.5 Z"/></g>
<g><path style="opacity:0.714" fill="#b0b0b0" d="M 59.5,216.5 C 59.5,216.833 59.5,217.167 59.5,217.5C 59.5,234.5 59.5,251.5 59.5,268.5C 88.8333,268.5 118.167,268.5 147.5,268.5C 147.833,268.5 148.167,268.5 148.5,268.5C 118.671,269.498 88.6713,269.831 58.5,269.5C 58.1699,251.659 58.5033,233.992 59.5,216.5 Z"/></g>
<g><path style="opacity:0.988" fill="#b9b9b9" d="M 369.5,267.5 C 369.027,268.906 368.027,269.573 366.5,269.5C 366.973,268.094 367.973,267.427 369.5,267.5 Z"/></g>
<g><path style="opacity:0.765" fill="#a1a1a1" d="M 365.5,270.5 C 365.167,271.5 364.5,272.167 363.5,272.5C 363.5,271.167 364.167,270.5 365.5,270.5 Z"/></g>
<g><path style="opacity:0.643" fill="#9c9c9c" d="M 287.5,271.5 C 288.906,271.973 289.573,272.973 289.5,274.5C 288.094,274.027 287.427,273.027 287.5,271.5 Z"/></g>
<g><path style="opacity:0.8" fill="#ababab" d="M 343.5,272.5 C 343.573,274.027 342.906,275.027 341.5,275.5C 341.427,273.973 342.094,272.973 343.5,272.5 Z"/></g>
<g><path style="opacity:0.914" fill="#bcbcbc" d="M 363.5,272.5 C 363.573,274.027 362.906,275.027 361.5,275.5C 361.427,273.973 362.094,272.973 363.5,272.5 Z"/></g>
<g><path style="opacity:0.878" fill="#aaaaaa" d="M 308.5,273.5 C 310.262,274.262 311.262,275.596 311.5,277.5C 309.738,276.738 308.738,275.404 308.5,273.5 Z"/></g>
<g><path style="opacity:0.031" fill="#9a9a9a" d="M 264.5,275.5 C 265.5,275.833 266.167,276.5 266.5,277.5C 265.167,277.5 264.5,276.833 264.5,275.5 Z"/></g>
<g><path style="opacity:0.008" fill="#969696" d="M 311.5,277.5 C 313.027,277.427 314.027,278.094 314.5,279.5C 312.973,279.573 311.973,278.906 311.5,277.5 Z"/></g>
<g><path style="opacity:0.839" fill="#b4b4b4" d="M 46.5,280.5 C 47.7562,280.461 48.7562,280.961 49.5,282C 85.8318,282.5 122.165,282.667 158.5,282.5C 122.002,283.664 85.3356,283.831 48.5,283C 47.6195,282.292 46.9528,281.458 46.5,280.5 Z"/></g>
<g><path style="opacity:0.031" fill="#939393" d="M 351.5,285.5 C 351.167,287.833 349.833,289.167 347.5,289.5C 348.5,287.833 349.833,286.5 351.5,285.5 Z"/></g>
<g><path style="opacity:0.248" fill="#898989" d="M 22.5,47.5 C 22.5,127.833 22.5,208.167 22.5,288.5C 107.571,288.83 192.571,288.497 277.5,287.5C 192.507,289.497 107.173,290.164 21.5,289.5C 21.1674,208.665 21.5007,127.998 22.5,47.5 Z"/></g>
<g><path style="opacity:0.816" fill="#aaaaaa" d="M 303.5,289.5 C 305.027,289.427 306.027,290.094 306.5,291.5C 304.973,291.573 303.973,290.906 303.5,289.5 Z"/></g>
<g><path style="opacity:0.776" fill="#acacac" d="M 306.5,291.5 C 308.027,291.427 309.027,292.094 309.5,293.5C 307.973,293.573 306.973,292.906 306.5,291.5 Z"/></g>
<g><path style="opacity:0.976" fill="#b7b7b7" d="M 289.5,295.5 C 290.167,296.5 290.833,297.5 291.5,298.5C 288.949,298.332 288.282,297.332 289.5,295.5 Z"/></g>
<g><path style="opacity:0.114" fill="#9d9d9d" d="M 361.5,295.5 C 362.043,295.56 362.376,295.893 362.5,296.5C 360.975,300.195 358.975,300.861 356.5,298.5C 358.933,298.727 360.599,297.727 361.5,295.5 Z"/></g>
<g><path style="opacity:0.937" fill="#b5b5b5" d="M 291.5,298.5 C 292.5,298.5 293.5,298.5 294.5,298.5C 293.26,300.985 292.26,300.985 291.5,298.5 Z"/></g>
<g><path style="opacity:0.976" fill="#b5b5b5" d="M 338.5,298.5 C 338.027,299.906 337.027,300.573 335.5,300.5C 335.973,299.094 336.973,298.427 338.5,298.5 Z"/></g>
<g><path style="opacity:0.969" fill="#ababab" d="M 316.5,300.5 C 318.587,301.585 319.92,303.251 320.5,305.5C 318.413,304.415 317.08,302.749 316.5,300.5 Z"/></g>
<g><path style="opacity:0.996" fill="#e3e3e3" d="M 277.5,305.5 C 276.711,305.217 276.044,304.717 275.5,304C 191.167,303.5 106.834,303.333 22.5,303.5C 22.5,314.5 22.5,325.5 22.5,336.5C 21.5052,325.346 21.1719,314.012 21.5,302.5C 106.501,302.333 191.501,302.5 276.5,303C 277.252,303.671 277.586,304.504 277.5,305.5 Z"/></g>
<g><path style="opacity:0.969" fill="#a9a9a9" d="M 283.5,311.5 C 285.404,311.738 286.738,312.738 287.5,314.5C 285.596,314.262 284.262,313.262 283.5,311.5 Z"/></g>
<g><path style="opacity:0.039" fill="#9a9a9a" d="M 311.5,322.5 C 312.5,322.833 313.167,323.5 313.5,324.5C 312.167,324.5 311.5,323.833 311.5,322.5 Z"/></g>
<g><path style="opacity:1" fill="#f3f3f3" d="M 280.5,334.5 C 279.167,335.167 278.167,336.167 277.5,337.5C 262.833,338.833 248.167,338.833 233.5,337.5C 232.833,336.167 231.833,335.167 230.5,334.5C 228.885,332.672 228.552,330.672 229.5,328.5C 230.906,328.027 231.573,327.027 231.5,325.5C 231.918,324.778 232.584,324.278 233.5,324C 248.167,323.333 262.833,323.333 277.5,324C 280.581,325.312 282.248,327.645 282.5,331C 281.915,332.302 281.249,333.469 280.5,334.5 Z"/></g>
<g><path style="opacity:0.686" fill="#a5a5a5" d="M 231.5,325.5 C 231.573,327.027 230.906,328.027 229.5,328.5C 229.427,326.973 230.094,325.973 231.5,325.5 Z"/></g>
<g><path style="opacity:0.616" fill="#979797" d="M 230.5,334.5 C 231.833,335.167 232.833,336.167 233.5,337.5C 231.5,337.5 230.5,336.5 230.5,334.5 Z"/></g>
<g><path style="opacity:0.008" fill="#919191" d="M 280.5,334.5 C 280.5,336.5 279.5,337.5 277.5,337.5C 278.167,336.167 279.167,335.167 280.5,334.5 Z"/></g>
<g><path style="opacity:0.753" fill="#a4a4a4" d="M 25.5,344.5 C 26.9063,344.973 27.573,345.973 27.5,347.5C 26.0937,347.027 25.427,346.027 25.5,344.5 Z"/></g>
<g><path style="opacity:0.769" fill="#a6a6a6" d="M 485.5,344.5 C 485.573,346.027 484.906,347.027 483.5,347.5C 483.427,345.973 484.094,344.973 485.5,344.5 Z"/></g>
<g><path style="opacity:0.992" fill="#c9c9c9" d="M 483.5,347.5 C 482.833,350.167 481.167,351.833 478.5,352.5C 479.833,350.5 481.5,348.833 483.5,347.5 Z"/></g>
<g><path style="opacity:0.973" fill="#b6b6b6" d="M 478.5,352.5 C 478.027,353.906 477.027,354.573 475.5,354.5C 475.973,353.094 476.973,352.427 478.5,352.5 Z"/></g>
<g><path style="opacity:0.016" fill="#999999" d="M 16.5,356.5 C 18.2624,357.262 19.2624,358.596 19.5,360.5C 17.7376,359.738 16.7376,358.404 16.5,356.5 Z"/></g>
<g><path style="opacity:0.008" fill="#949494" d="M 494.5,356.5 C 494.573,358.027 493.906,359.027 492.5,359.5C 492.427,357.973 493.094,356.973 494.5,356.5 Z"/></g>
<g><path style="opacity:0.914" fill="#a0a0a0" d="M 19.5,360.5 C 21.4044,360.738 22.7377,361.738 23.5,363.5C 21.5956,363.262 20.2623,362.262 19.5,360.5 Z"/></g>
<g><path style="opacity:0.008" fill="#8e8e8e" d="M 490.5,361.5 C 490.027,362.906 489.027,363.573 487.5,363.5C 487.973,362.094 488.973,361.427 490.5,361.5 Z"/></g>
<g><path style="opacity:0.91" fill="#b8b8b8" d="M 23.5,363.5 C 25.0269,363.427 26.0269,364.094 26.5,365.5C 24.9731,365.573 23.9731,364.906 23.5,363.5 Z"/></g>
<g><path style="opacity:0.78" fill="#acacac" d="M 26.5,365.5 C 28.0269,365.427 29.0269,366.094 29.5,367.5C 27.9731,367.573 26.9731,366.906 26.5,365.5 Z"/></g>
<g><path style="opacity:0.929" fill="#c7c7c7" d="M 41.5,371.5 C 89.8333,371.5 138.167,371.5 186.5,371.5C 186.815,375.371 186.482,379.038 185.5,382.5C 185.5,379.167 185.5,375.833 185.5,372.5C 137.33,372.832 89.3304,372.499 41.5,371.5 Z"/></g>
<g><path style="opacity:0.929" fill="#c6c6c6" d="M 469.5,371.5 C 421.336,372.499 373.003,372.832 324.5,372.5C 324.5,375.833 324.5,379.167 324.5,382.5C 323.518,379.038 323.185,375.371 323.5,371.5C 372.167,371.5 420.833,371.5 469.5,371.5 Z"/></g>
<g><path style="opacity:0.996" fill="#b4b4b4" d="M 328.5,409.5 C 329.612,411.599 330.279,413.933 330.5,416.5C 328.837,414.562 328.171,412.228 328.5,409.5 Z"/></g>
<g><path style="opacity:0.127" fill="#838383" d="M 172.5,440.5 C 162.554,442.475 152.221,443.142 141.5,442.5C 151.735,441.811 162.068,441.145 172.5,440.5 Z"/></g>
<g><path style="opacity:0.129" fill="#838383" d="M 188.5,439.5 C 210.49,440.833 232.823,441.5 255.5,441.5C 278.177,441.5 300.51,440.833 322.5,439.5C 323.404,440.209 323.737,441.209 323.5,442.5C 278.167,442.5 232.833,442.5 187.5,442.5C 187.263,441.209 187.596,440.209 188.5,439.5 Z"/></g>
<g><path style="opacity:0.127" fill="#838383" d="M 338.5,440.5 C 348.932,441.145 359.265,441.811 369.5,442.5C 358.779,443.142 348.446,442.475 338.5,440.5 Z"/></g>
<g><path style="opacity:0.937" fill="#a9a9a9" d="M 129.5,445.5 C 129.027,446.906 128.027,447.573 126.5,447.5C 126.973,446.094 127.973,445.427 129.5,445.5 Z"/></g>
<g><path style="opacity:0.031" fill="#989898" d="M 385.5,448.5 C 387.027,448.427 388.027,449.094 388.5,450.5C 386.973,450.573 385.973,449.906 385.5,448.5 Z"/></g>
<g><path style="opacity:0.882" fill="#a5a5a5" d="M 125.5,448.5 C 124.167,450.5 122.5,452.167 120.5,453.5C 121.167,450.833 122.833,449.167 125.5,448.5 Z"/></g>
<g><path style="opacity:0.906" fill="#a3a3a3" d="M 388.5,450.5 C 389.906,450.973 390.573,451.973 390.5,453.5C 389.094,453.027 388.427,452.027 388.5,450.5 Z"/></g>
<g><path style="opacity:0.851" fill="#b3b3b3" d="M 120.5,453.5 C 120.573,455.027 119.906,456.027 118.5,456.5C 118.427,454.973 119.094,453.973 120.5,453.5 Z"/></g>
<g><path style="opacity:0.863" fill="#b4b4b4" d="M 390.5,453.5 C 391.906,453.973 392.573,454.973 392.5,456.5C 391.094,456.027 390.427,455.027 390.5,453.5 Z"/></g>
<g><path style="opacity:0.741" fill="#a8a8a8" d="M 394.5,460.5 C 396.019,463.526 396.685,466.859 396.5,470.5C 396.497,473.025 396.163,475.359 395.5,477.5C 395.625,471.797 395.292,466.13 394.5,460.5 Z"/></g>
<g><path style="opacity:0.969" fill="#b2b2b2" d="M 376.5,481.5 C 376.027,482.906 375.027,483.573 373.5,483.5C 373.973,482.094 374.973,481.427 376.5,481.5 Z"/></g>
<g><path style="opacity:0.016" fill="#959595" d="M 120.5,487.5 C 121.906,487.973 122.573,488.973 122.5,490.5C 121.094,490.027 120.427,489.027 120.5,487.5 Z"/></g>
<g><path style="opacity:0.031" fill="#979797" d="M 390.5,487.5 C 390.573,489.027 389.906,490.027 388.5,490.5C 388.427,488.973 389.094,487.973 390.5,487.5 Z"/></g>
<g><path style="opacity:0.914" fill="#a6a6a6" d="M 122.5,490.5 C 124.027,490.427 125.027,491.094 125.5,492.5C 123.973,492.573 122.973,491.906 122.5,490.5 Z"/></g>
<g><path style="opacity:0.945" fill="#b6b6b6" d="M 125.5,492.5 C 127.404,492.738 128.738,493.738 129.5,495.5C 127.596,495.262 126.262,494.262 125.5,492.5 Z"/></g>
</svg>
