<?xml version="1.0" encoding="UTF-8"?>
<!DOCTYPE svg PUBLIC "-//W3C//DTD SVG 1.1//EN" "http://www.w3.org/Graphics/SVG/1.1/DTD/svg11.dtd">
<svg xmlns="http://www.w3.org/2000/svg" version="1.1" width="252px" height="76px" style="shape-rendering:geometricPrecision; text-rendering:geometricPrecision; image-rendering:optimizeQuality; fill-rule:evenodd; clip-rule:evenodd" xmlns:xlink="http://www.w3.org/1999/xlink">
<g><path style="opacity:1" fill="#fbfbfc" d="M -0.5,-0.5 C 83.5,-0.5 167.5,-0.5 251.5,-0.5C 251.5,24.8333 251.5,50.1667 251.5,75.5C 167.5,75.5 83.5,75.5 -0.5,75.5C -0.5,50.1667 -0.5,24.8333 -0.5,-0.5 Z"/></g>
<g><path style="opacity:1" fill="#433e3e" d="M 40.5,7.5 C 70.8333,7.5 101.167,7.5 131.5,7.5C 131.5,10.8333 131.5,14.1667 131.5,17.5C 101.167,17.5 70.8333,17.5 40.5,17.5C 40.5,14.1667 40.5,10.8333 40.5,7.5 Z"/></g>
<g><path style="opacity:1" fill="#2480c2" d="M 210.5,6.5 C 215.646,6.1808 220.646,6.84746 225.5,8.5C 226.833,12.5 226.833,16.5 225.5,20.5C 215.628,14.5165 209.295,17.0165 206.5,28C 209.207,40.099 215.707,42.599 226,35.5C 226.167,37.5 226.333,39.5 226.5,41.5C 226.41,43.9637 225.743,46.1303 224.5,48C 203,52.1672 193.167,43.3338 195,21.5C 198.106,14.2253 203.272,9.22525 210.5,6.5 Z"/></g>
<g><path style="opacity:1" fill="#221f1f" d="M 41.5,8.5 C 71.1667,8.5 100.833,8.5 130.5,8.5C 130.5,11.1667 130.5,13.8333 130.5,16.5C 100.833,16.5 71.1667,16.5 41.5,16.5C 41.5,13.8333 41.5,11.1667 41.5,8.5 Z"/></g>
<g><path style="opacity:1" fill="#2680c3" d="M 135.5,7.5 C 145.167,7.5 154.833,7.5 164.5,7.5C 164.5,10.8333 164.5,14.1667 164.5,17.5C 161.5,17.5 158.5,17.5 155.5,17.5C 155.5,27.8333 155.5,38.1667 155.5,48.5C 151.5,48.5 147.5,48.5 143.5,48.5C 143.5,38.1667 143.5,27.8333 143.5,17.5C 140.833,17.5 138.167,17.5 135.5,17.5C 135.5,14.1667 135.5,10.8333 135.5,7.5 Z"/></g>
<g><path style="opacity:1" fill="#2580c3" d="M 167.5,7.5 C 175.5,7.5 183.5,7.5 191.5,7.5C 191.5,10.8333 191.5,14.1667 191.5,17.5C 187.167,17.5 182.833,17.5 178.5,17.5C 178.5,19.1667 178.5,20.8333 178.5,22.5C 182.167,22.5 185.833,22.5 189.5,22.5C 189.5,25.8333 189.5,29.1667 189.5,32.5C 185.833,32.5 182.167,32.5 178.5,32.5C 178.5,34.5 178.5,36.5 178.5,38.5C 182.833,38.5 187.167,38.5 191.5,38.5C 191.5,41.8333 191.5,45.1667 191.5,48.5C 183.5,48.5 175.5,48.5 167.5,48.5C 167.5,34.8333 167.5,21.1667 167.5,7.5 Z"/></g>
<g><path style="opacity:1" fill="#468ac8" d="M 235.5,6.5 C 243.696,6.52903 246.863,10.529 245,18.5C 239.885,24.0753 235.219,23.7419 231,17.5C 229.776,12.626 231.276,8.9593 235.5,6.5 Z"/></g>
<g><path style="opacity:1" fill="#dde5f4" d="M 241.5,18.5 C 239.201,21.0021 236.701,21.0021 234,18.5C 231.665,14.8453 232.165,11.6786 235.5,9C 242.56,7.72859 245.06,10.5619 243,17.5C 242.617,18.056 242.117,18.3893 241.5,18.5 Z"/></g>
<g><path style="opacity:1" fill="#4e8dca" d="M 241.5,18.5 C 239.926,18.0629 238.759,17.0629 238,15.5C 237.751,16.624 237.251,17.624 236.5,18.5C 235.52,15.9135 235.187,13.2469 235.5,10.5C 237.792,10.2436 239.959,10.5769 242,11.5C 242.54,13.1346 242.04,14.4679 240.5,15.5C 241.127,16.4168 241.461,17.4168 241.5,18.5 Z"/></g>
<g><path style="opacity:1" fill="#769fd4" d="M 76.5,24.5 C 76.5,24.1667 76.5,23.8333 76.5,23.5C 84.5,23.5 92.5,23.5 100.5,23.5C 100.813,27.0419 100.479,30.3752 99.5,33.5C 99.5,30.5 99.5,27.5 99.5,24.5C 91.8333,24.5 84.1667,24.5 76.5,24.5 Z"/></g>
<g><path style="opacity:1" fill="#2680c3" d="M 113.5,22.5 C 120.367,21.437 126.367,23.1036 131.5,27.5C 130.42,29.9962 129.086,32.3295 127.5,34.5C 124.983,33.1053 122.316,32.1053 119.5,31.5C 115.278,32.6614 114.612,34.828 117.5,38C 131.578,39.3395 136.078,46.5062 131,59.5C 129.039,62.1353 126.539,63.9686 123.5,65C 116.751,66.3306 110.418,65.3306 104.5,62C 103.813,58.4836 104.813,55.317 107.5,52.5C 111.66,56.6131 116.16,57.2797 121,54.5C 121.825,52.2992 121.325,50.4659 119.5,49C 115.783,47.8202 112.116,46.4869 108.5,45C 100.929,35.5303 102.596,28.0303 113.5,22.5 Z"/></g>
<g><path style="opacity:1" fill="#1d7ec2" d="M 58.5,64.5 C 58.8315,55.4754 58.4982,46.4754 57.5,37.5C 56.8933,37.6236 56.56,37.9569 56.5,38.5C 52.427,47.0897 48.0936,55.5897 43.5,64C 38.8452,64.4992 34.1785,64.6658 29.5,64.5C 29.8315,55.4754 29.4982,46.4754 28.5,37.5C 27.8933,37.6236 27.56,37.9569 27.5,38.5C 23.8716,47.0902 19.7049,55.4235 15,63.5C 11.9433,64.4505 8.77659,64.7839 5.5,64.5C 11.6073,50.952 18.274,37.6186 25.5,24.5C 30.456,23.5059 35.456,23.1725 40.5,23.5C 40.3336,32.5062 40.5002,41.5062 41,50.5C 45.7017,41.9576 50.2017,33.2909 54.5,24.5C 59.456,23.5059 64.456,23.1725 69.5,23.5C 69.5,37.1667 69.5,50.8333 69.5,64.5C 65.8333,64.5 62.1667,64.5 58.5,64.5 Z"/></g>
<g><path style="opacity:1" fill="#157dc1" d="M 76.5,24.5 C 84.1667,24.5 91.8333,24.5 99.5,24.5C 99.5,27.5 99.5,30.5 99.5,33.5C 95.5,33.5 91.5,33.5 87.5,33.5C 87.5,35.5 87.5,37.5 87.5,39.5C 91.1667,39.5 94.8333,39.5 98.5,39.5C 98.5,42.5 98.5,45.5 98.5,48.5C 94.5,48.5 90.5,48.5 86.5,48.5C 86.5,50.8333 86.5,53.1667 86.5,55.5C 91.1667,55.5 95.8333,55.5 100.5,55.5C 100.5,58.5 100.5,61.5 100.5,64.5C 92.5,64.5 84.5,64.5 76.5,64.5C 76.5,51.1667 76.5,37.8333 76.5,24.5 Z"/></g>
<g><path style="opacity:1" fill="#b3c7e7" d="M 76.5,23.5 C 76.5,23.8333 76.5,24.1667 76.5,24.5C 76.5,37.8333 76.5,51.1667 76.5,64.5C 84.5,64.5 92.5,64.5 100.5,64.5C 92.3501,65.4927 84.0168,65.8261 75.5,65.5C 75.1709,51.3234 75.5042,37.3234 76.5,23.5 Z"/></g>
<g><path style="opacity:1" fill="#7ca3d6" d="M 27.5,38.5 C 27.56,37.9569 27.8933,37.6236 28.5,37.5C 29.4982,46.4754 29.8315,55.4754 29.5,64.5C 28.8333,55.8333 28.1667,47.1667 27.5,38.5 Z"/></g>
<g><path style="opacity:1" fill="#76a0d5" d="M 56.5,38.5 C 56.56,37.9569 56.8933,37.6236 57.5,37.5C 58.4982,46.4754 58.8315,55.4754 58.5,64.5C 57.8333,55.8333 57.1667,47.1667 56.5,38.5 Z"/></g>
<g><path style="opacity:1" fill="#aac1e4" d="M 98.5,48.5 C 95.0381,49.4816 91.3714,49.815 87.5,49.5C 87.5,51.1667 87.5,52.8333 87.5,54.5C 92.0323,54.1818 96.3656,54.5151 100.5,55.5C 95.8333,55.5 91.1667,55.5 86.5,55.5C 86.5,53.1667 86.5,50.8333 86.5,48.5C 90.5,48.5 94.5,48.5 98.5,48.5 Z"/></g>
<g><path style="opacity:1" fill="#221f1f" d="M 135.5,55.5 C 165.833,55.5 196.167,55.5 226.5,55.5C 226.5,58.5 226.5,61.5 226.5,64.5C 196.167,64.5 165.833,64.5 135.5,64.5C 135.5,61.5 135.5,58.5 135.5,55.5 Z"/></g>
</svg>
