<?xml version="1.0" encoding="UTF-8"?>
<!DOCTYPE svg PUBLIC "-//W3C//DTD SVG 1.1//EN" "http://www.w3.org/Graphics/SVG/1.1/DTD/svg11.dtd">
<svg xmlns="http://www.w3.org/2000/svg" version="1.1" width="568px" height="287px" style="shape-rendering:geometricPrecision; text-rendering:geometricPrecision; image-rendering:optimizeQuality; fill-rule:evenodd; clip-rule:evenodd" xmlns:xlink="http://www.w3.org/1999/xlink">
<g><path style="opacity:0.937" fill="#973855" d="M 444.5,0.5 C 444.5,0.166667 444.5,-0.166667 444.5,-0.5C 451.167,-0.5 457.833,-0.5 464.5,-0.5C 473.423,0.291655 482.423,1.29166 491.5,2.5C 492.531,3.24853 493.698,3.9152 495,4.5C 496.706,8.07884 498.539,11.5788 500.5,15C 498.19,15.4966 495.857,15.6633 493.5,15.5C 473.545,13.7867 453.545,13.12 433.5,13.5C 443.008,12.8334 452.675,12.1667 462.5,11.5C 460.833,8.16667 459.167,4.83333 457.5,1.5C 453.217,0.507763 448.884,0.17443 444.5,0.5 Z"/></g>
<g><path style="opacity:0.937" fill="#98214d" d="M 444.5,0.5 C 448.884,0.17443 453.217,0.507763 457.5,1.5C 459.167,4.83333 460.833,8.16667 462.5,11.5C 452.675,12.1667 443.008,12.8334 433.5,13.5C 429.167,14.1667 424.833,14.8333 420.5,15.5C 418.031,14.6829 415.365,14.1829 412.5,14C 409.938,10.9421 408.938,7.60874 409.5,4C 411.708,3.80912 413.708,3.30912 415.5,2.5C 425.055,0.976627 434.722,0.30996 444.5,0.5 Z"/></g>
<g><path style="opacity:0.937" fill="#944154" d="M 491.5,2.5 C 497.732,2.872 503.732,3.872 509.5,5.5C 510.398,6.15767 511.398,6.82434 512.5,7.5C 514.372,11.4121 516.372,15.2454 518.5,19C 517.207,19.49 515.873,19.6567 514.5,19.5C 507.316,18.4723 500.316,17.1389 493.5,15.5C 495.857,15.6633 498.19,15.4966 500.5,15C 498.539,11.5788 496.706,8.07884 495,4.5C 493.698,3.9152 492.531,3.24853 491.5,2.5 Z"/></g>
<g><path style="opacity:0.937" fill="#9b104e" d="M 415.5,2.5 C 413.708,3.30912 411.708,3.80912 409.5,4C 408.938,7.60874 409.938,10.9421 412.5,14C 415.365,14.1829 418.031,14.6829 420.5,15.5C 400.212,17.6243 380.212,21.291 360.5,26.5C 358.401,23.1441 356.401,19.6441 354.5,16C 355.416,15.7216 356.082,15.2216 356.5,14.5C 375.722,8.45541 395.389,4.45541 415.5,2.5 Z"/></g>
<g><path style="opacity:0.937" fill="#944855" d="M 509.5,5.5 C 528.627,8.81993 546.96,14.6533 564.5,23C 565.781,24.4087 566.781,25.9087 567.5,27.5C 567.5,28.1667 567.5,28.8333 567.5,29.5C 566.467,32.857 564.134,34.857 560.5,35.5C 545.417,29.1403 530.083,23.8069 514.5,19.5C 515.873,19.6567 517.207,19.49 518.5,19C 516.372,15.2454 514.372,11.4121 512.5,7.5C 511.398,6.82434 510.398,6.15767 509.5,5.5 Z"/></g>
<g><path style="opacity:0.937" fill="#95114f" d="M 356.5,14.5 C 356.082,15.2216 355.416,15.7216 354.5,16C 356.401,19.6441 358.401,23.1441 360.5,26.5C 348.919,30.4724 337.252,34.4724 325.5,38.5C 324.504,38.5858 323.671,38.2524 323,37.5C 321.132,34.3949 319.965,31.0615 319.5,27.5C 321.38,27.7709 322.713,27.1042 323.5,25.5C 334.079,20.8624 345.079,17.1957 356.5,14.5 Z"/></g>
<g><path style="opacity:0.937" fill="#8a1850" d="M 323.5,25.5 C 322.713,27.1042 321.38,27.7709 319.5,27.5C 319.965,31.0615 321.132,34.3949 323,37.5C 323.671,38.2524 324.504,38.5858 325.5,38.5C 302.235,47.9659 279.902,59.2992 258.5,72.5C 256.278,68.7231 254.611,64.7231 253.5,60.5C 275.4,46.2166 298.733,34.5499 323.5,25.5 Z"/></g>
<g><path style="opacity:0.937" fill="#801f51" d="M 253.5,60.5 C 254.611,64.7231 256.278,68.7231 258.5,72.5C 246,80.9178 233.667,89.5845 221.5,98.5C 220.624,98.6309 219.957,98.2975 219.5,97.5C 218.441,94.3821 217.108,91.3821 215.5,88.5C 215.863,87.8165 216.196,87.1499 216.5,86.5C 227.72,76.2843 240.054,67.6177 253.5,60.5 Z"/></g>
<g><path style="opacity:0.937" fill="#782452" d="M 216.5,86.5 C 216.196,87.1499 215.863,87.8165 215.5,88.5C 217.108,91.3821 218.441,94.3821 219.5,97.5C 219.957,98.2975 220.624,98.6309 221.5,98.5C 213.398,106.39 205.065,114.057 196.5,121.5C 195.883,121.611 195.383,121.944 195,122.5C 193.426,118.354 191.593,114.354 189.5,110.5C 197.55,101.328 206.55,93.328 216.5,86.5 Z"/></g>
<g><path style="opacity:0.937" fill="#722752" d="M 189.5,110.5 C 191.593,114.354 193.426,118.354 195,122.5C 195.383,121.944 195.883,121.611 196.5,121.5C 198.58,123.387 200.914,125.054 203.5,126.5C 201.09,125.937 198.757,125.437 196.5,125C 199.265,130.469 201.932,135.969 204.5,141.5C 198.522,138.845 192.522,136.179 186.5,133.5C 180.422,139.242 175.088,145.575 170.5,152.5C 169.624,152.631 168.957,152.298 168.5,151.5C 165.868,147.294 164.535,142.96 164.5,138.5C 166.591,135.229 168.924,132.063 171.5,129C 166.871,127.51 162.204,126.343 157.5,125.5C 156.828,124.733 155.995,124.066 155,123.5C 153.774,120.048 152.274,116.715 150.5,113.5C 151.325,112.614 152.325,112.281 153.5,112.5C 163.058,112.878 172.392,114.545 181.5,117.5C 184.186,115.144 186.853,112.811 189.5,110.5 Z"/></g>
<g><path style="opacity:0.937" fill="#6b2c52" d="M 153.5,112.5 C 152.325,112.281 151.325,112.614 150.5,113.5C 152.274,116.715 153.774,120.048 155,123.5C 155.995,124.066 156.828,124.733 157.5,125.5C 144.169,124.227 130.836,124.227 117.5,125.5C 114.753,125.813 112.086,125.48 109.5,124.5C 108.167,121.833 106.833,119.167 105.5,116.5C 105.863,115.817 106.196,115.15 106.5,114.5C 122.172,111.512 137.839,110.845 153.5,112.5 Z"/></g>
<g><path style="opacity:0.937" fill="#663254" d="M 106.5,114.5 C 106.196,115.15 105.863,115.817 105.5,116.5C 106.833,119.167 108.167,121.833 109.5,124.5C 112.086,125.48 114.753,125.813 117.5,125.5C 102.708,128.198 88.0411,131.865 73.5,136.5C 72.2862,133.07 70.7862,129.736 69,126.5C 68.3292,125.748 67.4959,125.414 66.5,125.5C 79.2987,120.239 92.632,116.572 106.5,114.5 Z"/></g>
<g><path style="opacity:0.937" fill="#792351" d="M 203.5,126.5 C 226.843,137.67 245.343,154.337 259,176.5C 270.064,199.491 268.564,221.491 254.5,242.5C 251.635,239.81 249.469,236.477 248,232.5C 247.616,230.803 247.782,229.137 248.5,227.5C 256.013,208.287 253.513,190.287 241,173.5C 236.329,167.997 231.496,162.664 226.5,157.5C 225.415,155.413 223.749,154.08 221.5,153.5C 215.62,149.733 209.954,145.733 204.5,141.5C 201.932,135.969 199.265,130.469 196.5,125C 198.757,125.437 201.09,125.937 203.5,126.5 Z"/></g>
<g><path style="opacity:0.937" fill="#6e3654" d="M 66.5,125.5 C 67.4959,125.414 68.3292,125.748 69,126.5C 70.7862,129.736 72.2862,133.07 73.5,136.5C 57.4529,142.691 41.7862,149.691 26.5,157.5C 27.3389,154.423 26.8389,151.423 25,148.5C 24.5776,146.574 23.4109,145.574 21.5,145.5C 35.8529,137.493 50.8529,130.826 66.5,125.5 Z"/></g>
<g><path style="opacity:0.937" fill="#6b2d53" d="M 164.5,138.5 C 164.535,142.96 165.868,147.294 168.5,151.5C 168.957,152.298 169.624,152.631 170.5,152.5C 161.879,164.075 154.546,176.409 148.5,189.5C 147.603,190.598 146.77,190.598 146,189.5C 144.281,185.367 142.114,181.7 139.5,178.5C 145.834,163.813 154.168,150.479 164.5,138.5 Z"/></g>
<g><path style="opacity:0.937" fill="#7a3a54" d="M 21.5,145.5 C 23.4109,145.574 24.5776,146.574 25,148.5C 26.8389,151.423 27.3389,154.423 26.5,157.5C 17.7006,163.07 8.7006,168.404 -0.5,173.5C -0.5,168.167 -0.5,162.833 -0.5,157.5C 6.59725,153.07 13.9306,149.07 21.5,145.5 Z"/></g>
<g><path style="opacity:0.737" fill="#6c2c75" d="M 221.5,153.5 C 223.749,154.08 225.415,155.413 226.5,157.5C 224.251,156.92 222.585,155.587 221.5,153.5 Z"/></g>
<g><path style="opacity:0.937" fill="#663153" d="M 139.5,178.5 C 142.114,181.7 144.281,185.367 146,189.5C 146.77,190.598 147.603,190.598 148.5,189.5C 140.179,207.605 136.679,226.605 138,246.5C 139.011,251.033 140.511,255.367 142.5,259.5C 143.5,262.5 145.5,264.5 148.5,265.5C 158.886,271.871 170.219,274.204 182.5,272.5C 181.735,276.05 182.569,279.383 185,282.5C 187.041,283.423 189.208,283.756 191.5,283.5C 186.209,284.762 180.875,285.762 175.5,286.5C 173.833,286.5 172.167,286.5 170.5,286.5C 139.824,284.152 124.157,267.486 123.5,236.5C 124.6,215.883 129.934,196.55 139.5,178.5 Z"/></g>
<g><path style="opacity:0.937" fill="#732853" d="M 248.5,227.5 C 247.782,229.137 247.616,230.803 248,232.5C 249.469,236.477 251.635,239.81 254.5,242.5C 247.382,253.62 238.049,262.287 226.5,268.5C 225.504,268.586 224.671,268.252 224,267.5C 222.533,264.242 221.367,260.908 220.5,257.5C 231.644,249.232 240.977,239.232 248.5,227.5 Z"/></g>
<g><path style="opacity:0.937" fill="#6b2d53" d="M 220.5,257.5 C 221.367,260.908 222.533,264.242 224,267.5C 224.671,268.252 225.504,268.586 226.5,268.5C 216.005,276.006 204.338,281.006 191.5,283.5C 189.208,283.756 187.041,283.423 185,282.5C 182.569,279.383 181.735,276.05 182.5,272.5C 195.901,269.475 208.568,264.475 220.5,257.5 Z"/></g>
<g><path style="opacity:0.816" fill="#534b78" d="M 142.5,259.5 C 144.833,261.167 146.833,263.167 148.5,265.5C 145.5,264.5 143.5,262.5 142.5,259.5 Z"/></g>
</svg>
